#N canvas 10 10 200 200 10;
#N canvas 20 20 420 300 META 0;
#X text 10 10 META this is a prototype of a libdir meta file;
#X text 10 30 NAME moocow;
#X text 10 50 AUTHOR Bryan Jurish <moocow@bbaw.de>;
#X text 10 70 DESCRIPTION moocow's externals;
#X text 10 90 LICENSE GNU GPL;
#X text 10 110 VERSION CVS.2013-01-24;
#X restore 10 10 pd META;
