#N canvas 827 239 527 327 12;
#X obj 874 349 easelOutputTile;
#X obj 1099 299 loadbang;
#X obj 1099 349 send numberOfChannels;
#X msg 1099 324 1;
#X listbox 874 449 140 0 0 0 - - - 8;
#X obj 874 199 osc~ 600;
#X msg 374 249 open 3;
#X msg 374 199 devices;
#X obj 549 449 comport 3 2e+06;
#N canvas 733 172 450 300 connectionInfo 0;
#X floatatom 49 124 14 0 0 3 baud - - 8;
#X floatatom 221 304 3 0 0 3 parity - - 0;
#X floatatom 253 304 3 0 0 2 stop - - 0;
#X floatatom 285 303 3 0 0 3 data - - 0;
#X floatatom 381 229 3 0 0 0 port - - 0;
#X obj 317 233 tgl 15 0 empty empty rts/cts -10 20 1 11 #14e814 #fc2828 #000000 0 1;
#X obj 349 249 tgl 15 0 empty empty xon/xoff -14 20 1 11 #14e814 #fc2828 #000000 0 1;
#X text 70 303 serial packet format:;
#X text 258 217 handshaking:;
#X text 29 252 flow control inputs:;
#X obj 157 252 tgl 15 0 empty empty dsr 0 20 1 11 #14e814 #fc2828 #000000 0 1;
#X obj 189 252 tgl 15 0 empty empty cts 0 20 1 11 #14e814 #fc2828 #000000 0 1;
#X obj 124 124 tgl 15 0 empty empty open -2 20 1 8 #372d00 #ffbc25 #000000 0 1;
#X obj 449 249 print port_list;
#X obj 542 221 print other;
#X obj 477 227 tgl 15 0 empty empty hupcl -6 20 1 11 #14e814 #fc2828 #000000 0 1;
#X floatatom 509 240 10 0 0 1 rxerrors - - 0;
#X obj 274 74 route baud dsr cts parity stop data rtscts xonxoff port open ports hupcl rxerrors;
#X obj 308 22 inlet;
#X obj 524 124 s serialOpen;
#X connect 17 0 0 0;
#X connect 17 1 10 0;
#X connect 17 2 11 0;
#X connect 17 3 1 0;
#X connect 17 4 2 0;
#X connect 17 5 3 0;
#X connect 17 6 5 0;
#X connect 17 7 6 0;
#X connect 17 8 4 0;
#X connect 17 9 12 0;
#X connect 17 9 19 0;
#X connect 17 10 13 0;
#X connect 17 11 15 0;
#X connect 17 12 16 0;
#X connect 17 13 14 0;
#X connect 18 0 17 0;
#X coords 0 0 1 1 100 30 2 46 121;
#X restore 649 499 pd connectionInfo;
#X msg 374 299 close;
#X obj 449 199 note 165 14 Inter empty 0 55 55 55 0 228 228 228 0 0 Check which device is the Palette and correct the number below.;
#X obj 449 249 note 165 14 Inter empty 0 55 55 55 0 228 228 228 0 0 Open the serial port with the number you've set;
#X obj 449 299 note 165 14 Inter empty 0 55 55 55 0 228 228 228 0 0 Close the serial port;
#X obj 799 599 note 165 14 Inter empty 0 55 55 55 0 228 228 228 0 0 Open the serial port with the number you've set;
#N canvas 733 172 450 300 infoGet 0;
#X msg 399 424 info;
#X obj 424 374 b;
#X msg 401 400 pollintervall 1;
#X obj 324 399 del 10;
#X obj 324 374 b;
#X obj 374 299 inlet;
#X obj 374 249 inlet;
#X obj 549 449 outlet;
#X connect 0 0 7 0;
#X connect 1 0 2 0 32.................D....T.....A....E....b.....;
#X connect 2 0 0 0 32.................C....7+++++.....+++++W.....;
#X connect 3 0 0 0 32.................B....rD...f.....KA...X.....;
#X connect 4 0 3 0 32.................C....L....v.....C....X.....;
#X connect 5 0 4 0;
#X connect 6 0 1 0;
#X restore 299 399 pd infoGet;
#X listbox 874 499 140 0 0 0 - - - 8;
#N canvas 733 172 450 300 onlyTalkWhenSerialIsOpen 0;
#X obj 724 349 r serialOpen;
#X obj 724 399 spigot;
#X obj 874 349 inlet;
#X obj 874 499 outlet;
#X connect 0 0 1 1 32.................P....bA....D....W....7A....;
#X connect 1 0 3 0;
#X connect 2 0 1 0;
#X restore 599 399 pd onlyTalkWhenSerialIsOpen;
#X connect 0 0 4 0 32.................e....v+++++G....7++++6C....;
#X connect 0 0 17 0 32.................D....3t+++OA....t6+++y.....;
#X connect 1 0 3 0 32.................C....3+++++.....9++++a.....;
#X connect 3 0 2 0 32.................C....L....v.....C....X.....;
#X connect 5 0 0 0 32.................BA........fP.........LH....;
#X connect 6 0 8 0 32.................S....7J...vD....uB...TK....;
#X connect 6 0 15 1 32.................BA...X9+++uP....l++++OH....;
#X connect 7 0 8 0 48.................X....HC....F....x....bH...vq....GB...7J...v4....;
#X connect 8 1 9 0 32.................P....L++++OD....y+++++A....;
#X connect 10 0 8 0 32.................w....7J...PL....uB...LH....;
#X connect 10 0 15 0 32.................K....X6++++B....19+++GE....;
#X connect 15 0 8 0 32.................P....nO....D....5C...7A....;
#X connect 17 0 8 0 32.................P....77+++OD....O+++++A....;
#X connect 17 0 16 0 48.................N....HO...fC....xC...7C...fCA...+....3P...PT....;
