#N canvas 733 172 450 300 12;
#X obj 149 174 << 12;
#X obj 149 74 slice 2;
#X obj 149 124 slice 1;
#X obj 149 224 +;
#X obj 149 24 inlet;
#X obj 224 121 note 220 14 Inter empty 0 55 55 55 0 228 228 228 0 0 To efficiently fit them into a serial bitstream\\\, we stack each pair of 12-bit values as a 24-bit number. After this\\\, we'll make a list of the 24-bit numbers and send the resulting sets of 3 bytes to be reassembled at the Palette.;
#X obj 449 474 outlet;
#X obj 149 350 >> 16;
#X obj 249 350 >> 8;
#X obj 149 299 & 1.67117e+07;
#X obj 249 299 & 65280;
#X obj 349 299 & 255;
#X obj 349 417 list append;
#X obj 249 417 list append;
#X obj 149 417 list append;
#X obj 149 474 outlet;
#X obj 324 324 note 127 14 Inter empty 0 55 55 55 0 228 228 228 0 0 This bitmask makes a list of the three bytes to be sent to [comport];
#X obj 324 474 note 125 14 Inter empty 0 55 55 55 0 228 228 228 0 0 This outlet sends the remaining list of values to be processed by the next 2Vals3Bytes;
#X connect 0 0 3 0 32.................M.........PC.........jA....;
#X connect 1 0 2 0 32.................Q.........PD.........DB....;
#X connect 1 1 6 0 32.................D....PQ....A....TD...fS....;
#X connect 2 0 0 0 32.................Q.........PD.........DB....;
#X connect 2 1 3 1 48.................W....DA...vE....Q....nC...f8++++5....X++++eT....;
#X connect 3 0 11 0 32.................S....fL...vD....HC...fC....;
#X connect 3 0 10 0 32.................b....PF....G....jA...fC....;
#X connect 3 0 9 0 32.................b..........G.........fC....;
#X connect 4 0 1 0;
#X connect 7 0 14 0;
#X connect 8 0 13 0;
#X connect 9 0 7 0;
#X connect 10 0 8 0;
#X connect 11 0 12 0;
#X connect 12 0 13 1;
#X connect 13 0 14 1;
#X connect 14 0 15 0;
