#N canvas 827 239 527 327 12;
#N canvas 733 172 450 300 intRange 0;
#X obj 90 81 inlet~;
#X obj 90 193 round~ 1;
#X obj 90 230 outlet~;
#X obj 90 164 clip~ 0 4095;
#X obj 90 136 scale~ 0 1 0 4095;
#X connect 0 0 4 0;
#X connect 1 0 2 0;
#X connect 3 0 1 0;
#X connect 4 0 3 0;
#X restore 188 190 pd intRange;
#X obj 282 83 note 159 23 Inter empty 1 55 55 55 0 228 228 228 0 0 Individual output channel;
#X obj 299 224 scope~ 38 38 18 3 1024 -1 4095 0 0 0 2048 153 153 153 255 204 0 246 231 67 0 empty;
#X obj 188 102 inlet~ lin;
#X obj 188 271 sig2float~;
#X obj 188 316 round 1;
#X obj 188 364 outlet;
#X connect 0 0 4 0;
#X connect 0 0 2 0 32.................F....DN...fA....gC...HA....;
#X connect 3 0 0 0;
#X connect 4 0 5 0;
#X connect 5 0 6 0;
#X coords 0 0 1 1 38 38 2 298 224;
