#N canvas 827 239 1442 585 12;
#X obj 449 199 loadbang;
#X obj 449 249 send numberOfChannels;
#X msg 449 224 1;
#X listbox 774 349 78 0 0 0 - - - 8;
#X msg 374 249 open 3;
#X msg 374 199 devices;
#N canvas 733 172 450 300 connectionInfo 0;
#X floatatom 274 216 10 0 0 3 baud\ (ignored\ by\ USB) - - 8;
#X floatatom 369 148 3 0 0 3 parity - - 0;
#X floatatom 399 176 3 0 0 2 stop - - 0;
#X floatatom 429 151 3 0 0 3 data - - 0;
#X floatatom 521 176 3 0 0 0 port - - 0;
#X obj 460 176 tgl 15 0 empty empty rts/cts -10 20 1 11 #14e814 #fc2828 #000000 0 1;
#X obj 490 151 tgl 15 0 empty empty xon/xoff -14 20 1 11 #14e814 #fc2828 #000000 0 1;
#X obj 308 148 tgl 15 0 empty empty dsr 0 20 1 11 #14e814 #fc2828 #000000 0 1;
#X obj 338 176 tgl 15 0 empty empty cts 0 20 1 11 #14e814 #fc2828 #000000 0 1;
#X obj 124 124 tgl 15 0 empty empty open -2 20 1 8 #372d00 #ffbc25 #000000 0 1;
#X obj 577 224 print port_list;
#X obj 612 190 tgl 15 0 empty empty hupcl -6 20 1 11 #14e814 #fc2828 #000000 0 1;
#X floatatom 640 153 5 0 0 1 rxerrors - - 0;
#X obj 274 74 route baud dsr cts parity stop data rtscts xonxoff port open ports hupcl rxerrors;
#X obj 274 30 inlet;
#X obj 547 262 s serialOpen;
#X obj 698 224 sel -1;
#X obj 698 124 print serialError;
#X obj 698 262 s closePalette;
#X obj 679 339 s closePalette;
#X obj 679 301 sel retrying;
#X connect 13 0 0 0;
#X connect 13 1 7 0;
#X connect 13 2 8 0;
#X connect 13 3 1 0;
#X connect 13 4 2 0;
#X connect 13 5 3 0;
#X connect 13 6 5 0;
#X connect 13 7 6 0;
#X connect 13 8 4 0;
#X connect 13 9 9 0;
#X connect 13 9 15 0 32.................aB...3A...vl....d....XJ....;
#X connect 13 10 10 0;
#X connect 13 11 11 0;
#X connect 13 12 12 0;
#X connect 13 13 16 0;
#X connect 13 13 17 0;
#X connect 13 13 20 0;
#X connect 14 0 13 0;
#X connect 16 0 18 0;
#X connect 20 0 19 0;
#X coords 0 0 1 1 29 29 2 117 121;
#X restore 637 439 pd connectionInfo;
#X msg 374 299 close;
#X obj 199 199 note 165 14 Inter empty 0 55 55 55 0 228 228 228 0 0 Check which device is the Palette and correct the number under Open.;
#X obj 199 249 note 165 14 Inter empty 0 55 55 55 0 228 228 228 0 0 Open the serial port with the number you've set;
#X obj 199 299 note 165 14 Inter empty 0 55 55 55 0 228 228 228 0 0 Close the serial port;
#X obj 549 449 comport 3;
#X obj 549 527 sel 13 10;
#X obj 549 593 cyclone/zl group 100;
#X obj 549 630 list tosymbol;
#X obj 624 149 EaselControlRateOutputTile;
#N canvas 733 172 450 300 CRify 0;
#X obj 199 97 sig2float~;
#X obj 202 124 b;
#X obj 149 173 snapshot~;
#X obj 149 24 inlet~;
#X obj 149 227 outlet;
#X obj 149 56 scale~ -1 1 0 1;
#X connect 0 0 1 0 32.................H..........B.........7.....;
#X connect 1 0 2 0 32.................E.....5+++eA....f9+++m.....;
#X connect 2 0 4 0 32.................r..........K.........fE....;
#X connect 3 0 5 0 32.................G.........vA.........z.....;
#X connect 5 0 0 0 32.................K....LK...vB....yB...XA....;
#X connect 5 0 2 0 32.................K.........vB.........XA....;
#X restore 624 49 pd CRify;
#X obj 674 149 EaselControlRateOutputTile;
#N canvas 733 172 450 300 CRify 0;
#X obj 850 339 sig2float~;
#X obj 864 416 b;
#X obj 660 322 snapshot~;
#X obj 660 249 inlet~;
#X obj 781 166 outlet;
#X obj 660 281 scale~ -1 1 0 1;
#X connect 0 0 1 0;
#X connect 1 0 2 0;
#X connect 2 0 4 0;
#X connect 3 0 5 0;
#X connect 5 0 0 0;
#X connect 5 0 2 0;
#X restore 649 99 pd CRify;
#X obj 624 258 2Vals3Bytes;
#X obj 624 214 list append;
#X obj 724 149 EaselControlRateOutputTile;
#N canvas 733 172 450 300 CRify 0;
#X obj 850 339 sig2float~;
#X obj 864 416 b;
#X obj 660 322 snapshot~;
#X obj 660 249 inlet~;
#X obj 781 166 outlet;
#X obj 660 281 scale~ -1 1 0 1;
#X connect 0 0 1 0;
#X connect 1 0 2 0;
#X connect 2 0 4 0;
#X connect 3 0 5 0;
#X connect 5 0 0 0;
#X connect 5 0 2 0;
#X restore 724 49 pd CRify;
#X obj 774 149 EaselControlRateOutputTile;
#N canvas 733 172 450 300 CRify 0;
#X obj 850 339 sig2float~;
#X obj 864 416 b;
#X obj 660 322 snapshot~;
#X obj 660 249 inlet~;
#X obj 781 166 outlet;
#X obj 660 281 scale~ -1 1 0 1;
#X connect 0 0 1 0;
#X connect 1 0 2 0;
#X connect 2 0 4 0;
#X connect 3 0 5 0;
#X connect 5 0 0 0;
#X connect 5 0 2 0;
#X restore 749 99 pd CRify;
#X obj 724 258 2Vals3Bytes;
#X obj 724 214 list append;
#X obj 824 149 EaselControlRateOutputTile;
#N canvas 733 172 450 300 CRify 0;
#X obj 850 339 sig2float~;
#X obj 864 416 b;
#X obj 660 322 snapshot~;
#X obj 660 249 inlet~;
#X obj 781 166 outlet;
#X obj 660 281 scale~ -1 1 0 1;
#X connect 0 0 1 0;
#X connect 1 0 2 0;
#X connect 2 0 4 0;
#X connect 3 0 5 0;
#X connect 5 0 0 0;
#X connect 5 0 2 0;
#X restore 824 49 pd CRify;
#X obj 874 149 EaselControlRateOutputTile;
#N canvas 733 172 450 300 CRify 0;
#X obj 850 339 sig2float~;
#X obj 864 416 b;
#X obj 660 322 snapshot~;
#X obj 660 249 inlet~;
#X obj 781 166 outlet;
#X obj 660 281 scale~ -1 1 0 1;
#X connect 0 0 1 0;
#X connect 1 0 2 0;
#X connect 2 0 4 0;
#X connect 3 0 5 0;
#X connect 5 0 0 0;
#X connect 5 0 2 0;
#X restore 849 99 pd CRify;
#X obj 824 258 2Vals3Bytes;
#X obj 824 214 list append;
#X obj 924 149 EaselControlRateOutputTile;
#N canvas 733 172 450 300 CRify 0;
#X obj 850 339 sig2float~;
#X obj 864 416 b;
#X obj 660 322 snapshot~;
#X obj 660 249 inlet~;
#X obj 781 166 outlet;
#X obj 660 281 scale~ -1 1 0 1;
#X connect 0 0 1 0;
#X connect 1 0 2 0;
#X connect 2 0 4 0;
#X connect 3 0 5 0;
#X connect 5 0 0 0;
#X connect 5 0 2 0;
#X restore 924 49 pd CRify;
#X obj 974 149 EaselControlRateOutputTile;
#N canvas 733 172 450 300 CRify 0;
#X obj 850 339 sig2float~;
#X obj 864 416 b;
#X obj 660 322 snapshot~;
#X obj 660 249 inlet~;
#X obj 781 166 outlet;
#X obj 660 281 scale~ -1 1 0 1;
#X connect 0 0 1 0;
#X connect 1 0 2 0;
#X connect 2 0 4 0;
#X connect 3 0 5 0;
#X connect 5 0 0 0;
#X connect 5 0 2 0;
#X restore 949 99 pd CRify;
#X obj 924 258 2Vals3Bytes;
#X obj 924 214 list append;
#X obj 824 299 list append;
#X obj 724 299 list append;
#X obj 624 299 list append;
#X obj 574 386 list store;
#X symbolatom 250 868 9 0 0 0 - - - 12;
#X floatatom 322 868 5 0 0 0 - - - 0;
#X floatatom 353 868 5 0 0 0 - - - 0;
#X floatatom 382 868 5 0 0 0 - - - 0;
#X floatatom 418 868 5 0 0 0 - - - 0;
#X obj 405 341 send closePalette;
#X obj 574 349 receive receiveComplete;
#X obj 549 701 route Palette;
#X obj 241 800 unpack s f f f f;
#X msg 124 834 set 0;
#X obj 124 774 r closePalette;
#N canvas 733 172 788 664 comportSetup 0;
#X msg 272 271 info;
#X obj 275 166 b;
#X obj 186 217 del 10;
#X obj 189 166 b;
#X obj 272 368 outlet;
#X obj 186 67 inlet;
#X obj 272 67 inlet;
#X obj 272 217 del 10;
#X obj 327 217 send stopSending;
#X msg 80 217 pollintervall 1;
#X obj 327 67 receive closePalette;
#X connect 0 0 4 0 32.................l....f++++uI....3+++++D....;
#X connect 1 0 7 0;
#X connect 1 0 8 0 32.................P....bC....D....2.....B....;
#X connect 2 0 0 0 32.................K....DH...vB....AB...HA....;
#X connect 3 0 2 0 32.................C....L....v.....C....X.....;
#X connect 3 0 9 0 32.................P....b4+++OD....W9+++CB....;
#X connect 5 0 3 0;
#X connect 6 0 1 0;
#X connect 7 0 0 0;
#X connect 9 0 4 0 32.................zA....L....c.....C...PH....;
#X connect 10 0 1 0 32.................n....n7+++OJ....J++++CE....;
#X restore 356 399 pd comportSetup;
#X obj 782 692 unpack f f f f f f f f f f f f;
#X obj 124 805 del 1000;
#X obj 449 310 b;
#X obj 549 661 list fromsymbol;
#X obj 782 630 list tosymbol;
#X obj 782 661 list fromsymbol;
#N canvas 733 172 450 300 received 0;
#X obj 638 1014 send receiveComplete;
#X obj 638 989 b;
#X obj 599 874 inlet;
#X connect 1 0 0 0;
#X connect 2 0 1 0;
#X restore 691 754 pd received;
#N canvas 733 172 450 300 received 0;
#X obj 394 593 send receiveComplete;
#X obj 394 568 b;
#X obj 549 527 inlet;
#X connect 1 0 0 0;
#X connect 2 0 1 0;
#X restore 382 587 pd received;
#X obj 694 720 b;
#X obj 250 976 s version;
#X obj 322 976 s numDACs;
#X obj 353 949 s DACDepth;
#X obj 382 924 s numADCs;
#X obj 418 895 s ADCDepth;
#X obj 782 754 3Bytes2Values;
#X obj 885 754 3Bytes2Values;
#X obj 988 754 3Bytes2Values;
#X obj 1096 754 3Bytes2Values;
#X floatatom 797 799 5 0 0 0 - - - 10;
#X floatatom 844 799 4 0 0 0 - - - 10;
#X floatatom 900 799 5 0 0 0 - - - 10;
#X floatatom 956 799 4 0 0 0 - - - 10;
#X floatatom 1008 799 5 0 0 0 - - - 10;
#X floatatom 1063 799 4 0 0 0 - - - 10;
#X floatatom 1111 799 5 0 0 0 - - - 10;
#X floatatom 1167 799 4 0 0 0 - - - 10;
#X obj 1165 845 list;
#X obj 1109 845 list;
#X obj 1061 845 list;
#X obj 1006 845 list;
#X obj 954 845 list;
#X obj 898 845 list;
#X obj 842 845 list;
#X obj 795 845 list;
#X obj 949 71 osc~ 1;
#X obj 924 21 osc~2;
#X obj 849 71 osc~ 4;
#X obj 824 21 osc~ 8;
#X obj 749 71 osc~ 16;
#X obj 724 21 osc~ 32;
#X obj 649 71 osc~ 64;
#X obj 624 21 osc~ 128;
#N canvas 0 0 450 250 (subpatch) 0;
#X array ch8In 100 float 2;
#X coords 0 4095 100 -1 128 128 1;
#X restore 1161 992 graph;
#X obj 1232 896 count 128;
#X obj 1081 680 print;
#X obj 782 548 cyclone/zl group 12;
#X listbox 129 487 72 0 0 0 - - - 8;
#X obj 1165 930 tabwrite ch8In;
#X connect 0 0 2 0 32.................C....3+++++.....9++++a.....;
#X connect 2 0 1 0 32.................C....L....v.....C....X.....;
#X connect 4 0 54 0 32.................V....79+++uE....u++++OH....;
#X connect 4 0 11 0 32.................W....7J...vE....uB...TK....;
#X connect 5 0 11 0 48.................P....HC....D....x....3C...vq....9....7J...v4....;
#X connect 7 0 54 1 32.................7....3A....O....d....DE....;
#X connect 7 0 11 0 32.................w....7J...PL....uB...LH....;
#X connect 7 0 57 0 48.................I....nC...PB....5....H++++OR....x++++iD...P9++++;
#X connect 11 0 12 0 32.................q.........vJ.........TE....;
#X connect 11 0 100 0 32.................a....jN...vF....oC....E....;
#X connect 11 0 101 0;
#X connect 11 1 6 0 48.................F....LA...fA....S....38+++eJ....d++++mB....4++++;
#X connect 12 0 13 0 32.................H..........B..........A....;
#X connect 12 1 62 0;
#X connect 12 2 13 0 32.................e....z8++++G....c+++++B....;
#X connect 13 0 14 0 32.................F.........fA.........v.....;
#X connect 14 0 58 0 32.................F.........fA.........v.....;
#X connect 15 0 20 0 32.................N.........fC.........rA....;
#X connect 16 0 15 0 32.................o.........PJ.........DE....;
#X connect 17 0 20 1 32.................N....D....fC....A....rA....;
#X connect 18 0 17 0 32.................P....jA....D....Y....7A....;
#X connect 19 0 41 0 32.................K.........vB.........XA....;
#X connect 20 0 19 0 32.................M.........PC.........jA....;
#X connect 21 0 26 0 32.................N.........fC.........rA....;
#X connect 22 0 21 0 32.................o.........PJ.........DE....;
#X connect 23 0 26 1 32.................N....D....fC....A....rA....;
#X connect 24 0 23 0 32.................P....jA....D....Y....7A....;
#X connect 25 0 40 0 32.................K.........vB.........XA....;
#X connect 26 0 25 0 32.................M.........PC.........jA....;
#X connect 27 0 32 0 32.................N.........fC.........rA....;
#X connect 28 0 27 0 32.................o.........PJ.........DE....;
#X connect 29 0 32 1 32.................N....D....fC....A....rA....;
#X connect 30 0 29 0 32.................P....jA....D....Y....7A....;
#X connect 31 0 39 0 32.................K.........vB.........XA....;
#X connect 32 0 31 0 32.................M.........PC.........jA....;
#X connect 33 0 38 0 32.................N.........fC.........rA....;
#X connect 34 0 33 0 32.................o.........PJ.........DE....;
#X connect 35 0 38 1 32.................N....D....fC....A....rA....;
#X connect 36 0 35 0 32.................P....jA....D....Y....7A....;
#X connect 37 0 39 1 32.................K.....8++++B....P++++aA....;
#X connect 38 0 37 0 32.................M.........PC.........jA....;
#X connect 39 0 40 1;
#X connect 40 0 41 1;
#X connect 41 0 3 0 32.................P....v++++OD....7+++++A....;
#X connect 41 0 42 1 48.................W....XF...vE....lA...rC...v7++++6....L++++OQ....;
#X connect 42 0 11 0 32.................b....f9+++OG....n++++yB....;
#X connect 43 0 64 0;
#X connect 44 0 65 0;
#X connect 45 0 66 0;
#X connect 46 0 67 0;
#X connect 47 0 68 0;
#X connect 49 0 42 0;
#X connect 50 0 51 0 32.................a....zr++++F....M6+++CE....;
#X connect 51 0 43 0 32.................o....j....PJ....I....nC....;
#X connect 51 1 44 0 32.................j....rC....I....6....fC....;
#X connect 51 2 45 0 32.................f....HD....H....BA...fC....;
#X connect 51 3 46 0 32.................b....HF....G....hA...nC....;
#X connect 51 4 47 0 32.................X....jF....F....oA...nC....;
#X connect 52 0 44 0 32.................E....HL...PA....BC...7.....;
#X connect 52 0 45 0 32.................E....rM...PA....aC...7.....;
#X connect 52 0 46 0 32.................E....zP...PA....MD...7.....;
#X connect 52 0 47 0 32.................E....XR...PA....lD...7.....;
#X connect 52 0 43 0 32.................E....3G...PA....9A...7.....;
#X connect 53 0 56 0;
#X connect 54 0 11 0 32.................P....DL....D....AC...7A....;
#X connect 55 0 69 0 32.................V.........fE.........rB....;
#X connect 55 0 63 0;
#X connect 55 1 69 1 32.................V....LA...fE....S....rB....;
#X connect 55 2 69 2 32.................V....bB...fE....m....rB....;
#X connect 55 3 70 0 32.................V....LC...fE....y....rB....;
#X connect 55 4 70 1 32.................V....XD...fE....FA...rB....;
#X connect 55 5 70 2 32.................V....nE...fE....ZA...rB....;
#X connect 55 6 71 0 32.................V....XF...fE....lA...rB....;
#X connect 55 7 71 1 32.................V....jG...fE....4A...rB....;
#X connect 55 8 71 2 32.................V....zH...fE....MB...rB....;
#X connect 55 9 72 0 32.................V....3I...fE....dB...rB....;
#X connect 55 10 72 1 32.................V....DK...fE....wB...rB....;
#X connect 55 11 72 2 32.................V....PL...fE....DC...rB....;
#X connect 56 0 52 0;
#X connect 57 0 48 0 32.................E....f8+++eA....X++++u.....;
#X connect 58 0 50 0 32.................J.........fB.........PA....;
#X connect 59 0 60 0 32.................F.........fA.........v.....;
#X connect 60 0 55 0;
#X connect 63 0 61 0;
#X connect 69 0 73 0;
#X connect 69 1 74 0;
#X connect 70 0 75 0;
#X connect 70 1 76 0;
#X connect 71 0 77 0;
#X connect 71 1 78 0;
#X connect 72 0 79 0;
#X connect 72 1 80 0;
#X connect 73 0 88 0;
#X connect 74 0 87 0;
#X connect 75 0 86 0;
#X connect 76 0 85 0;
#X connect 77 0 84 0;
#X connect 78 0 83 0;
#X connect 79 0 82 0;
#X connect 80 0 81 0;
#X connect 80 0 98 0;
#X connect 80 0 102 0;
#X connect 81 0 82 1;
#X connect 82 0 83 1;
#X connect 83 0 84 1;
#X connect 84 0 85 1;
#X connect 85 0 86 1;
#X connect 86 0 87 1;
#X connect 87 0 88 1;
#X connect 89 0 36 0 32.................E.........PA.........j.....;
#X connect 90 0 34 0 32.................E.........PA.........j.....;
#X connect 91 0 30 0 32.................E.........PA.........j.....;
#X connect 92 0 28 0 32.................E.........PA.........j.....;
#X connect 93 0 24 0 32.................E.........PA.........j.....;
#X connect 94 0 22 0 32.................E.........PA.........j.....;
#X connect 95 0 18 0 32.................E.........PA.........j.....;
#X connect 96 0 16 0 32.................E.........PA.........j.....;
#X connect 98 0 102 1;
#X connect 100 0 59 0 32.................F.........fA.........v.....;
#X coords 0 0 1 1 392 42 1 623 147;
