#N canvas 827 239 527 327 12;
#X obj 299 224 cnv 15 38 38 empty empty empty 20 12 0 14 #ffc300 #373737 0;
#N canvas 0 0 450 250 (subpatch) 0;
#X array thisChannel 64 float 4;
#X coords 0 4095 63 0 38 38 1;
#X restore 299 224 graph;
#X obj 74 399 tabwrite~ thisChannel;
#X obj 103 311 b;
#X obj 99 274 sig2float~;
#X obj 224 399 array get thisChannel;
#X listbox 224 424 52 0 0 0 - - - 12;
#N canvas 733 172 450 300 intRange 0;
#X obj 881 322 +~ 1;
#X obj 881 357 /~ 2;
#X obj 881 294 inlet~;
#X obj 881 531 outlet~;
#X obj 881 401 scale~ 0 1 0 4095;
#X obj 881 439 round~ 1;
#X connect 0 0 1 0;
#X connect 1 0 4 0;
#X connect 2 0 0 0;
#X connect 4 0 5 0;
#X connect 5 0 3 0;
#X restore 74 224 pd intRange;
#X listbox 224 574 74 0 0 0 - - - 8;
#N canvas 733 172 450 300 valuesToBytes 0;
#X obj 49 99 2Vals3Bytes;
#X obj 149 99 2Vals3Bytes;
#X obj 249 99 2Vals3Bytes;
#X obj 349 99 2Vals3Bytes;
#X obj 49 49 inlet;
#X obj 49 324 outlet;
#X obj 449 99 2Vals3Bytes;
#X obj 549 99 2Vals3Bytes;
#X obj 649 99 2Vals3Bytes;
#X obj 749 99 2Vals3Bytes;
#X obj 849 99 2Vals3Bytes;
#X obj 949 99 2Vals3Bytes;
#X obj 1049 99 2Vals3Bytes;
#X obj 1149 99 2Vals3Bytes;
#X obj 1149 149 list prepend;
#X obj 1049 149 list prepend;
#X obj 949 149 list prepend;
#X obj 849 149 list prepend;
#X obj 749 149 list prepend;
#X obj 649 149 list prepend;
#X obj 549 149 list prepend;
#X obj 449 149 list prepend;
#X obj 349 149 list prepend;
#X obj 249 149 list prepend;
#X obj 149 149 list prepend;
#X obj 49 149 list prepend;
#X obj 49 249 list prepend 8;
#X obj 149 249 note 0 14 Inter empty 0 55 55 55 0 228 228 228 0 0 add the number of channels to the beginning of the packet;
#X obj 149 274 note 333 14 Inter empty 0 55 55 55 0 228 228 228 0 0 add a newline to the beginning of the packet;
#X obj 49 274 list prepend 13;
#X obj 49 24 note 333 14 Inter empty 0 55 55 55 0 228 228 228 0 0 Make a list of each pair of values as a trio of bytes;
#X obj 99 199 receive numberOfChannels;
#X listbox 99 324 106 0 0 0 - - - 8;
#X obj 1249 99 2Vals3Bytes;
#X obj 1349 99 2Vals3Bytes;
#X obj 1449 99 2Vals3Bytes;
#X obj 1549 99 2Vals3Bytes;
#X obj 1549 149 list prepend;
#X obj 1449 149 list prepend;
#X obj 1349 149 list prepend;
#X obj 1249 149 list prepend;
#X listbox 99 49 103 0 0 0 - - - 8;
#X connect 0 0 25 0;
#X connect 0 1 1 0;
#X connect 1 0 24 0;
#X connect 1 1 2 0;
#X connect 2 0 23 0;
#X connect 2 1 3 0;
#X connect 3 0 22 0;
#X connect 3 1 6 0;
#X connect 4 0 0 0;
#X connect 4 0 41 0;
#X connect 6 0 21 0;
#X connect 6 1 7 0;
#X connect 7 0 20 0;
#X connect 7 1 8 0;
#X connect 8 0 19 0;
#X connect 8 1 9 0;
#X connect 9 0 18 0;
#X connect 9 1 10 0;
#X connect 10 0 17 0;
#X connect 10 1 11 0;
#X connect 11 0 16 0;
#X connect 11 1 12 0;
#X connect 12 0 15 0;
#X connect 12 1 13 0;
#X connect 13 0 14 0;
#X connect 13 1 33 0;
#X connect 14 0 15 1;
#X connect 15 0 16 1;
#X connect 16 0 17 1;
#X connect 17 0 18 1;
#X connect 18 0 19 1;
#X connect 19 0 20 1;
#X connect 20 0 21 1;
#X connect 21 0 22 1;
#X connect 22 0 23 1;
#X connect 23 0 24 1;
#X connect 24 0 25 1;
#X connect 25 0 26 0;
#X connect 26 0 29 0;
#X connect 29 0 5 0;
#X connect 29 0 32 0;
#X connect 31 0 26 1;
#X connect 33 0 40 0;
#X connect 33 1 34 0;
#X connect 34 0 39 0;
#X connect 34 1 35 0;
#X connect 35 0 38 0;
#X connect 35 1 36 0;
#X connect 36 0 37 0;
#X connect 37 0 38 1;
#X connect 38 0 39 1;
#X connect 39 0 40 1;
#X connect 40 0 14 1;
#X restore 199 524 pd valuesToBytes;
#X obj 74 174 downsample~ 22050 0;
#N canvas 733 172 450 300 downsample 1;
#X obj 116 42 vradio 20 1 0 2 empty empty empty 0 -8 0 10 #e4e4e4 #4d4d4d #373737 0;
#X obj 38 178 samplerate~;
#X obj 142 176 samplerate~;
#X obj 142 207 / 2;
#X floatatom 44 229 7 0 0 0 - - - 12;
#X obj 113 133 route 0 1;
#X floatatom 146 64 5 2 8 3 downsample\ ratio - - 0;
#X obj 199 24 knob 50 2 8 0 0 empty empty #E4E4E4 #B7B7B7 #4D4D4D 1 0 7 1 1 270 0 0 2;
#X obj 174 24 b;
#X obj 137 253 outlet;
#X connect 0 0 5 0;
#X connect 1 0 4 0;
#X connect 2 0 3 0;
#X connect 3 0 4 0;
#X connect 4 0 9 0;
#X connect 5 0 1 0;
#X connect 5 1 2 0;
#X connect 6 0 3 1 32.................U....b....PE....G....zG....;
#X connect 7 0 6 0;
#X connect 7 0 8 0;
#X connect 8 0 0 0;
#X coords 0 0 1 1 146 84 1 105 21;
#X restore 474 174 pd downsample;
#X obj 174 574 outlet;
#X listbox 224 499 74 0 0 0 - - - 8;
#X obj 224 449 zl indexmap 0 2 4 6 8 10 12 14 16 18 20 22 24 26 28 30 32 34 36 38 40 42 44 46 48 50 52 54 56 58 60 62;
#X obj 74 99 inlet~;
#X connect 3 0 2 0 32.................S....b5++++D....m9+++aB....;
#X connect 3 0 5 0 32.................S....TD...vD....EA...XB....;
#X connect 4 0 3 0 32.................P....3++++OD....9+++++A....;
#X connect 5 0 6 0;
#X connect 6 0 14 0;
#X connect 7 0 2 0;
#X connect 7 0 4 0 32.................N....zE...fC....cA...jB....;
#X connect 9 0 8 0 32.................P....v++++OD....7+++++A....;
#X connect 9 0 12 0 32.................P....f9+++OD....n+++++A....;
#X connect 10 0 7 0;
#X connect 14 0 13 0 32.................H....v++++OB....7++++CA....;
#X connect 14 0 9 0 32.................F....f9+++uA....n++++mB....;
#X connect 15 0 10 0;
#X coords 0 0 1 1 39 37 1 298 224;
