#N canvas 827 239 725 662 12;
#X listbox 385 370 77 0 0 0 - - - 8;
#X msg 317 395 devices;
#X obj 233 479 route open, f 11;
#X msg 257 395 close;
#X obj 298 519 send paletteConnected;
#X obj 182 335 list;
#X obj 232 168 tgl 11 0 empty paletteConnected empty 17 7 0 10 #eeeeee #000000 #000000 0 1;
#X obj 197 365 loadbang;
#N canvas 733 172 450 300 GetInfo 0;
#X obj 1309 969 b;
#X msg 1311 995 info;
#X obj 1098 958 inlet;
#X obj 1049 999 outlet;
#X connect 0 0 1 0 32.................C....P....v.....D....X.....;
#X connect 1 0 3 0;
#X connect 2 0 0 0;
#X restore 332 440 pd GetInfo;
#X text 377 392 Serial port controls;
#X obj 193 594 - 1;
#X text 242 332 Send complete list of all values for each tick of [metro];
#X text 318 476 Tell Input and Output channels to communicate only when connected, f 33;
#X text 407 437 Check for open port;
#X obj 193 624 metro 1000;
#X text 228 556 If comport is closed \, try to reconnect every second, f 16;
#X obj 508 149 EaselOutputTile;
#X obj 464 149 EaselOutputTile;
#X obj 420 149 EaselOutputTile;
#X obj 376 149 EaselOutputTile;
#X obj 332 149 EaselOutputTile;
#X obj 288 149 EaselOutputTile;
#X obj 246 149 EaselOutputTile;
#X obj 201 149 EaselOutputTile;
#X obj 180 92 inlet;
#X obj 229 92 inlet;
#X obj 278 92 inlet;
#X obj 327 92 inlet;
#X obj 377 92 inlet;
#X obj 426 92 inlet;
#X obj 475 92 inlet;
#X obj 525 92 inlet;
#X obj 61 194 bng 25 250 50 0 empty empty empty 17 7 0 10 #e4e4e4 #4d4d4d #373737;
#X msg 197 395 open 2;
#N canvas 733 172 561 248 listOutputValues 0;
#X obj 101 141 list append;
#X obj 143 114 list append;
#X obj 218 141 list append;
#X obj 260 114 list append;
#X obj 338 141 list append;
#X obj 380 114 list append;
#X obj 458 141 list append;
#X obj 28 114 list append;
#X obj 58 49 inlet;
#X obj 101 49 inlet;
#X obj 143 49 inlet;
#X obj 189 49 inlet;
#X obj 233 49 inlet;
#X obj 277 49 inlet;
#X obj 321 49 inlet;
#X obj 365 49 inlet;
#X obj 28 194 outlet;
#X connect 0 0 7 1 48......................X++++O.....1++++O8++++5++++S++++u9++++z++++;
#X connect 1 0 0 1 32.................D....j.....A....I....f.....;
#X connect 2 0 1 1 48......................T++++O.....0++++O8+++e5++++S++++m9++++z++++;
#X connect 3 0 2 1 32.................D....j.....A....I....f.....;
#X connect 4 0 3 1 48......................L++++O.....y++++O8+++u4++++S++++a9++++z++++;
#X connect 5 0 4 1 32.................D....j.....A....I....f.....;
#X connect 6 0 5 1 48......................L++++O.....y++++O8+++u4++++S++++a9++++z++++;
#X connect 7 0 16 0 32.................e.........vG.........zC....;
#X connect 8 0 7 0 32.................W....L9++++E....i++++6B....;
#X connect 9 0 0 0 32.................k....7++++eI....+++++mD....;
#X connect 10 0 1 0 32.................W....7+++++E....+++++6B....;
#X connect 11 0 2 0 32.................k....zA...PI....c....jD....;
#X connect 12 0 3 0 32.................W....rA...vE....a....3B....;
#X connect 13 0 4 0 32.................k....zC...PI....8....jD....;
#X connect 14 0 5 0 32.................W....rC...vE....6....3B....;
#X connect 15 0 6 1 32.................M.....I...PC....PB...jD....;
#X restore 276 224 pd listOutputValues;
#X obj 142 445 comport 0 1.2e+07;
#X obj 456 237 b;
#X obj 496 237 count 1 100;
#X msg 96 395 pollinterval 1;
#X msg 577 205 1 \$1, f 5;
#X msg 577 178 100;
#X obj 577 149 loadbang;
#X obj 624 171 note 96 14 Inter empty 0 55 55 55 0 228 228 228 0 0 communication buffer length;
#X obj 750 149 loadbang;
#X msg 752 178 8;
#X obj 750 205 send numChannels;
#N canvas 733 172 450 300 dataWrap 1;
#X obj 74 207 list prepend;
#X obj 94 179 receive numChannels;
#X obj 74 55 list append 13;
#X obj 74 15 inlet;
#X obj 74 244 outlet;
#X obj 171 201 note 175 14 Inter empty 0 55 55 55 0 228 228 228 0 0 put the number of channels first;
#X obj 171 55 note 146 14 Inter empty 0 55 55 55 0 228 228 228 0 0 put a newline at the end;
#X obj 74 130 list prepend;
#X obj 171 124 note 175 14 Inter empty 0 55 55 55 0 228 228 228 0 0 put the buffer length before the data;
#X obj 94 102 receive bufferSize;
#X connect 0 0 4 0 32.................I.........PB.........HA....;
#X connect 1 0 0 1 32.................E....LB...PA....i....j.....;
#X connect 2 0 7 0;
#X connect 3 0 2 0;
#X connect 7 0 0 0;
#X connect 9 0 7 1 32.................E....LB...PA....i....j.....;
#X restore 276 295 pd dataWrap;
#X obj 616 205 send bufferSize;
#X obj 773 171 note 103 14 Inter empty 0 55 55 55 0 228 228 228 0 0 Number of Output Channels;
#X obj 276 268 list append;
#X text 370 279 Wrap the packet with 1: the number of channels and 2: buffer length at the beginning \, then a newline at the end, f 54;
#X obj 137 305 metro 1;
#X msg 86 124 0;
#X connect 1 0 35 0 32.................G....H1++++A....h8+++WA....;
#X connect 2 0 4 0 32.................D....DD....A....AA...PA....;
#X connect 2 0 10 0 32.................v....j8+++OL....Y+++++E....;
#X connect 3 0 8 0 32.................M....rJ...PC....qB...3.....;
#X connect 3 0 35 0 32.................N....P4+++uC....T9+++WA....;
#X connect 5 0 0 0;
#X connect 6 0 51 0 32.................P....f5+++OD....n9+++2G....;
#X connect 7 0 33 0 32.................E....TD...PA....EA...j.....;
#X connect 7 0 38 0 32.................D....v4+++OA....b9+++u.....;
#X connect 8 0 35 0 48.................D....r9+++OA....q++++S9+++ud++++j++++q2+++e6++++;
#X connect 10 0 14 0 32.................E.........PA.........n.....;
#X connect 16 0 17 1;
#X connect 16 0 34 7 32.................m....H4++++I....R9+++yB....;
#X connect 17 0 18 1;
#X connect 17 0 34 6 32.................h....z5+++uH....s9+++yB....;
#X connect 18 0 19 1;
#X connect 18 0 34 5 32.................d....f7+++uG....H++++yB....;
#X connect 19 0 20 1;
#X connect 19 0 34 4 32.................a....L9++++F....i++++yB....;
#X connect 20 0 21 1;
#X connect 20 0 34 3 32.................V....3++++uE....9++++yB....;
#X connect 21 0 22 1;
#X connect 21 0 34 2 32.................e....fA...vG....X....vB....;
#X connect 22 0 34 1 32.................g....DC...PH....w....vB....;
#X connect 22 0 23 1;
#X connect 23 0 34 0 32.................m....zD...vI....MA...vB....;
#X connect 24 0 23 0 32.................S....vA...vD....b....TB....;
#X connect 25 0 22 0 32.................S....fA...vD....X....TB....;
#X connect 26 0 21 0 32.................S....DA...vD....Q....TB....;
#X connect 27 0 20 0 32.................S....v....vD....L....TB....;
#X connect 28 0 19 0 32.................S....X....vD....F....TB....;
#X connect 29 0 18 0 32.................S....D....vD....A....TB....;
#X connect 30 0 17 0 32.................S....v+++++D....7++++WB....;
#X connect 31 0 16 0 32.................S....X+++++D....1++++WB....;
#X connect 32 0 51 0;
#X connect 33 0 8 0 32.................J....bN...fB....mC...3.....;
#X connect 33 0 35 0 32.................K.....8++++B....P++++WA....;
#X connect 34 0 36 0 48.................F.....I...fA....PB...X++++er....1++++GK...v9++++;
#X connect 34 0 49 1 32.................M....LC...PC....y....jA....;
#X connect 35 1 2 0;
#X connect 36 0 37 0 48.................E....bA...PA....W....n9++++J....p++++uB...f6++++;
#X connect 37 1 49 0 32.................H....3s+++OB....d6+++u.....;
#X connect 38 0 35 0 32.................P....3B....D....t....7A....;
#X connect 39 0 37 1 32.................G....P9++++A....j++++2.....;
#X connect 40 0 39 0;
#X connect 40 0 47 0 32.................D....bB....A....m....f.....;
#X connect 41 0 40 0;
#X connect 43 0 44 0;
#X connect 44 0 45 0;
#X connect 46 0 5 1 32.................G....35++++A....t9+++WA....;
#X connect 49 0 46 0;
#X connect 51 0 5 0 32.................E....zB...PA....s....n.....;
#X connect 52 0 21 0;
#X connect 52 0 22 0;
#X connect 52 0 20 0;
#X connect 52 0 19 0;
#X connect 52 0 18 0;
#X connect 52 0 17 0;
#X connect 52 0 16 0;
#X connect 52 0 16 1;
#X connect 52 0 23 0;
#X coords 0 0 1 1 340 32 2 199 148;
