#N canvas 0 23 1440 855 12;
#X obj 109 359 sel 13 10;
#X obj 109 394 cyclone/zl group 100;
#X obj 109 425 list tosymbol;
#X obj 109 456 cyclone/fromsymbol;
#X text 319 518 < data from arduino;
#X obj 109 519 unpack f f f f f f f f;
#X obj 109 489 spigot;
#X msg 229 176 devices;
#X msg 109 176 open 3;
#X obj 109 221 comport 0 115200;
#X obj 214 251 route open, f 11;
#X msg 169 176 close;
#X obj 214 296 send paletteConnected;
#X obj 124 146 loadbang;
#N canvas 733 172 450 300 GetInfo 0;
#X obj 1309 969 b;
#X msg 1311 995 info;
#X obj 1098 958 inlet;
#X obj 1049 999 outlet;
#X connect 0 0 1 0 32.................C....P....v.....D....X.....;
#X connect 1 0 3 0;
#X connect 2 0 0 0;
#X restore 244 221 pd GetInfo;
#X text 289 175 Serial port controls;
#X text 287 259 Tell Input and Output channels to communicate only when connected, f 33;
#X text 319 220 Check for open port;
#X obj 109 576 EaselInputTile;
#X obj 152 576 EaselInputTile;
#X obj 194 576 EaselInputTile;
#X obj 237 576 EaselInputTile;
#X obj 279 576 EaselInputTile;
#X obj 322 576 EaselInputTile;
#X obj 364 576 EaselInputTile;
#X obj 407 576 EaselInputTile;
#X obj 109 658 outlet;
#X obj 158 658 outlet;
#X obj 207 658 outlet;
#X obj 256 658 outlet;
#X obj 306 658 outlet;
#X obj 355 658 outlet;
#X obj 404 658 outlet;
#X obj 454 658 outlet;
#X connect 0 0 1 0 32.................H..........B.........7.....;
#X connect 0 2 1 0 32.................H....n8+++OB....Z+++++.....;
#X connect 1 0 2 0 32.................F.........fA.........r.....;
#X connect 2 0 3 0 32.................F.........fA.........r.....;
#X connect 3 0 6 0;
#X connect 5 0 18 0 32.................S.........vD.........TB....;
#X connect 5 1 19 0 32.................W....nA...vE....Z....TB....;
#X connect 5 2 20 0 32.................U....LC...PE....y....TB....;
#X connect 5 3 21 0 32.................R....zD...fD....MA...TB....;
#X connect 5 4 22 0 32.................O....XF...vC....lA...TB....;
#X connect 5 5 23 0 32.................L.....H....C.....B...TB....;
#X connect 5 6 24 0 32.................I....jI...PB....YB...TB....;
#X connect 5 7 25 0 32.................F....LK...fA....yB...TB....;
#X connect 6 0 5 0;
#X connect 7 0 9 0 32.................G....H1++++A....h8+++WA....;
#X connect 8 0 9 0 32.................K.....8++++B....P++++WA....;
#X connect 8 0 14 0 32.................J....bN...fB....mC...3.....;
#X connect 9 0 0 0;
#X connect 9 1 10 0;
#X connect 10 0 12 0 32.................E....3A...PA....d....n.....;
#X connect 10 0 6 1 64.................R....v9+++uD....r++++SE...PG....TA...zA...fz....29+++KM...vs++++WC....;
#X connect 11 0 9 0 32.................N....P4+++uC....T9+++WA....;
#X connect 11 0 14 0 32.................M....rJ...PC....qB...3.....;
#X connect 13 0 8 0 32.................E....TD...PA....EA...j.....;
#X connect 14 0 9 0 48.................D....r9+++OA....q++++S9+++ud++++j++++q2+++e6++++;
#X connect 18 0 26 0;
#X connect 19 0 27 0;
#X connect 20 0 28 0;
#X connect 21 0 29 0;
#X connect 22 0 30 0;
#X connect 23 0 31 0;
#X connect 24 0 32 0;
#X connect 25 0 33 0;
