#N canvas 827 239 1198 634 12;
#X text 29 160 Initialize with 0s to get full list of values, f 17;
#X text 149 87 Incoming value for this channel, f 17;
#X obj 235 111 inlet;
#X obj 235 314 outlet;
#X obj 494 111 inlet;
#X msg 304 111 12;
#N canvas 733 172 450 300 RangeSet 1;
#X obj 880 269 sig~;
#X obj 779 177 inlet;
#X obj 779 378 outlet;
#X obj 880 378 outlet~;
#X obj 779 223 scale 0 1 0 4095;
#X obj 845 177 inlet;
#X text 915 186 Maximum value \, set as Bit Depth;
#X text 569 186 Maximum value \, set as Bit Depth;
#X text 936 376 To be sent to the little oscilloscope;
#X text 619 296 To be sent to [comport];
#X obj 779 259 round 1;
#X connect 0 0 3 0;
#X connect 1 0 4 0;
#X connect 4 0 10 0;
#X connect 5 0 4 4;
#X connect 10 0 2 0;
#X connect 10 0 0 0 48.................F....PC...fA....z....L9+++eY....i++++WF....9++++;
#X restore 235 181 pd RangeSet;
#N canvas 733 172 450 300 Values2List 1;
#X obj 133 54 inlet;
#X obj 188 54 inlet;
#X obj 133 214 outlet;
#X obj 133 168 list append;
#X connect 0 0 3 0;
#X connect 1 0 3 1 48.................H....bB....B....m....LC...P+++++y....z+++++W....;
#X connect 3 0 2 0;
#X restore 235 231 pd Values2List;
#N canvas 733 172 450 300 BitDepth 0;
#X obj 208 154 pow;
#X msg 149 117 2;
#X obj 208 202 - 1;
#X obj 219 76 inlet;
#X obj 208 259 outlet;
#X obj 121 76 loadbang;
#X obj 188 117 b;
#X connect 0 0 2 0 32.................O.........vC.........zA....;
#X connect 1 0 0 0 32.................F....fC...fA....3....v.....;
#X connect 2 0 4 0 32.................S.........vD.........XB....;
#X connect 3 0 0 1 32.................d.........fG.........rC....;
#X connect 3 0 6 0 32.................N....78+++uC....e++++yA....;
#X connect 5 0 1 0 32.................N....7A...fC....e....vA....;
#X connect 6 0 1 0 48.................F.....++++uA....v++++i9++++1++++n++++u8+++u6++++;
#X restore 305 134 pd BitDepth;
#X text 335 108 Palette DAC bit depth;
#X text 165 333 Outgoing to the list of channel data;
#X obj 82 124 loadbang;
#X msg 146 174 0;
#X text 536 108 Incoming values from upper input channels, f 17;
#X obj 407 163 scope~ 31 30 210 3 43 0 4095 0 0 0 0 255 197 0 77 77 77 88 88 88 0 empty;
#X obj 357 42 note 288 18 Inter empty 1 55 55 55 0 228 228 228 0 0 A single instance of the Oblique Palette hardware input stage;
#X connect 2 0 6 0;
#X connect 4 0 7 1 48.................Y....n8+++eF....Z++++eE...fQ++++WA...Xz+++eY....;
#X connect 5 0 8 0;
#X connect 6 0 7 0;
#X connect 6 1 14 0 48.................H....PB....B....j....P8+++ea....T++++2F....2++++;
#X connect 7 0 3 0;
#X connect 8 0 6 1 32.................E....r++++eA....6++++q.....;
#X connect 11 0 12 0 32.................P....3C....D....9....7A....;
#X connect 11 0 5 0 64.................H....nD....B....JA...v++++et....7++++mK....2++++dC...v8+++u2....g++++C;
#X connect 12 0 7 0 32.................S....rE...vD....aA...XB....;
#X coords 0 0 1 1 31 30 2 407 163;
