#N canvas 827 239 527 327 12;
#X obj 1059 139 EaselInputPanel;
#X obj 1060 395 EaselOutputPanel;
#X obj 1136 494 cnv 15 100 60 empty empty empty 20 12 0 14 #a8a8a8 #373737 0;
#X obj 990 347 / 127;
#X obj 930 294 lfo 1;
#X connect 3 0 1 0;
#X connect 3 0 1 2;
#X connect 3 0 1 1;
#X connect 3 0 1 3;
#X connect 3 0 1 4;
#X connect 3 0 1 5;
#X connect 3 0 1 6;
#X connect 3 0 1 7;
#X connect 4 0 3 0;
