#N canvas 827 239 527 327 12;
#X msg 1304 944 devices;
#X obj 1129 994 comport 0 115200;
#X obj 1224 1024 route open, f 11;
#X msg 1244 944 close;
#X obj 1124 854 metro 10;
#X obj 1289 1064 send paletteConnected;
#X obj 1169 884 list;
#X obj 1216 734 tgl 31 0 empty paletteConnected empty 17 7 0 10 #eeeeee #000000 #000000 0 1;
#X obj 1199 914 loadbang;
#N canvas 733 172 450 300 GetInfo 0;
#X obj 1309 969 b;
#X msg 1311 995 info;
#X obj 1098 958 inlet;
#X obj 1049 999 outlet;
#X connect 0 0 1 0 32.................C....P....v.....D....X.....;
#X connect 1 0 3 0;
#X connect 2 0 0 0;
#X restore 1319 989 pd GetInfo;
#X text 1364 943 Serial port controls;
#X obj 1184 1139 - 1;
#X text 1334 853 Newline character at end of values;
#X text 1229 883 Send complete list of all values for each tick of [metro];
#X text 1309 1023 Tell Input and Output channels to communicate only when connected, f 33;
#X text 1394 988 Check for open port;
#X obj 1184 1169 metro 1000;
#X text 1219 1103 If comport is closed \, try to reconnect every second, f 16;
#X obj 1506 734 EaselOutputTile;
#X obj 1462 734 EaselOutputTile;
#X obj 1418 734 EaselOutputTile;
#X obj 1374 734 EaselOutputTile;
#X obj 1330 734 EaselOutputTile;
#X obj 1286 734 EaselOutputTile;
#X obj 1244 734 EaselOutputTile;
#X obj 1199 734 EaselOutputTile;
#X obj 1129 679 inlet;
#X obj 1178 679 inlet;
#X obj 1227 679 inlet;
#X obj 1276 679 inlet;
#X obj 1326 679 inlet;
#X obj 1375 679 inlet;
#X obj 1424 679 inlet;
#X obj 1474 679 inlet;
#X obj 1059 779 bng 25 250 50 0 empty empty empty 17 7 0 10 #e4e4e4 #4d4d4d #373737;
#X msg 1184 944 open 2;
#X obj 1197 854 list append 13;
#N canvas 733 172 450 300 listOutputValues 0;
#X obj 1242 826 list append;
#X obj 1284 799 list append;
#X obj 1359 826 list append;
#X obj 1401 799 list append;
#X obj 1479 826 list append;
#X obj 1521 799 list append;
#X obj 1599 826 list append;
#X obj 1169 799 list append;
#X obj 1199 734 inlet;
#X obj 1244 734 inlet;
#X obj 1286 734 inlet;
#X obj 1330 734 inlet;
#X obj 1374 734 inlet;
#X obj 1418 734 inlet;
#X obj 1462 734 inlet;
#X obj 1506 734 inlet;
#X obj 1197 854 outlet;
#X connect 0 0 7 1;
#X connect 1 0 0 1;
#X connect 2 0 1 1;
#X connect 3 0 2 1;
#X connect 4 0 3 1;
#X connect 5 0 4 1;
#X connect 6 0 5 1;
#X connect 7 0 16 0;
#X connect 8 0 7 0;
#X connect 9 0 0 0;
#X connect 10 0 1 0;
#X connect 11 0 2 0;
#X connect 12 0 3 0;
#X connect 13 0 4 0;
#X connect 14 0 5 0;
#X connect 15 0 6 1;
#X restore 1274 809 pd listOutputValues;
#X connect 0 0 1 0 32.................G....H1++++A....h8+++WA....;
#X connect 1 1 2 0;
#X connect 2 0 5 0 32.................D....DD....A....AA...PA....;
#X connect 2 0 11 0 32.................v....j8+++OL....Y+++++E....;
#X connect 3 0 1 0 32.................N....P4+++uC....T9+++WA....;
#X connect 3 0 9 0 32.................M....rJ...PC....qB...3.....;
#X connect 4 0 6 0 32.................E....zB...PA....s....n.....;
#X connect 6 0 1 0 32.................HA...7.....R....O....TE....;
#X connect 7 0 4 0 32.................X....L3+++OF....C9+++CC....;
#X connect 8 0 35 0 32.................E....TD...PA....EA...j.....;
#X connect 9 0 1 0 48.................D....r9+++OA....q++++S9+++ud++++j++++q2+++e6++++;
#X connect 11 0 16 0 32.................E.........PA.........n.....;
#X connect 18 0 37 7 32.................V....H4+++uE....R9+++uB....;
#X connect 19 0 37 6 32.................V....z5+++uE....s9+++uB....;
#X connect 20 0 37 5 32.................V....f7+++uE....H++++uB....;
#X connect 21 0 37 4 32.................V....L9+++uE....i++++uB....;
#X connect 22 0 37 3 32.................V....3++++uE....9++++uB....;
#X connect 23 0 37 2 32.................V....fA...fE....X....rB....;
#X connect 24 0 37 1 32.................V....DC...fE....w....rB....;
#X connect 25 0 37 0 32.................V....zD...fE....MA...rB....;
#X connect 26 0 25 0;
#X connect 27 0 24 0;
#X connect 28 0 23 0;
#X connect 29 0 22 0;
#X connect 30 0 21 0;
#X connect 31 0 20 0;
#X connect 32 0 19 0;
#X connect 33 0 18 0;
#X connect 34 0 4 0;
#X connect 35 0 1 0 32.................K.....8++++B....P++++WA....;
#X connect 35 0 9 0 32.................J....bN...fB....mC...3.....;
#X connect 36 0 6 1 32.................E....39+++eA....t++++q.....;
#X connect 37 0 36 0;
#X coords 0 0 1 1 338 30 2 1200 735;
