#N canvas 0 23 1440 855 12;
#N canvas 0 0 450 250 (subpatch) 0;
#X coords 0 1 100 -1 344 45 2 0 0;
#X restore 107 511 graph;
#X obj 109 359 sel 13 10;
#X obj 109 457 unpack f f f f f f f f;
#X obj 109 427 spigot;
#X msg 229 176 devices;
#X obj 109 221 comport 0 115200;
#X obj 203 253 route open, f 11;
#X msg 169 176 close;
#X obj 109 145 loadbang;
#N canvas 733 172 450 300 GetInfo 0;
#X obj 1127 911 b;
#X msg 1124 938 info;
#X obj 1124 884 inlet;
#X obj 1124 965 outlet;
#X connect 0 0 1 0 32.................C....P....v.....D....X.....;
#X connect 1 0 3 0;
#X connect 2 0 0 0;
#X restore 244 221 pd GetInfo;
#X text 289 175 Serial port controls;
#X text 287 259 Tell Input and Output channels to communicate only when connected, f 33;
#X text 319 220 Check for open port;
#X obj 109 514 EaselInputTile;
#X obj 152 514 EaselInputTile;
#X obj 194 514 EaselInputTile;
#X obj 237 514 EaselInputTile;
#X obj 279 514 EaselInputTile;
#X obj 322 514 EaselInputTile;
#X obj 364 514 EaselInputTile;
#X obj 407 514 EaselInputTile;
#X obj 109 596 outlet;
#X obj 158 596 outlet;
#X obj 207 596 outlet;
#X obj 256 596 outlet;
#X obj 306 596 outlet;
#X obj 355 596 outlet;
#X obj 404 596 outlet;
#X obj 454 596 outlet;
#N canvas 733 172 450 300 BuildList 0;
#X obj 109 394 cyclone/zl group 100;
#X obj 109 425 list tosymbol;
#X obj 109 456 cyclone/fromsymbol;
#X obj 109 359 inlet;
#X obj 109 489 outlet;
#X connect 0 0 1 0 32.................F.........fA.........r.....;
#X connect 1 0 2 0 32.................F.........fA.........r.....;
#X connect 2 0 4 0;
#X connect 3 0 0 0;
#X restore 109 394 pd BuildList;
#X text 109 89 Tell Input and Output channels to communicate only when connected, f 33;
#X text 264 456 Input values from Oblique Palette;
#X msg 109 176 open 2;
#X connect 1 0 29 0;
#X connect 1 2 29 0;
#X connect 2 0 13 0 32.................S.........vD.........TB....;
#X connect 2 1 14 0 32.................W....nA...vE....Z....TB....;
#X connect 2 2 15 0 32.................U....LC...PE....y....TB....;
#X connect 2 3 16 0 32.................R....zD...fD....MA...TB....;
#X connect 2 4 17 0 32.................O....XF...vC....lA...TB....;
#X connect 2 5 18 0 32.................L.....H....C.....B...TB....;
#X connect 2 6 19 0 32.................I....jI...PB....YB...TB....;
#X connect 2 7 20 0 32.................F....LK...fA....yB...TB....;
#X connect 3 0 2 0;
#X connect 4 0 5 0 32.................G....H1++++A....h8+++WA....;
#X connect 5 0 1 0;
#X connect 5 1 6 0;
#X connect 6 0 3 1 32.................VB...H6+++uk....x9+++yI....;
#X connect 7 0 5 0 32.................N....P4+++uC....T9+++WA....;
#X connect 7 0 9 0 32.................M....rJ...PC....qB...3.....;
#X connect 8 0 32 0 32.................E....TD...PA....EA...j.....;
#X connect 9 0 5 0 48.................D....r9+++OA....q++++S9+++ud++++j++++q2+++e6++++;
#X connect 13 0 21 0;
#X connect 14 0 22 0;
#X connect 15 0 23 0;
#X connect 16 0 24 0;
#X connect 17 0 25 0;
#X connect 18 0 26 0;
#X connect 19 0 27 0;
#X connect 20 0 28 0;
#X connect 29 0 3 0;
#X connect 32 0 5 0 32.................K.....8++++B....P++++WA....;
#X connect 32 0 9 0 32.................J....bN...fB....mC...3.....;
#X coords 0 0 1 1 345 45 2 106 511;
