#N canvas 827 239 527 327 12;
#X text 581 238 Initialize with 0s to get full list of values, f 17;
#X text 683 207 Incoming value for this channel, f 17;
#X obj 769 229 inlet;
#X obj 769 409 outlet;
#X obj 1028 229 inlet;
#X obj 859 379 receive paletteConnected;
#X obj 941 280 oscope~ 32 32 256 3 128 0 4096 0 0 0 0 51 51 51 255 204 0 221 187 102 0 empty;
#X msg 838 229 12;
#X obj 769 379 spigot;
#X text 879 398 Only send data when connected;
#N canvas 733 172 450 300 RangeSet 0;
#X obj 779 269 int;
#X obj 869 269 sig~;
#X obj 779 299 any2bytes;
#X obj 779 189 inlet;
#X obj 779 329 outlet;
#X obj 869 329 outlet~;
#X obj 779 229 scale 0 1 0 4095;
#X obj 869 189 inlet;
#X text 915 188 Maximum value \, set as Bit Depth;
#X text 569 188 Maximum value \, set as Bit Depth;
#X text 889 298 To be sent to the little oscilloscope;
#X text 619 298 To be sent to [comport];
#X connect 0 0 2 0 32.................E.........PA.........n.....;
#X connect 0 0 1 0 48.................F.....B...fA....f....L9+++uV....i++++qE...P6++++;
#X connect 1 0 5 0;
#X connect 2 0 4 0;
#X connect 3 0 6 0;
#X connect 6 0 0 0;
#X connect 7 0 6 5;
#X restore 769 299 pd RangeSet;
#N canvas 733 172 450 300 Values2List 0;
#X obj 779 329 zl ecils 1;
#X obj 779 359 list append 32;
#X obj 779 398 list prepend;
#X obj 779 269 inlet;
#X obj 929 189 inlet;
#X obj 779 429 outlet;
#X connect 0 0 1 0 32.................E.........PA.........n.....;
#X connect 1 0 2 0;
#X connect 2 0 5 0;
#X connect 3 0 0 0;
#X connect 4 0 2 1;
#X restore 769 349 pd Values2List;
#N canvas 733 172 450 300 BitDepth 0;
#X obj 839 159 pow;
#X msg 839 129 2;
#X obj 889 159 - 1;
#X obj 839 99 inlet;
#X obj 779 219 outlet;
#X connect 0 0 2 0 48.................F....DB...fA....g....b9+++uL....m++++KC...P6++++;
#X connect 1 0 0 0 32.................E....D....PA....A....n.....;
#X connect 2 0 4 0;
#X connect 3 0 0 1;
#X restore 839 252 pd BitDepth;
#X text 769 168 A single input stage to be sent to the \; Oblique Palette analog IO hardware;
#X text 869 228 Palette DAC bit depth;
#X text 699 438 Outgoing to the list of channel data;
#X obj 679 259 loadbang;
#X msg 680 292 0;
#X text 1070 228 Incoming values from upper input channels, f 17;
#X connect 2 0 10 0;
#X connect 4 0 11 1 32.................XA...jz+++OV....I8+++SF....;
#X connect 5 0 8 1 48.................E....D9+++eA....g++++a9+++ev++++l++++G7+++e6++++;
#X connect 7 0 12 0;
#X connect 8 0 3 0;
#X connect 10 0 11 0;
#X connect 10 1 6 0 48.................D....vE....A....bA...T8+++uZ....U++++qF...f1++++;
#X connect 11 0 8 0;
#X connect 12 0 10 1 32.................E....r++++eA....6++++q.....;
#X connect 16 0 17 0 32.................G.........vA.........z.....;
#X connect 17 0 10 0 48.................H....zB....B....s....79+++uV....u++++qE....8++++;
#X coords 0 0 1 1 31 31 2 942 281;
