#N canvas 827 239 527 327 12;
#X obj 13 7 EaselInputPanel;
#X obj 13 276 EaselOutputPanel;
#N canvas 733 172 450 300 wonkySignlat0r 0;
#X obj 62 138 / 127;
#X obj 62 112 lfo 1;
#X obj 502 70 vsl 17 128 0 1 0 0 empty empty empty 0 -9 0 10 #e4e4e4 #4d4d4d #373737 0 1;
#X obj 13 111 / 127;
#X obj 13 85 lfo 1.01;
#X obj 174 138 / 127;
#X obj 174 112 lfo 1;
#X obj 125 111 / 127;
#X obj 125 85 lfo 1.01;
#X obj 284 138 / 127;
#X obj 284 112 lfo 1;
#X obj 235 111 / 127;
#X obj 235 85 lfo 1.01;
#X obj 396 138 / 127;
#X obj 396 112 lfo 1;
#X obj 347 111 / 127;
#X obj 347 85 lfo 1.01;
#X obj 13 276 outlet;
#X obj 13 276 outlet;
#X obj 13 276 outlet;
#X obj 13 276 outlet;
#X obj 13 276 outlet;
#X obj 13 276 outlet;
#X obj 13 276 outlet;
#X obj 13 276 outlet;
#X connect 0 0 8 0;
#X connect 0 0 18 0;
#X connect 1 0 0 0;
#X connect 3 0 1 0;
#X connect 3 0 17 0;
#X connect 4 0 3 0;
#X connect 5 0 12 0;
#X connect 5 0 2 0;
#X connect 5 0 20 0;
#X connect 6 0 5 0;
#X connect 7 0 6 0;
#X connect 7 0 19 0;
#X connect 8 0 7 0;
#X connect 9 0 16 0;
#X connect 9 0 22 0;
#X connect 10 0 9 0;
#X connect 11 0 10 0;
#X connect 11 0 21 0;
#X connect 12 0 11 0;
#X connect 13 0 24 0;
#X connect 14 0 13 0;
#X connect 15 0 14 0;
#X connect 15 0 23 0;
#X connect 16 0 15 0;
#X restore 219 119 pd wonkySignlat0r;
#X connect 2 0 1 0;
#X connect 2 1 1 1;
#X connect 2 2 1 2;
#X connect 2 3 1 3;
#X connect 2 4 1 4;
#X connect 2 5 1 5;
#X connect 2 6 1 6;
#X connect 2 7 1 7;
