#N canvas 733 172 450 300 12;
#X obj 149 24 inlet;
#X obj 520 74 note 220 14 Inter empty 0 55 55 55 0 228 228 228 0 0 To efficiently fit them into a serial bitstream\\\, we stack each pair of 12-bit values as a 24-bit number.Here\\\, we combine the highest byte with the highest half of the second byte. Then we treat the second half of the second byte as the high byte to add to the lowest byte.;
#X obj 299 242 outlet;
#X obj 192 242 outlet;
#X obj 244 24 inlet;
#X obj 349 24 inlet;
#X obj 149 99 << 4;
#X obj 244 99 >> 4;
#X obj 298 74 & 15;
#X obj 299 99 << 8;
#X obj 192 157 +;
#X obj 299 157 +;
#X connect 0 0 6 0 32.................P..........D.........7A....;
#X connect 4 0 7 0 32.................P....P++++OD....z+++++A....;
#X connect 4 0 8 0 32.................P....XC....D....1....7A....;
#X connect 5 0 11 1 32.................fA...T++++OX....0++++KG....;
#X connect 6 0 10 0 32.................T....TB....E....k....bB....;
#X connect 7 0 10 1 32.................T....78+++OE....e++++eB....;
#X connect 8 0 9 0 32.................C....D....v.....A....X.....;
#X connect 9 0 11 0 32.................T....XB....E....l....bB....;
#X connect 10 0 3 0 32.................g.........PH.........HD....;
#X connect 11 0 2 0 32.................g.........PH.........HD....;
