#N canvas 827 239 985 913 12;
#X obj 229 589 cnv 15 541 281 empty empty empty 20 12 0 14 #333333 #333333 0;
#X msg 379 59 devices;
#N canvas 733 172 450 300 connectionInfo 0;
#X floatatom 278 215 10 0 0 3 baud\ (ignored\ by\ USB) - - 8;
#X floatatom 369 148 3 0 0 3 parity - - 0;
#X floatatom 399 176 3 0 0 2 stop - - 0;
#X floatatom 429 151 3 0 0 3 data - - 0;
#X floatatom 521 176 3 0 0 0 port - - 0;
#X obj 460 176 tgl 15 0 empty empty rts/cts -10 20 1 11 #14e814 #fc2828 #000000 0 1;
#X obj 490 151 tgl 15 0 empty empty xon/xoff -14 20 1 11 #14e814 #fc2828 #000000 0 1;
#X obj 308 148 tgl 15 0 empty empty dsr 0 20 1 11 #14e814 #fc2828 #000000 0 1;
#X obj 338 176 tgl 15 0 empty empty cts 0 20 1 11 #14e814 #fc2828 #000000 0 1;
#X obj 126 199 tgl 15 0 empty empty Palette\ Connected -27 -7 1 8 #372d00 #ffbc25 #000000 0 1;
#X obj 577 224 print port_list;
#X obj 612 190 tgl 15 0 empty empty hupcl -6 20 1 11 #14e814 #fc2828 #000000 0 1;
#X floatatom 638 151 5 0 0 1 rxerrors - - 0;
#X obj 274 74 route baud dsr cts parity stop data rtscts xonxoff port open ports hupcl rxerrors;
#X obj 274 30 inlet;
#X obj 698 224 sel -1;
#X obj 698 124 print serialError;
#X obj 698 262 s closePalette;
#X obj 679 339 s closePalette;
#X obj 679 301 sel retrying;
#X obj 547 262 s serialIsOpen;
#X connect 13 0 0 0;
#X connect 13 1 7 0;
#X connect 13 2 8 0;
#X connect 13 3 1 0;
#X connect 13 4 2 0;
#X connect 13 5 3 0;
#X connect 13 6 5 0;
#X connect 13 7 6 0;
#X connect 13 8 4 0;
#X connect 13 9 20 0 32.................aB...3A...vl....d....XJ....;
#X connect 13 9 9 0 32.................U....bk+++eE....W4+++yE....;
#X connect 13 10 10 0;
#X connect 13 11 11 0;
#X connect 13 12 12 0;
#X connect 13 13 15 0 32.................o....zA...PJ....c....PG....;
#X connect 13 13 19 0 32.................s....n....PK....J....DL....;
#X connect 13 13 16 0 32.................H....zA....B....c.....A....;
#X connect 14 0 13 0;
#X connect 15 0 17 0;
#X connect 19 0 18 0;
#X coords 0 0 1 1 78 34 2 94 186;
#X restore 574 294 pd connectionInfo;
#X msg 379 175 close;
#X obj 204 61 note 165 14 Inter empty 0 55 55 55 0 228 228 228 0 2 Check which device is the Palette and correct the number under Open.;
#X obj 204 119 note 165 14 Inter empty 0 55 55 55 0 228 228 228 0 2 Open the serial port with the number you've set;
#X obj 204 169 note 165 14 Inter empty 0 55 55 55 0 228 228 228 0 2 Close the serial port;
#X obj 719 119 receive receiveComplete;
#N canvas 733 172 788 664 comportSetup 0;
#X msg 272 271 info;
#X obj 275 166 b;
#X obj 186 217 del 10;
#X obj 189 166 b;
#X obj 272 368 outlet;
#X obj 186 67 inlet;
#X obj 272 67 inlet;
#X obj 272 217 del 10;
#X msg 80 217 pollintervall 1;
#X connect 0 0 4 0 32.................l....f++++uI....3+++++D....;
#X connect 1 0 7 0;
#X connect 2 0 0 0 32.................K....DH...vB....AB...HA....;
#X connect 3 0 2 0 32.................C....L....v.....C....X.....;
#X connect 3 0 8 0 32.................P....b4+++OD....W9+++CB....;
#X connect 5 0 3 0;
#X connect 6 0 1 0;
#X connect 7 0 0 0;
#X connect 8 0 4 0 32.................2A....L...vc.....C...PH....;
#X restore 362 214 pd comportSetup;
#X obj 489 414 send receiveComplete;
#N canvas 733 172 450 300 Palette 0;
#X symbolatom 186 181 7 0 0 0 - - - 8;
#X floatatom 186 201 2 0 0 0 - - - 8;
#X floatatom 211 201 2 0 0 0 - - - 8;
#X floatatom 186 221 2 0 0 0 - - - 8;
#X floatatom 211 221 2 0 0 0 - - - 8;
#X obj 185 113 unpack s f f f f;
#X obj 325 221 s numDACs;
#X obj 305 241 s DACDepth;
#X obj 325 271 s numADCs;
#X obj 305 291 s ADCDepth;
#X obj 35 104 delay 1000;
#X obj 185 71 inlet;
#X obj 305 181 send paletteVersion;
#X obj 35 48 receive serialIsOpen;
#X obj 35 77 route 0;
#X msg 35 131 set 0;
#X connect 0 0 12 0 48.................E....rE...PA....aA....++++Od....v++++iG...v6++++;
#X connect 1 0 6 0 32.................A....DI...P.....QB...T.....;
#X connect 2 0 7 0 32.................C....nF...v.....pA...jA....;
#X connect 3 0 8 0 32.................a....DI...vF....QB...LB....;
#X connect 4 0 9 0 32.................q....nF...vJ....pA...LC....;
#X connect 5 0 0 0 32.................R.........fD.........DC....;
#X connect 5 1 1 0 32.................BA...j9+++uP....o++++aD....;
#X connect 5 2 2 0 32.................BA...n9+++uP....p++++aD....;
#X connect 5 3 3 0 32.................TA...T7+++OU....E++++qE....;
#X connect 5 4 4 0 32.................WA...X7++++U....F++++qE....;
#X connect 10 0 15 0;
#X connect 11 0 5 0;
#X connect 13 0 14 0;
#X connect 14 0 10 0;
#X connect 15 0 4 0 48.................Y....LD...PF....CA...PD....o....DA...PJ....R....;
#X connect 15 0 2 0 48.................N....jE...fC....YA....C....o....v....PJ....M....;
#X connect 15 0 0 0 32.................K....XI...vB....VB...7A....;
#X connect 15 0 1 0 48.................Q....LE...PD....SA...LC...Pj....y....DI....M....;
#X connect 15 0 3 0 48.................c....zC...PG....8....XD...Pj....FA...DI....R....;
#X coords 0 0 1 1 42 60 2 184 179;
#X restore 654 400 pd Palette Specs;
#N canvas 733 172 450 300 formatPacket 0;
#X obj 79 129 list store;
#X obj 79 179 list trim;
#X obj 79 229 fudiformat -u;
#X obj 79 279 list append 13;
#X obj 79 59 inlet;
#X obj 159 59 inlet;
#X obj 79 319 outlet;
#X obj 159 99 spigot;
#X obj 239 59 receive serialIsOpen;
#X connect 0 0 1 0;
#X connect 1 0 2 0;
#X connect 2 0 3 0;
#X connect 3 0 6 0;
#X connect 4 0 0 0;
#X connect 5 0 7 0;
#X connect 7 0 0 1 32.................F....T8+++uA....U++++u.....;
#X connect 8 0 7 1 32.................L....f7+++OC....H++++WA....;
#X restore 719 169 pd formatPacket;
#N canvas 733 172 450 300 (subpatch) 0;
#X obj 189 129 EaselControlRateOutputTile;
#X obj 239 129 EaselControlRateOutputTile;
#X obj 289 129 EaselControlRateOutputTile;
#X obj 339 129 EaselControlRateOutputTile;
#X obj 389 129 EaselControlRateOutputTile;
#X obj 439 129 EaselControlRateOutputTile;
#X obj 489 129 EaselControlRateOutputTile;
#X obj 539 129 EaselControlRateOutputTile;
#X obj 79 279 list append;
#X obj 159 279 list append;
#X obj 239 279 list append;
#X obj 319 279 list append;
#X obj 399 279 list append;
#X obj 479 279 list append;
#X obj 559 279 list append;
#X obj 79 229 tosymbol;
#X obj 159 229 tosymbol;
#X obj 239 229 tosymbol;
#X obj 319 229 tosymbol;
#X obj 399 229 tosymbol;
#X obj 479 229 tosymbol;
#X obj 559 229 tosymbol;
#X obj 639 229 tosymbol;
#X obj 639 279 list append;
#X obj 189 19 inlet~;
#X obj 239 19 inlet~;
#X obj 289 19 inlet~;
#X obj 339 19 inlet~;
#X obj 389 19 inlet~;
#X obj 439 19 inlet~;
#X obj 489 19 inlet~;
#X obj 539 19 inlet~;
#X obj 79 346 outlet;
#X connect 0 0 15 0 32.................N....zz+++uC....M8+++yA....;
#X connect 1 0 16 0 32.................b....D6+++OG....w9+++6C....;
#X connect 2 0 17 0 32.................j....77+++OI....O++++6C....;
#X connect 3 0 18 0 32.................r....z9+++OK....s++++6C....;
#X connect 4 0 19 0 32.................n....n.....J....J....3C....;
#X connect 5 0 20 0 32.................i....fB...vH....n....3C....;
#X connect 6 0 21 0 32.................a....XD...vF....FA...3C....;
#X connect 7 0 22 0 32.................J....zJ...fB....sB...zA....;
#X connect 8 0 32 0;
#X connect 9 0 8 1;
#X connect 10 0 9 1;
#X connect 11 0 10 1;
#X connect 12 0 11 1;
#X connect 13 0 12 1;
#X connect 14 0 13 1;
#X connect 15 0 8 0;
#X connect 16 0 9 0;
#X connect 17 0 10 0;
#X connect 18 0 11 0;
#X connect 19 0 12 0;
#X connect 20 0 13 0;
#X connect 21 0 14 0;
#X connect 22 0 23 0;
#X connect 23 0 14 1;
#X connect 24 0 0 0 32.................IA...PK...PR....zB...rE....;
#X connect 25 0 1 0 32.................AA...HH...PP....BB...rE....;
#X connect 26 0 2 0 32.................5.....E...fN....PA...rE....;
#X connect 27 0 3 0 32.................1....3A...fM....d....rE....;
#X connect 28 0 4 0 32.................0....z9+++eM....s++++uE....;
#X connect 29 0 5 0 32.................1....r6+++uM....69+++uE....;
#X connect 30 0 6 0 32.................AA...j3+++eP....I9+++uE....;
#X connect 31 0 7 0 32.................LA...b0+++OS....W8+++uE....;
#X coords 0 0 1 1 392 42 1 187 127;
#X restore 299 679 pd;
#N canvas 733 172 450 300 (subpatch) 0;
#X obj 29 69 unpack f f f f f f f f;
#X floatatom 29 109 5 0 0 0 - - - 0;
#X floatatom 59 109 5 0 0 0 - - - 0;
#X floatatom 89 109 5 0 0 0 - - - 0;
#X floatatom 119 109 5 0 0 0 - - - 0;
#X floatatom 149 109 5 0 0 0 - - - 0;
#X floatatom 179 109 5 0 0 0 - - - 0;
#X floatatom 209 109 5 0 0 0 - - - 0;
#X floatatom 239 109 5 0 0 0 - - - 0;
#N canvas 733 172 450 300 resetOnClose 0;
#X obj 43 37 r closePalette;
#X obj 43 96 outlet;
#X msg 43 63 set 0;
#X connect 0 0 2 0;
#X connect 2 0 1 0;
#X restore 282 69 pd resetOnClose;
#X obj 29 259 scope~ 38 38 18 3 256 -1 4095 0 0 0 2048 255 204 0 153 153 153 194 182 53 0 empty;
#X obj 29 179 sig~;
#X obj 29 19 inlet;
#X obj 9 429 outlet~;
#X obj 79 259 scope~ 38 38 18 3 256 -1 4095 0 0 0 2048 255 204 0 153 153 153 194 182 53 0 empty;
#X obj 79 179 sig~;
#X obj 129 259 scope~ 38 38 18 3 256 -1 4095 0 0 0 2048 255 204 0 153 153 153 194 182 53 0 empty;
#X obj 129 179 sig~;
#X obj 179 259 scope~ 38 38 18 3 256 -1 4095 0 0 0 2048 255 204 0 153 153 153 194 182 53 0 empty;
#X obj 179 179 sig~;
#X obj 229 259 scope~ 38 38 18 3 256 -1 4095 0 0 0 2048 255 204 0 153 153 153 194 182 53 0 empty;
#X obj 229 179 sig~;
#X obj 279 259 scope~ 38 38 18 3 256 -1 4095 0 0 0 2048 255 204 0 153 153 153 194 182 53 0 empty;
#X obj 279 179 sig~;
#X obj 329 259 scope~ 38 38 18 3 256 -1 4095 0 0 0 2048 255 204 0 153 153 153 194 182 53 0 empty;
#X obj 329 179 sig~;
#X obj 379 259 scope~ 38 38 18 3 256 -1 4095 0 0 0 2048 255 204 0 153 153 153 194 182 53 0 empty;
#X obj 379 179 sig~;
#X obj 9 399 scale~ 0 4095 0 1;
#X obj 59 359 outlet~;
#X obj 59 329 scale~ 0 4095 0 1;
#X obj 159 429 outlet~;
#X obj 159 399 scale~ 0 4095 0 1;
#X obj 209 359 outlet~;
#X obj 209 329 scale~ 0 4095 0 1;
#X obj 309 429 outlet~;
#X obj 309 399 scale~ 0 4095 0 1;
#X obj 359 359 outlet~;
#X obj 359 329 scale~ 0 4095 0 1;
#X obj 469 429 outlet~;
#X obj 469 399 scale~ 0 4095 0 1;
#X obj 489 359 outlet~;
#X obj 489 329 scale~ 0 4095 0 1;
#N canvas 733 172 450 300 smallLevelMeter 0;
#X obj 221 148 cnv 15 13 37 empty empty empty 20 12 0 14 #333333 #373737 0;
#X obj 223 150 cnv 15 9 9 empty redLight empty 20 12 0 14 #ff3300 #373737 0;
#X obj 223 174 cnv 10 9 9 empty whiteLight empty 20 12 0 14 #ffffff #373737 0;
#X obj 223 162 cnv 15 9 9 empty yellowLight empty 20 12 0 14 #fae200 #373737 0;
#X obj 189 39 inlet~;
#N canvas 0 22 450 300 whiteLight 0;
#X restore 222 110 pd whiteLight;
#N canvas 0 22 450 300 yellowLight 0;
#X restore 223 89 pd yellowLight;
#N canvas 0 22 450 300 redLight 0;
#X restore 223 66 pd redLight;
#X coords 0 0 1 1 17 41 2 219 146;
#X restore 783 369 pd smallLevelMeter;
#X connect 0 0 1 0 32.................M....D8+++eC....Q++++mA....;
#X connect 0 1 2 0 32.................R....z....fD....M....TA....;
#X connect 0 2 3 0 32.................S....nA...vD....Z....TA....;
#X connect 0 3 4 0 32.................Q....bB...PD....m....TA....;
#X connect 0 4 5 0 32.................O....PC...vC....z....TA....;
#X connect 0 5 6 0 32.................M....DD...PC....AA...TA....;
#X connect 0 6 7 0 32.................K....3D...vB....NA...TA....;
#X connect 0 7 8 0 32.................M....rB...PC....q....jA....;
#X connect 1 0 11 0 32.................Z.........fF.........PC....;
#X connect 2 0 15 0 32.................s....PA...PK....T....PC....;
#X connect 3 0 17 0 32.................p....fB...fJ....n....PC....;
#X connect 4 0 19 0 32.................m....vC...vI....7....PC....;
#X connect 5 0 21 0 32.................j.....E....I....PA...PC....;
#X connect 6 0 23 0 32.................g....PF...PH....jA...PC....;
#X connect 7 0 25 0 32.................d....fG...fG....3A...PC....;
#X connect 8 0 27 0 32.................Z....vH...fF....LB...PC....;
#X connect 9 0 8 0 32.................K....X8++++B....V++++WA....;
#X connect 9 0 7 0 32.................K....f6++++B....39+++WA....;
#X connect 9 0 6 0 32.................K....n4++++B....Z9+++WA....;
#X connect 9 0 5 0 32.................K....v2++++B....78+++WA....;
#X connect 9 0 4 0 32.................K....30++++B....d8+++WA....;
#X connect 9 0 3 0 32.................K.....z++++B.....8+++WA....;
#X connect 9 0 2 0 32.................K....Hx++++B....h7+++WA....;
#X connect 9 0 1 0 32.................K....Pv++++B....D7+++WA....;
#X connect 11 0 10 0;
#X connect 11 0 28 0 32.................v....b++++OL....2++++uJ....;
#X connect 12 0 0 0;
#X connect 15 0 14 0;
#X connect 15 0 30 0 32.................BA...z9+++uP....s++++OH....;
#X connect 17 0 16 0;
#X connect 17 0 32 0 32.................1....PA...fM....T....jL....;
#X connect 19 0 18 0;
#X connect 19 0 34 0 32.................z....PA....M....T....LH....;
#X connect 21 0 20 0;
#X connect 21 0 36 0 32.................2....XD...vM....FA...jL....;
#X connect 23 0 22 0;
#X connect 23 0 38 0 32.................s....XD...PK....FA...LH....;
#X connect 25 0 24 0;
#X connect 25 0 40 0 48.................h....vE...fH....bA...LD...fa....CA...3F...Px....;
#X connect 27 0 26 0;
#X connect 27 0 42 0 32.................U....3F...PE....tA...LH....;
#X connect 28 0 13 0;
#X connect 30 0 29 0;
#X connect 32 0 31 0;
#X connect 34 0 33 0;
#X connect 36 0 35 0;
#X connect 38 0 37 0;
#X connect 40 0 39 0;
#X connect 42 0 41 0;
#X coords 0 0 1 1 392 42 1 27 257;
#X restore 299 734 pd;
#X obj 299 629 inlet~;
#X obj 351 609 inlet~;
#X obj 404 629 inlet~;
#X obj 456 609 inlet~;
#X obj 509 629 inlet~;
#X obj 561 609 inlet~;
#X obj 614 629 inlet~;
#X obj 667 609 inlet~;
#N canvas 733 172 450 300 parsePacket 0;
#X obj 242 261 route Palette;
#X obj 242 135 group 0;
#X obj 242 229 list trim;
#X obj 242 158 list trim;
#X obj 242 87 sel 10 13;
#X obj 242 25 inlet;
#X obj 242 305 outlet;
#X obj 19 305 outlet;
#X obj 302 305 outlet;
#X obj 242 197 fudiparse -u;
#X obj 86 122 receive serialIsOpen;
#X msg 108 188;
#X obj 157 261 spigot;
#X obj 181 158 != 1;
#X obj 184 188 b;
#X connect 0 0 6 0;
#X connect 0 1 8 0;
#X connect 1 0 3 0;
#X connect 2 0 0 0;
#X connect 3 0 9 0;
#X connect 4 1 1 0 32.................S....79++++D....u++++2A....;
#X connect 4 1 7 0 32.................J.....w+++uB....P7+++eL....;
#X connect 4 2 1 0 32.................W....z8++++E....c++++2A....;
#X connect 5 0 4 0;
#X connect 9 0 2 0;
#X connect 10 0 13 0 32.................F....7E...fA....eA...DA....;
#X connect 11 0 12 0 32.................c....DC...PG....w....XC....;
#X connect 12 0 6 0 32.................N....TE...fC....UA...jA....;
#X connect 13 0 14 0;
#X connect 13 0 12 1 48.................E....D9+++eA....g++++SC.........z..........U....;
#X connect 14 0 12 1 32.................f..........H.........XC....;
#X connect 14 0 11 0 48......................v8+++O.....b++++S9+++Ot++++j++++i6+++u6++++;
#X restore 489 362 pd parsePacket;
#N canvas 733 172 450 300 sampleRate 0;
#X obj 69 119 timer;
#X floatatom 231 273 6 0 0 3 Sample\ Rate - - 10;
#X obj 63 273 s sampleRate;
#X obj 69 43 inlet;
#X obj 163 273 outlet;
#X obj 116 128 note 0 14 Inter empty 0 55 55 55 0 228 228 228 0 0 Count milliseconds between packets;
#X obj 119 159 note 212 14 Inter empty 0 55 55 55 0 228 228 228 0 0 Multiply by 1000 for Hz;
#X obj 69 158 /;
#X floatatom 19 119 4 0 0 0 - - - 16;
#X obj 69 194 avg;
#X obj 69 223 int;
#X connect 0 0 7 1 32.................J....r....fB....K....PA....;
#X connect 3 0 0 1 32.................T.....A....E....P....fB....;
#X connect 3 0 0 0;
#X connect 3 0 8 0 32.................v....X7+++OL....F++++CF....;
#X connect 7 0 9 0 32.................I.....J...PB....fB...nB....;
#X connect 8 0 7 0 32.................I....HC...PB....x....DA....;
#X connect 9 0 10 0;
#X connect 10 0 2 0 32.................P....r++++OD....6+++++A....;
#X connect 10 0 4 0 32.................P....3E....D....dA...7A....;
#X connect 10 0 1 0 32.................K.....J...vB....fB....B....;
#X restore 381 414 pd sampleRate;
#X obj 635 723 tgl 9 0 empty empty Palette\ connected -53 5 0 5 #044444 #ffcc00 #ccccc6 0 1;
#X obj 459 59 route 1;
#X obj 459 89 b;
#X obj 487 133 b;
#X obj 299 799 outlet~;
#X obj 351 821 outlet~;
#X floatatom 381 444 19 0 0 0 - - - 8;
#X obj 404 799 outlet~;
#X obj 456 821 outlet~;
#X obj 509 799 outlet~;
#X obj 561 821 outlet~;
#X obj 614 799 outlet~;
#X obj 667 821 outlet~;
#X obj 779 609 receive sampleRate;
#X obj 633 722 note 62 7 Inter empty 0 200 200 200 0 228 228 228 0 2 sr: 0 Hz;
#N canvas 733 172 450 300 formatSampleRate 0;
#X obj 139 79 tosymbol;
#X msg 139 199 set \$1;
#X obj 139 169 tosymbol;
#X obj 39 169 b;
#X msg 39 199 prepend sr:;
#X obj 219 169 b;
#X msg 219 199 append Hz;
#X obj 139 39 inlet;
#X obj 139 299 outlet;
#X connect 0 0 2 0 32.................j..........I.........bD....;
#X connect 0 0 5 0 32.................X....zD....F....MA...bD....;
#X connect 0 0 3 0 32.................W....n4++++E....Z9+++eD....;
#X connect 1 0 8 0 32.................Z.........fF.........LC....;
#X connect 2 0 1 0 32.................F.........fA.........r.....;
#X connect 3 0 4 0 32.................F....L....fA....C....r.....;
#X connect 4 0 8 0 32.................Z....PF...fF....jA...LC....;
#X connect 5 0 6 0 32.................F....L....fA....C....r.....;
#X connect 6 0 8 0 32.................Z....D6+++uF....w9+++OC....;
#X connect 7 0 0 0 32.................K.........vB.........TA....;
#X restore 779 679 pd formatSampleRate;
#X obj 409 722 note 49 7 Inter empty 0 200 200 200 0 228 228 228 0 0 Palette v0.5.3;
#X obj 399 523 r numDACs;
#X obj 549 523 r DACDepth;
#X obj 689 523 r numADCs;
#X obj 849 523 r ADCDepth;
#N canvas 733 172 450 300 formatNumDACs 0;
#X obj 139 79 tosymbol;
#X msg 139 199 set \$1;
#X obj 139 169 tosymbol;
#X obj 219 169 b;
#X obj 139 39 inlet;
#X obj 139 299 outlet;
#X msg 219 199 append DACs;
#X connect 0 0 2 0 32.................j..........I.........bD....;
#X connect 0 0 3 0 32.................X....zD....F....MA...bD....;
#X connect 1 0 5 0 32.................Z.........fF.........LC....;
#X connect 2 0 1 0 32.................F.........fA.........r.....;
#X connect 3 0 6 0 32.................F....L....fA....C....r.....;
#X connect 4 0 0 0 32.................K.........vB.........TA....;
#X connect 6 0 5 0 32.................Z....D6+++uF....w9+++OC....;
#X restore 399 553 pd formatNumDACs;
#N canvas 733 172 450 300 formatDACDepth 0;
#X obj 139 79 tosymbol;
#X msg 139 199 set \$1;
#X obj 139 169 tosymbol;
#X obj 219 169 b;
#X obj 139 39 inlet;
#X obj 139 299 outlet;
#X msg 219 199 append bit;
#X connect 0 0 2 0 32.................j..........I.........bD....;
#X connect 0 0 3 0 32.................X....zD....F....MA...bD....;
#X connect 1 0 5 0 32.................Z.........fF.........LC....;
#X connect 2 0 1 0 32.................F.........fA.........r.....;
#X connect 3 0 6 0 32.................F....L....fA....C....r.....;
#X connect 4 0 0 0 32.................K.........vB.........TA....;
#X connect 6 0 5 0 32.................Z....D6+++uF....w9+++OC....;
#X restore 549 553 pd formatDACDepth;
#N canvas 733 172 450 300 formatNumADCs 0;
#X obj 139 79 tosymbol;
#X msg 139 199 set \$1;
#X obj 139 169 tosymbol;
#X obj 219 169 b;
#X obj 139 39 inlet;
#X obj 139 299 outlet;
#X msg 219 199 append ADCs;
#X connect 0 0 2 0 32.................j..........I.........bD....;
#X connect 0 0 3 0 32.................X....zD....F....MA...bD....;
#X connect 1 0 5 0 32.................Z.........fF.........LC....;
#X connect 2 0 1 0 32.................F.........fA.........r.....;
#X connect 3 0 6 0 32.................F....L....fA....C....r.....;
#X connect 4 0 0 0 32.................K.........vB.........TA....;
#X connect 6 0 5 0 32.................Z....D6+++uF....w9+++OC....;
#X restore 689 553 pd formatNumADCs;
#N canvas 733 172 450 300 formatADCDepth 0;
#X obj 139 79 tosymbol;
#X msg 139 199 set \$1;
#X obj 139 169 tosymbol;
#X obj 219 169 b;
#X obj 139 39 inlet;
#X obj 139 299 outlet;
#X msg 219 199 append bit;
#X connect 0 0 2 0 32.................j..........I.........bD....;
#X connect 0 0 3 0 32.................X....zD....F....MA...bD....;
#X connect 1 0 5 0 32.................Z.........fF.........LC....;
#X connect 2 0 1 0 32.................F.........fA.........r.....;
#X connect 3 0 6 0 32.................F....L....fA....C....r.....;
#X connect 4 0 0 0 32.................K.........vB.........TA....;
#X connect 6 0 5 0 32.................Z....D6+++uF....w9+++OC....;
#X restore 849 553 pd formatADCDepth;
#X obj 470 722 note 33 7 Inter empty 0 200 200 200 0 228 228 228 0 0 8 DACs;
#X obj 495 722 note 27 7 Inter empty 0 200 200 200 0 228 228 228 0 0 12 bit;
#X obj 531 722 note 33 7 Inter empty 0 200 200 200 0 228 228 228 0 0 2 ADCs;
#X obj 555 722 note 27 7 Inter empty 0 200 200 200 0 228 228 228 0 0 12 bit;
#X obj 229 523 r paletteVersion;
#N canvas 733 172 450 300 formatPaletteVersion 0;
#X obj 139 79 tosymbol;
#X msg 139 199 set \$1;
#X obj 139 169 tosymbol;
#X obj 19 169 b;
#X obj 139 39 inlet;
#X obj 139 299 outlet;
#X msg 19 199 prepend Palette;
#X connect 0 0 2 0 32.................j..........I.........bD....;
#X connect 0 0 3 0 32.................W....n4++++E....Z9+++eD....;
#X connect 1 0 5 0 32.................Z.........fF.........LC....;
#X connect 2 0 1 0 32.................F.........fA.........r.....;
#X connect 3 0 6 0 32.................F....L....fA....C....r.....;
#X connect 4 0 0 0 32.................K.........vB.........TA....;
#X connect 6 0 5 0 32.................Z....PF...fF....jA...LC....;
#X restore 229 553 pd formatPaletteVersion;
#X msg 379 119 open 3;
#X obj 489 294 comport;
#X obj 945 679 receive serialIsOpen;
#X obj 302 723 hradio 10 1 0 2 empty empty Connect\ to\ Palette 25 5 0 7 #e4e4e4 #4d4d4d #ffffff 0;
#X obj 719 219 spigot;
#X obj 82 629 > 0;
#X obj 82 595 receive serialIsOpen;
#X obj 484 89 spigot;
#X obj 839 169 r serialIsOpen;
#X obj 538 69 receive closePalette;
#N canvas 733 172 450 300 openPalette 0;
#X obj 100 55 receive serialIsOpen;
#X obj 56 55 inlet;
#X obj 56 114 >;
#X obj 121 114 <;
#X obj 56 171 send openSerial;
#X connect 0 0 3 1 32.................T.....B....E....f....fB....;
#X connect 0 0 2 1 32.................T.....9+++OE....f++++iB....;
#X connect 1 0 2 0 32.................T..........E.........fB....;
#X connect 1 0 3 0 32.................I....DD...PB....AA...fB....;
#X restore -40 267 pd openPalette;
#X connect 1 0 56 0 48.................Z....HC...fF....x....zF...fa....sA...3F....1....;
#X connect 3 0 8 1 32.................K....fD...vB....HA...PA....;
#X connect 3 0 56 0 32.................G....3F...vA....tA...PF....;
#X connect 7 0 11 0;
#X connect 8 0 56 0 32.................e....7G...vG....+A...zC....;
#X connect 11 0 59 0 32.................P..........D.........7A....;
#X connect 13 0 28 0;
#X connect 13 1 29 0;
#X connect 13 2 31 0;
#X connect 13 3 32 0;
#X connect 13 4 33 0;
#X connect 13 5 34 0;
#X connect 13 6 35 0;
#X connect 13 7 36 0;
#X connect 14 0 12 0;
#X connect 15 0 12 1;
#X connect 16 0 12 2;
#X connect 17 0 12 3;
#X connect 18 0 12 4;
#X connect 19 0 12 5;
#X connect 20 0 12 6;
#X connect 21 0 12 7;
#X connect 22 0 23 0 32.................P....z1+++OD....s8+++GB....;
#X connect 22 0 9 0 32.................P..........D.........DB....;
#X connect 22 1 10 0 32.................H....XE....B....VA...LA....;
#X connect 22 2 13 0 48.................+A...zf++++e....M3++++U...P89+++eE...Tu+++eXA...;
#X connect 23 0 30 0;
#X connect 24 0 65 0;
#X connect 25 0 26 0;
#X connect 25 1 62 0;
#X connect 26 0 55 0 32.................F....P6+++uA....z9+++u.....;
#X connect 27 0 3 0 32.................M....f4+++eC....X9+++eA....;
#X connect 37 0 39 0 32.................P....fB....D....n....7A....;
#X connect 39 0 38 0 32.................V....nu+++uE....56+++aA....;
#X connect 41 0 45 0;
#X connect 42 0 46 0;
#X connect 43 0 47 0;
#X connect 44 0 48 0;
#X connect 45 0 49 0;
#X connect 46 0 50 0;
#X connect 47 0 51 0;
#X connect 48 0 52 0;
#X connect 53 0 54 0;
#X connect 54 0 40 0;
#X connect 55 0 8 0 32.................V.....++++uE....v++++yD....;
#X connect 55 0 56 0 32.................U....3F...PE....tA...vI....;
#X connect 56 0 22 0 32.................e.........vG.........DC....;
#X connect 56 1 2 0 48.................G....jA...vA....Y....n9+++eL....p++++GC...f6++++;
#X connect 57 0 24 0 32.................R....Lr+++uD....C6+++qA....;
#X connect 58 0 25 0 48.................J....D1+++uB....g8+++aT++++m....F0++++I...fW8+++;
#X connect 59 0 56 0 32.................a....rw++++F....a7+++iC....;
#X connect 60 0 58 0 32.................GA...nM...vQ....ZC...vD....;
#X connect 61 0 60 0;
#X connect 62 0 27 0;
#X connect 63 0 59 1 32.................P.....5+++OD....f9++++A....;
#X connect 64 0 3 0 32.................RA...H1+++uT....h8+++eE....;
#X coords 0 0 1 1 396 101 1 297 677;
