#N canvas 827 239 985 913 12;
#X obj 229 589 cnv 15 541 281 empty empty empty 20 12 0 14 #333333 #333333 0;
#X msg 379 59 devices;
#N canvas 733 172 450 300 connectionInfo 0;
#X floatatom 278 215 10 0 0 3 baud\ (ignored\ by\ USB) - - 8;
#X floatatom 369 148 3 0 0 3 parity - - 0;
#X floatatom 399 176 3 0 0 2 stop - - 0;
#X floatatom 429 151 3 0 0 3 data - - 0;
#X floatatom 521 176 3 0 0 0 port - - 0;
#X obj 460 176 tgl 15 0 empty empty rts/cts -10 20 1 11 #14e814 #fc2828 #000000 0 1;
#X obj 490 151 tgl 15 0 empty empty xon/xoff -14 20 1 11 #14e814 #fc2828 #000000 0 1;
#X obj 308 148 tgl 15 0 empty empty dsr 0 20 1 11 #14e814 #fc2828 #000000 0 1;
#X obj 338 176 tgl 15 0 empty empty cts 0 20 1 11 #14e814 #fc2828 #000000 0 1;
#X obj 126 199 tgl 15 0 empty empty Palette\ Connected -27 -7 1 8 #372d00 #ffbc25 #000000 0 1;
#X obj 577 224 print port_list;
#X obj 612 190 tgl 15 0 empty empty hupcl -6 20 1 11 #14e814 #fc2828 #000000 0 1;
#X floatatom 638 151 5 0 0 1 rxerrors - - 0;
#X obj 274 74 route baud dsr cts parity stop data rtscts xonxoff port open ports hupcl rxerrors;
#X obj 274 30 inlet;
#X obj 698 224 sel -1;
#X obj 698 124 print serialError;
#X obj 698 262 s closePalette;
#X obj 679 339 s closePalette;
#X obj 679 301 sel retrying;
#X obj 547 262 s serialIsOpen;
#X connect 13 0 0 0;
#X connect 13 1 7 0;
#X connect 13 2 8 0;
#X connect 13 3 1 0;
#X connect 13 4 2 0;
#X connect 13 5 3 0;
#X connect 13 6 5 0;
#X connect 13 7 6 0;
#X connect 13 8 4 0;
#X connect 13 9 20 0 32.................aB...3A...vl....d....XJ....;
#X connect 13 9 9 0 32.................U....bk+++eE....W4+++yE....;
#X connect 13 10 10 0;
#X connect 13 11 11 0;
#X connect 13 12 12 0;
#X connect 13 13 15 0 32.................o....zA...PJ....c....PG....;
#X connect 13 13 19 0 32.................s....n....PK....J....DL....;
#X connect 13 13 16 0 32.................H....zA....B....c.....A....;
#X connect 14 0 13 0;
#X connect 15 0 17 0;
#X connect 19 0 18 0;
#X coords 0 0 1 1 78 34 2 94 186;
#X restore 574 294 pd connectionInfo;
#X msg 379 175 close;
#X obj 204 61 note 165 14 Inter empty 0 55 55 55 0 228 228 228 0 2 Check which device is the Palette and correct the number under Open.;
#X obj 204 119 note 165 14 Inter empty 0 55 55 55 0 228 228 228 0 2 Open the serial port with the number you've set;
#X obj 204 169 note 165 14 Inter empty 0 55 55 55 0 228 228 228 0 2 Close the serial port;
#X obj 719 119 receive receiveComplete, f 22;
#N canvas 733 172 788 664 comportSetup 0;
#X msg 272 271 info;
#X obj 275 166 b;
#X obj 186 217 del 10;
#X obj 189 166 b;
#X obj 272 368 outlet;
#X obj 186 67 inlet;
#X obj 272 67 inlet;
#X obj 272 217 del 10;
#X msg 80 217 pollintervall 1;
#X connect 0 0 4 0 32.................l....f++++uI....3+++++D....;
#X connect 1 0 7 0;
#X connect 2 0 0 0 32.................K....DH...vB....AB...HA....;
#X connect 3 0 2 0 32.................C....L....v.....C....X.....;
#X connect 3 0 8 0 32.................P....b4+++OD....W9+++CB....;
#X connect 5 0 3 0;
#X connect 6 0 1 0;
#X connect 7 0 0 0;
#X connect 8 0 4 0 32.................2A....L...vc.....C...PH....;
#X restore 362 214 pd comportSetup;
#X f 16;
#X obj 489 414 send receiveComplete, f 19;
#N canvas 733 172 450 300 Palette 0;
#X symbolatom 186 181 7 0 0 0 - - - 8;
#X floatatom 186 201 2 0 0 0 - - - 8;
#X floatatom 211 201 2 0 0 0 - - - 8;
#X floatatom 186 221 2 0 0 0 - - - 8;
#X floatatom 211 221 2 0 0 0 - - - 8;
#X obj 185 113 unpack s f f f f;
#X obj 325 221 s numDACs;
#X obj 305 241 s DACDepth;
#X obj 325 271 s numADCs;
#X obj 305 291 s ADCDepth;
#X obj 35 104 delay 1000;
#X obj 185 71 inlet;
#X obj 305 181 send paletteVersion;
#X obj 35 48 receive serialIsOpen;
#X obj 35 77 route 0;
#X msg 35 131 set 0;
#X connect 0 0 12 0 48.................E....rE...PA....aA....++++Od....v++++iG...v6++++;
#X connect 1 0 6 0 32.................A....DI...P.....QB...T.....;
#X connect 2 0 7 0 32.................C....nF...v.....pA...jA....;
#X connect 3 0 8 0 32.................a....DI...vF....QB...LB....;
#X connect 4 0 9 0 32.................q....nF...vJ....pA...LC....;
#X connect 5 0 0 0 32.................R.........fD.........DC....;
#X connect 5 1 1 0 32.................BA...j9+++uP....o++++aD....;
#X connect 5 2 2 0 32.................BA...n9+++uP....p++++aD....;
#X connect 5 3 3 0 32.................TA...T7+++OU....E++++qE....;
#X connect 5 4 4 0 32.................WA...X7++++U....F++++qE....;
#X connect 10 0 15 0;
#X connect 11 0 5 0;
#X connect 13 0 14 0;
#X connect 14 0 10 0;
#X connect 15 0 4 0 48.................Y....LD...PF....CA...PD....o....DA...PJ....R....;
#X connect 15 0 2 0 48.................N....jE...fC....YA....C....o....v....PJ....M....;
#X connect 15 0 0 0 32.................K....XI...vB....VB...7A....;
#X connect 15 0 1 0 48.................Q....LE...PD....SA...LC...Pj....y....DI....M....;
#X connect 15 0 3 0 48.................c....zC...PG....8....XD...Pj....FA...DI....R....;
#X coords 0 0 1 1 42 60 2 184 179;
#X restore 654 400 pd Palette Specs;
#N canvas 733 172 450 300 formatPacket 0;
#X obj 79 129 list store;
#X obj 79 179 list trim;
#X obj 79 229 fudiformat -u;
#X obj 79 279 list append 13;
#X obj 79 59 inlet;
#X obj 159 59 inlet;
#X obj 79 319 outlet;
#X obj 159 99 spigot;
#X obj 239 59 receive serialIsOpen;
#X connect 0 0 1 0;
#X connect 1 0 2 0;
#X connect 2 0 3 0;
#X connect 3 0 6 0;
#X connect 4 0 0 0;
#X connect 5 0 7 0;
#X connect 7 0 0 1 32.................F....T8+++uA....U++++u.....;
#X connect 8 0 7 1 32.................L....f7+++OC....H++++WA....;
#X restore 719 169 pd formatPacket;
#X f 15;
#N canvas 733 172 450 300 (subpatch) 0;
#X obj 189 129 EaselControlRateOutputTile;
#X obj 239 129 EaselControlRateOutputTile;
#X obj 289 129 EaselControlRateOutputTile;
#X obj 339 129 EaselControlRateOutputTile;
#X obj 389 129 EaselControlRateOutputTile;
#X obj 439 129 EaselControlRateOutputTile;
#X obj 489 129 EaselControlRateOutputTile;
#X obj 539 129 EaselControlRateOutputTile;
#X obj 79 279 list append;
#X obj 159 279 list append;
#X obj 239 279 list append;
#X obj 319 279 list append;
#X obj 399 279 list append;
#X obj 479 279 list append;
#X obj 559 279 list append;
#X obj 79 229 tosymbol;
#X obj 159 229 tosymbol;
#X obj 239 229 tosymbol;
#X obj 319 229 tosymbol;
#X obj 399 229 tosymbol;
#X obj 479 229 tosymbol;
#X obj 559 229 tosymbol;
#X obj 639 229 tosymbol;
#X obj 639 279 list append;
#X obj 124 24 inlet~, f 7;
#X obj 79 346 outlet;
#X obj 124 74 xgate~ 2, f 8;
#X obj 199 24 inlet~, f 7;
#X obj 199 74 xgate~ 2, f 9;
#X obj 274 24 inlet~, f 7;
#X obj 274 74 xgate~ 2, f 10;
#X obj 374 24 inlet~, f 7;
#X obj 374 74 xgate~ 2, f 11;
#X obj 474 24 inlet~, f 10;
#X obj 474 74 xgate~ 2, f 11;
#X obj 549 24 inlet~, f 10;
#X obj 549 74 xgate~ 2, f 12;
#X obj 624 24 inlet~, f 10;
#X obj 624 74 xgate~ 2, f 13;
#X obj 724 24 inlet~, f 10;
#X obj 724 74 xgate~ 2, f 14;
#X obj 885 39 r serialIsOpen, f 16;
#X connect 0 0 15 0 32.................N....zz+++uC....M8+++yA....;
#X connect 1 0 16 0 32.................b....D6+++OG....w9+++6C....;
#X connect 2 0 17 0 32.................j....77+++OI....O++++6C....;
#X connect 3 0 18 0 32.................r....z9+++OK....s++++6C....;
#X connect 4 0 19 0 32.................n....n.....J....J....3C....;
#X connect 5 0 20 0 32.................i....fB...vH....n....3C....;
#X connect 6 0 21 0 32.................a....XD...vF....FA...3C....;
#X connect 7 0 22 0 32.................J....zJ...fB....sB...zA....;
#X connect 8 0 25 0;
#X connect 9 0 8 1;
#X connect 10 0 9 1;
#X connect 11 0 10 1;
#X connect 12 0 11 1;
#X connect 13 0 12 1;
#X connect 14 0 13 1;
#X connect 15 0 8 0;
#X connect 16 0 9 0;
#X connect 17 0 10 0;
#X connect 18 0 11 0;
#X connect 19 0 12 0;
#X connect 20 0 13 0;
#X connect 21 0 14 0;
#X connect 22 0 23 0;
#X connect 23 0 14 1;
#X connect 24 0 26 0;
#X connect 26 0 0 0;
#X connect 27 0 28 0;
#X connect 28 0 1 0;
#X connect 29 0 30 0;
#X connect 30 0 2 0;
#X connect 31 0 32 0;
#X connect 32 0 3 0;
#X connect 33 0 34 0;
#X connect 34 0 4 0;
#X connect 35 0 36 0;
#X connect 36 0 5 0;
#X connect 37 0 38 0;
#X connect 38 0 6 0;
#X connect 39 0 40 0;
#X connect 40 0 7 0;
#X connect 41 0 26 0;
#X connect 41 0 28 0;
#X connect 41 0 30 0;
#X connect 41 0 32 0;
#X connect 41 0 34 0;
#X connect 41 0 36 0;
#X connect 41 0 38 0;
#X connect 41 0 40 0;
#X coords 0 0 1 1 392 42 1 187 127;
#X restore 299 679 pd;
#N canvas 733 172 450 300 (subpatch) 0;
#X obj 29 69 unpack f f f f f f f f;
#X floatatom 29 109 5 0 0 0 - - - 0;
#X floatatom 59 109 5 0 0 0 - - - 0;
#X floatatom 89 109 5 0 0 0 - - - 0;
#X floatatom 119 109 5 0 0 0 - - - 0;
#X floatatom 149 109 5 0 0 0 - - - 0;
#X floatatom 179 109 5 0 0 0 - - - 0;
#X floatatom 209 109 5 0 0 0 - - - 0;
#X floatatom 239 109 5 0 0 0 - - - 0;
#N canvas 733 172 450 300 resetOnClose 0;
#X obj 49 132 outlet, f 8;
#X msg 49 99 set 0;
#X obj 49 49 r serialIsOpen, f 15;
#X obj 198 103 == 0, f 5;
#X obj 312 166 bang;
#X connect 1 0 0 0;
#X connect 2 0 1 0;
#X restore 274 24 pd resetOnClose;
#X obj 29 259 scope~ 38 38 18 3 256 -1 4095 0 0 0 2048 255 204 0 153 153 153 194 182 53 0 empty;
#X obj 29 179 sig~;
#X obj 29 19 inlet;
#X obj 9 429 outlet~, f 11;
#X obj 79 259 scope~ 38 38 18 3 256 -1 4095 0 0 0 2048 255 204 0 153 153 153 194 182 53 0 empty;
#X obj 79 179 sig~;
#X obj 129 259 scope~ 38 38 18 3 256 -1 4095 0 0 0 2048 255 204 0 153 153 153 194 182 53 0 empty;
#X obj 129 179 sig~;
#X obj 179 259 scope~ 38 38 18 3 256 -1 4095 0 0 0 2048 255 204 0 153 153 153 194 182 53 0 empty;
#X obj 179 179 sig~;
#X obj 229 259 scope~ 38 38 18 3 256 -1 4095 0 0 0 2048 255 204 0 153 153 153 194 182 53 0 empty;
#X obj 229 179 sig~;
#X obj 279 259 scope~ 38 38 18 3 256 -1 4095 0 0 0 2048 255 204 0 153 153 153 194 182 53 0 empty;
#X obj 279 179 sig~;
#X obj 329 259 scope~ 38 38 18 3 256 -1 4095 0 0 0 2048 255 204 0 153 153 153 194 182 53 0 empty;
#X obj 329 179 sig~;
#X obj 379 259 scope~ 38 38 18 3 256 -1 4095 0 0 0 2048 255 204 0 153 153 153 194 182 53 0 empty;
#X obj 379 179 sig~;
#X obj 9 399 scale~ 0 4095 0 1, f 20;
#X obj 59 359 outlet~, f 11;
#X obj 59 329 scale~ 0 4095 0 1, f 20;
#X obj 159 429 outlet~, f 11;
#X obj 159 399 scale~ 0 4095 0 1, f 20;
#X obj 209 359 outlet~, f 11;
#X obj 209 329 scale~ 0 4095 0 1, f 20;
#X obj 309 429 outlet~, f 11;
#X obj 309 399 scale~ 0 4095 0 1, f 20;
#X obj 359 359 outlet~, f 11;
#X obj 359 329 scale~ 0 4095 0 1, f 20;
#X obj 469 429 outlet~, f 11;
#X obj 469 399 scale~ 0 4095 0 1, f 20;
#X obj 489 359 outlet~, f 11;
#X obj 489 329 scale~ 0 4095 0 1, f 20;
#N canvas 733 172 450 300 smallLevelMeter 0;
#X obj 221 148 cnv 15 13 37 empty empty empty 20 12 0 14 #333333 #373737 0;
#X obj 223 150 cnv 15 9 9 empty redLight empty 20 12 0 14 #ff3300 #373737 0;
#X obj 223 174 cnv 10 9 9 empty whiteLight empty 20 12 0 14 #ffffff #373737 0;
#X obj 223 162 cnv 15 9 9 empty yellowLight empty 20 12 0 14 #fae200 #373737 0;
#X obj 189 39 inlet~;
#N canvas 0 22 450 300 whiteLight 0;
#X restore 222 110 pd whiteLight;
#N canvas 0 22 450 300 yellowLight 0;
#X restore 223 89 pd yellowLight;
#N canvas 0 22 450 300 redLight 0;
#X restore 223 66 pd redLight;
#X coords 0 0 1 1 17 41 2 219 146;
#X restore 783 369 pd smallLevelMeter;
#X connect 0 0 1 0 32.................M....D8+++eC....Q++++mA....;
#X connect 0 1 2 0 32.................R....z....fD....M....TA....;
#X connect 0 2 3 0 32.................S....nA...vD....Z....TA....;
#X connect 0 3 4 0 32.................Q....bB...PD....m....TA....;
#X connect 0 4 5 0 32.................O....PC...vC....z....TA....;
#X connect 0 5 6 0 32.................M....DD...PC....AA...TA....;
#X connect 0 6 7 0 32.................K....3D...vB....NA...TA....;
#X connect 0 7 8 0 32.................M....rB...PC....q....jA....;
#X connect 1 0 11 0 32.................Z.........fF.........PC....;
#X connect 2 0 15 0 32.................s....PA...PK....T....PC....;
#X connect 3 0 17 0 32.................p....fB...fJ....n....PC....;
#X connect 4 0 19 0 32.................m....vC...vI....7....PC....;
#X connect 5 0 21 0 32.................j.....E....I....PA...PC....;
#X connect 6 0 23 0 32.................g....PF...PH....jA...PC....;
#X connect 7 0 25 0 32.................d....fG...fG....3A...PC....;
#X connect 8 0 27 0 32.................Z....vH...fF....LB...PC....;
#X connect 9 0 8 0 32.................3....38+++ON....d++++OC....;
#X connect 9 0 7 0 32.................3.....7+++ON.....++++OC....;
#X connect 9 0 6 0 32.................3....H5+++ON....h9+++OC....;
#X connect 9 0 5 0 32.................3....P3+++ON....D9+++OC....;
#X connect 9 0 4 0 32.................3....X1+++ON....l8+++OC....;
#X connect 9 0 3 0 32.................3....fz+++ON....H8+++OC....;
#X connect 9 0 2 0 32.................3....nx+++ON....p7+++OC....;
#X connect 9 0 1 0 32.................w....vv+++eL....L7+++OC....;
#X connect 11 0 10 0;
#X connect 11 0 28 0 32.................v....z9+++OL....s++++qK....;
#X connect 12 0 0 0;
#X connect 15 0 14 0;
#X connect 15 0 30 0 32.................BA...z9+++uP....s++++OH....;
#X connect 17 0 16 0;
#X connect 17 0 32 0 32.................1....PA...fM....T....jL....;
#X connect 19 0 18 0;
#X connect 19 0 34 0 32.................z....PA....M....T....LH....;
#X connect 21 0 20 0;
#X connect 21 0 36 0 32.................2....XD...vM....FA...jL....;
#X connect 23 0 22 0;
#X connect 23 0 38 0 32.................s....XD...PK....FA...LH....;
#X connect 25 0 24 0;
#X connect 25 0 40 0 48.................h....vE...fH....bA...LD...fa....CA...3F...Px....;
#X connect 27 0 26 0;
#X connect 27 0 42 0 32.................U....3F...PE....tA...LH....;
#X connect 28 0 13 0;
#X connect 30 0 29 0;
#X connect 32 0 31 0;
#X connect 34 0 33 0;
#X connect 36 0 35 0;
#X connect 38 0 37 0;
#X connect 40 0 39 0;
#X connect 42 0 41 0;
#X coords 0 0 1 1 392 42 1 27 257;
#X restore 299 734 pd;
#X obj 299 629 inlet~, f 8;
#X obj 351 609 inlet~, f 8;
#X obj 404 629 inlet~, f 8;
#X obj 456 609 inlet~, f 8;
#X obj 509 629 inlet~, f 8;
#X obj 561 609 inlet~, f 8;
#X obj 614 629 inlet~, f 8;
#X obj 667 609 inlet~, f 8;
#N canvas 733 172 450 300 parsePacket 0;
#X obj 242 261 route Palette;
#X obj 242 135 group 0;
#X obj 242 229 list trim;
#X obj 242 158 list trim;
#X obj 242 87 sel 10 13;
#X obj 242 25 inlet;
#X obj 242 305 outlet;
#X obj 19 305 outlet;
#X obj 302 305 outlet;
#X obj 242 197 fudiparse -u;
#X obj 86 122 receive serialIsOpen;
#X msg 108 188;
#X obj 157 261 spigot;
#X obj 181 158 != 1;
#X obj 184 188 b;
#X connect 0 0 6 0;
#X connect 0 1 8 0;
#X connect 1 0 3 0;
#X connect 2 0 0 0;
#X connect 3 0 9 0;
#X connect 4 1 1 0 32.................S....79++++D....u++++2A....;
#X connect 4 1 7 0 32.................J.....w+++uB....P7+++eL....;
#X connect 4 2 1 0 32.................W....z8++++E....c++++2A....;
#X connect 5 0 4 0;
#X connect 9 0 2 0;
#X connect 10 0 13 0 32.................F....7E...fA....eA...DA....;
#X connect 11 0 12 0 32.................c....DC...PG....w....XC....;
#X connect 12 0 6 0 32.................N....TE...fC....UA...jA....;
#X connect 13 0 14 0;
#X connect 13 0 12 1 48.................E....D9+++eA....g++++SC.........z..........U....;
#X connect 14 0 12 1 32.................f..........H.........XC....;
#X connect 14 0 11 0 48......................v8+++O.....b++++S9+++Ot++++j++++i6+++u6++++;
#X restore 475 362 pd parsePacket;
#X f 16;
#N canvas 733 172 450 300 sampleRate 0;
#X obj 169 139 timer;
#X floatatom 309 319 6 0 0 3 Sample\ Rate - - 10;
#X obj 149 319 s sampleRate;
#X obj 139 79 inlet;
#X obj 249 319 outlet;
#X obj 209 139 note 0 14 Inter empty 0 55 55 55 0 228 228 228 0 0 Count milliseconds between packets;
#X obj 209 179 note 212 14 Inter empty 0 55 55 55 0 228 228 228 0 0 1000/(ms between packets) for Hz;
#X obj 149 269 int;
#X msg 79 179 clear;
#X msg 109 139 1000;
#X obj 149 179 /;
#X obj 209 229 note 212 14 Inter empty 0 55 55 55 0 228 228 228 0 0 Smooth the results;
#X obj 209 269 note 212 14 Inter empty 0 55 55 55 0 228 228 228 0 0 Take out decimals;
#X obj 149 229 avg 3;
#X connect 0 0 10 1 32.................J....f++++uB....3++++WA....;
#X connect 3 0 9 0 32.................X....L9+++OF....i++++mB....;
#X connect 3 0 0 1 32.................U....3B...PE....t....jB....;
#X connect 3 0 0 0 32.................U....3A...PE....d....jB....;
#X connect 7 0 2 0 32.................E.........PA.........7A....;
#X connect 7 0 1 0 32.................J....3I...fB....dB....B....;
#X connect 7 0 4 0 32.................Q....PF...PD....jA...7A....;
#X connect 8 0 13 0 32.................J....XD...fB....FA...7A....;
#X connect 9 0 10 0 32.................J....fB...fB....n....TA....;
#X connect 10 0 13 0 32.................H..........B.........7A....;
#X connect 13 0 7 0;
#X coords 0 0 1 1 69 36 2 303 316;
#X restore 381 414 pd sampleRate;
#X obj 635 723 tgl 9 0 empty empty Palette\ connected -53 5 0 5 #044444 #ffcc00 #ccccc6 0 1;
#X obj 474 24 route 1;
#X obj 459 89 b, f 2;
#X obj 487 133 b, f 2;
#X obj 299 799 outlet~, f 8;
#X obj 351 821 outlet~, f 8;
#X obj 404 799 outlet~, f 8;
#X obj 456 821 outlet~, f 8;
#X obj 509 799 outlet~, f 8;
#X obj 561 821 outlet~, f 8;
#X obj 614 799 outlet~, f 8;
#X obj 667 821 outlet~, f 8;
#X obj 779 609 receive sampleRate, f 21;
#X obj 633 722 note 62 7 Inter empty 0 200 200 200 0 228 228 228 0 2 sr: 0 Hz;
#N canvas 733 172 450 300 formatSampleRate 0;
#X obj 139 79 tosymbol;
#X msg 139 199 set \$1;
#X obj 139 169 tosymbol;
#X obj 39 169 b;
#X msg 39 199 prepend sr:;
#X obj 219 169 b;
#X msg 219 199 append Hz;
#X obj 139 39 inlet;
#X obj 139 299 outlet;
#X connect 0 0 2 0 32.................j..........I.........bD....;
#X connect 0 0 5 0 32.................X....zD....F....MA...bD....;
#X connect 0 0 3 0 32.................W....n4++++E....Z9+++eD....;
#X connect 1 0 8 0 32.................Z.........fF.........LC....;
#X connect 2 0 1 0 32.................F.........fA.........r.....;
#X connect 3 0 4 0 32.................F....L....fA....C....r.....;
#X connect 4 0 8 0 32.................Z....PF...fF....jA...LC....;
#X connect 5 0 6 0 32.................F....L....fA....C....r.....;
#X connect 6 0 8 0 32.................Z....D6+++uF....w9+++OC....;
#X connect 7 0 0 0 32.................K.........vB.........TA....;
#X restore 779 679 pd formatSampleRate;
#X f 22;
#X obj 409 722 note 49 7 Inter empty 0 200 200 200 0 228 228 228 0 0 Palette v0.6.0;
#X obj 399 523 r numDACs, f 12;
#X obj 549 523 r DACDepth, f 12;
#X obj 689 523 r numADCs, f 12;
#X obj 849 523 r ADCDepth, f 12;
#N canvas 733 172 450 300 formatNumDACs 0;
#X obj 139 79 tosymbol;
#X msg 139 199 set \$1;
#X obj 139 169 tosymbol;
#X obj 219 169 b;
#X obj 139 39 inlet;
#X obj 139 299 outlet;
#X msg 219 199 append DACs;
#X connect 0 0 2 0 32.................j..........I.........bD....;
#X connect 0 0 3 0 32.................X....zD....F....MA...bD....;
#X connect 1 0 5 0 32.................Z.........fF.........LC....;
#X connect 2 0 1 0 32.................F.........fA.........r.....;
#X connect 3 0 6 0 32.................F....L....fA....C....r.....;
#X connect 4 0 0 0 32.................K.........vB.........TA....;
#X connect 6 0 5 0 32.................Z....D6+++uF....w9+++OC....;
#X restore 399 553 pd formatNumDACs;
#X f 19;
#N canvas 733 172 450 300 formatDACDepth 0;
#X obj 139 79 tosymbol;
#X msg 139 199 set \$1;
#X obj 139 169 tosymbol;
#X obj 219 169 b;
#X obj 139 39 inlet;
#X obj 139 299 outlet;
#X msg 219 199 append bit;
#X connect 0 0 2 0 32.................j..........I.........bD....;
#X connect 0 0 3 0 32.................X....zD....F....MA...bD....;
#X connect 1 0 5 0 32.................Z.........fF.........LC....;
#X connect 2 0 1 0 32.................F.........fA.........r.....;
#X connect 3 0 6 0 32.................F....L....fA....C....r.....;
#X connect 4 0 0 0 32.................K.........vB.........TA....;
#X connect 6 0 5 0 32.................Z....D6+++uF....w9+++OC....;
#X restore 549 553 pd formatDACDepth;
#X f 19;
#N canvas 733 172 450 300 formatNumADCs 0;
#X obj 139 79 tosymbol;
#X msg 139 199 set \$1;
#X obj 139 169 tosymbol;
#X obj 219 169 b;
#X obj 139 39 inlet;
#X obj 139 299 outlet;
#X msg 219 199 append ADCs;
#X connect 0 0 2 0 32.................j..........I.........bD....;
#X connect 0 0 3 0 32.................X....zD....F....MA...bD....;
#X connect 1 0 5 0 32.................Z.........fF.........LC....;
#X connect 2 0 1 0 32.................F.........fA.........r.....;
#X connect 3 0 6 0 32.................F....L....fA....C....r.....;
#X connect 4 0 0 0 32.................K.........vB.........TA....;
#X connect 6 0 5 0 32.................Z....D6+++uF....w9+++OC....;
#X restore 689 553 pd formatNumADCs;
#X f 19;
#N canvas 733 172 450 300 formatADCDepth 0;
#X obj 139 79 tosymbol;
#X msg 139 199 set \$1;
#X obj 139 169 tosymbol;
#X obj 219 169 b;
#X obj 139 39 inlet;
#X obj 139 299 outlet;
#X msg 219 199 append bit;
#X connect 0 0 2 0 32.................j..........I.........bD....;
#X connect 0 0 3 0 32.................X....zD....F....MA...bD....;
#X connect 1 0 5 0 32.................Z.........fF.........LC....;
#X connect 2 0 1 0 32.................F.........fA.........r.....;
#X connect 3 0 6 0 32.................F....L....fA....C....r.....;
#X connect 4 0 0 0 32.................K.........vB.........TA....;
#X connect 6 0 5 0 32.................Z....D6+++uF....w9+++OC....;
#X restore 849 553 pd formatADCDepth;
#X f 19;
#X obj 470 722 note 33 7 Inter empty 0 200 200 200 0 228 228 228 0 0 8 DACs;
#X obj 495 722 note 27 7 Inter empty 0 200 200 200 0 228 228 228 0 0 12 bit;
#X obj 531 722 note 33 7 Inter empty 0 200 200 200 0 228 228 228 0 0 8 ADCs;
#X obj 555 722 note 27 7 Inter empty 0 200 200 200 0 228 228 228 0 0 12 bit;
#X obj 229 523 r paletteVersion, f 16;
#N canvas 733 172 450 300 formatPaletteVersion 0;
#X obj 139 79 tosymbol;
#X msg 139 199 set \$1;
#X obj 139 169 tosymbol;
#X obj 19 169 b;
#X obj 139 39 inlet;
#X obj 139 299 outlet;
#X msg 19 199 prepend Palette;
#X connect 0 0 2 0 32.................j..........I.........bD....;
#X connect 0 0 3 0 32.................W....n4++++E....Z9+++eD....;
#X connect 1 0 5 0 32.................Z.........fF.........LC....;
#X connect 2 0 1 0 32.................F.........fA.........r.....;
#X connect 3 0 6 0 32.................F....L....fA....C....r.....;
#X connect 4 0 0 0 32.................K.........vB.........TA....;
#X connect 6 0 5 0 32.................Z....PF...fF....jA...LC....;
#X restore 229 553 pd formatPaletteVersion;
#X f 23;
#X obj 475 294 comport, f 10;
#X obj 945 679 receive serialIsOpen, f 21;
#X obj 127 698 hradio 10 1 0 2 empty empty Connect\ to\ Palette 25 5 0 7 #e4e4e4 #4d4d4d #ffffff 0;
#X obj 719 209 spigot;
#X obj 484 89 spigot, f 6;
#X obj 839 169 r serialIsOpen, f 12;
#X obj 538 69 receive closePalette, f 19;
#N canvas 733 172 450 300 openPalette 0;
#X obj 100 55 receive serialIsOpen;
#X obj 56 55 inlet;
#X obj 56 114 >;
#X obj 121 114 <;
#X obj 56 171 send openSerial;
#X connect 0 0 3 1 32.................T.....B....E....f....fB....;
#X connect 0 0 2 1 32.................T.....9+++OE....f++++iB....;
#X connect 1 0 2 0 32.................T..........E.........fB....;
#X connect 1 0 3 0 32.................I....DD...PB....AA...fB....;
#X restore 809 729 pd openPalette;
#X f 17;
#X obj 81 874 scope~ 200 100 2 3 256 -0 1 0 0 0 0 77 77 77 228 228 228 183 183 183 0 empty;
#N canvas 733 172 450 300 testSignal8 0;
#X obj 74 314 rescale~;
#X obj 144 314 rescale~;
#X obj 214 314 rescale~;
#X obj 284 314 rescale~;
#X obj 354 314 rescale~;
#X obj 424 314 rescale~;
#X obj 494 314 rescale~;
#X obj 564 314 rescale~;
#X obj 144 274 osc~ 2;
#X obj 214 274 osc~ 1;
#X obj 284 274 osc~ 0.5;
#X obj 354 274 osc~ 0.25;
#X obj 424 274 osc~ 0.125;
#X obj 494 274 osc~ 0.0625;
#X obj 599 274 osc~ 0.03125;
#X floatatom 49 124 5 0 0 3 Hz - - 0;
#X obj 149 204 + 0.125;
#X obj 224 204 + 0.125;
#X obj 299 204 + 0.125;
#X obj 374 204 + 0.125;
#X obj 449 204 + 0.125;
#X obj 524 204 + 0.125;
#X obj 599 204 + 0.125;
#X floatatom 100 124 5 0 0 3 Phase - - 0;
#X obj 599 399 outlet~;
#X obj 524 399 outlet~;
#X obj 449 399 outlet~;
#X obj 374 399 outlet~;
#X obj 299 399 outlet~;
#X obj 224 399 outlet~;
#X obj 149 399 outlet~;
#X obj 74 399 outlet~;
#X obj 140 85 bang;
#X obj 74 274 osc~;
#X msg 47 48 1;
#X obj 49 19 loadbang;
#X connect 0 0 31 0;
#X connect 1 0 30 0;
#X connect 2 0 29 0;
#X connect 3 0 28 0;
#X connect 4 0 27 0;
#X connect 5 0 26 0;
#X connect 6 0 25 0;
#X connect 7 0 24 0;
#X connect 8 0 1 0;
#X connect 9 0 2 0;
#X connect 10 0 3 0;
#X connect 11 0 4 0;
#X connect 12 0 5 0;
#X connect 13 0 6 0;
#X connect 14 0 7 0;
#X connect 15 0 8 0;
#X connect 15 0 9 0;
#X connect 15 0 10 0;
#X connect 15 0 11 0;
#X connect 15 0 12 0;
#X connect 15 0 13 0;
#X connect 15 0 14 0;
#X connect 15 0 33 0;
#X connect 15 0 23 0;
#X connect 16 0 8 1;
#X connect 16 0 17 0;
#X connect 17 0 9 1;
#X connect 17 0 18 0;
#X connect 18 0 10 1;
#X connect 18 0 19 0;
#X connect 19 0 11 1;
#X connect 19 0 20 0;
#X connect 20 0 12 1;
#X connect 20 0 21 0;
#X connect 21 0 13 1;
#X connect 21 0 22 0;
#X connect 22 0 14 1;
#X connect 23 0 33 1;
#X connect 23 0 16 0;
#X connect 23 0 32 0;
#X connect 32 0 23 0;
#X connect 33 0 0 0;
#X connect 34 0 15 0;
#X connect 35 0 34 0;
#X coords 0 0 1 1 93 54 1 43 110;
#X restore 129 319 pd testSignal8;
#X msg 379 119 open 3;
#X connect 1 0 54 0 48.................Z....HC...fF....x....zF....X....sA....F....1....;
#X connect 3 0 54 0 32.................G.....F...vA....fA...PF....;
#X connect 3 0 8 1 32.................K....3D...vB....NA...PA....;
#X connect 7 0 11 0;
#X connect 8 0 54 0 32.................t....DG...fK....wA...zC....;
#X connect 11 0 57 0;
#X connect 12 0 11 1 80.................B....Tw...f.....UL...zt+++eiB...s6+++2n...vv8+++MI...Lb+++eSB...P2++++e....z8++++G...jc+++O;
#X connect 13 0 28 0;
#X connect 13 0 62 0;
#X connect 13 1 29 0;
#X connect 13 2 30 0;
#X connect 13 3 31 0;
#X connect 13 4 32 0;
#X connect 13 5 33 0;
#X connect 13 6 34 0;
#X connect 13 7 35 0;
#X connect 14 0 12 0;
#X connect 22 0 9 0 32.................e....3....vG....N....DB....;
#X connect 22 0 23 0 32.................e....L5++++G....i9+++GB....;
#X connect 22 1 10 0 32.................W....TH...vE....EB...LA....;
#X connect 22 2 13 0 48.................NB...zf+++ui....M3+++KV...P89+++hE...Tu+++eXA...;
#X connect 25 0 26 0;
#X connect 25 1 58 0;
#X connect 26 0 64 0 32.................C....P6++++.....z9+++u.....;
#X connect 27 0 3 0 32.................P....f4+++OD....X9+++eA....;
#X connect 36 0 38 0 32.................e.........vG.........LC....;
#X connect 38 0 37 0 32.................V....nu+++uE....56+++aA....;
#X connect 40 0 44 0;
#X connect 41 0 45 0;
#X connect 42 0 46 0;
#X connect 43 0 47 0;
#X connect 44 0 48 0;
#X connect 45 0 49 0;
#X connect 46 0 50 0;
#X connect 47 0 51 0;
#X connect 52 0 53 0;
#X connect 53 0 39 0;
#X connect 54 0 22 0 32.................t.........fK.........DC....;
#X connect 54 1 2 0 48.................V....jA...fE....Y....b9+++eL....m++++GC...f6++++;
#X connect 55 0 24 0 32.................R....Lr+++uD....C6+++qA....;
#X connect 57 0 54 0 32.................d....zv+++uG....M7+++KD....;
#X connect 58 0 27 0;
#X connect 59 0 57 1 32.................L.....5+++OC....f9+++WA....;
#X connect 63 0 12 0;
#X connect 63 1 12 1;
#X connect 63 2 12 2;
#X connect 63 3 12 3;
#X connect 63 4 12 4;
#X connect 63 5 12 5;
#X connect 63 6 12 6;
#X connect 63 7 12 7;
#X connect 64 0 54 0 32.................U.....F...PE....fA...vI....;
#X connect 64 0 8 0 32.................V.....++++uE....v++++yD....;
#X coords 0 0 1 1 396 101 1 297 677;
