#N canvas 827 239 734 565 12;
#X obj 307 261 EaselControlRateOutputPanelASCII;
#X obj 439 149 scale~ -1 1 0 1;
#X obj 589 149 scale~ -1 1 0 1;
#X obj 719 149 scale~ -1 1 0 1;
#X obj 719 109 osc~ 40;
#X obj 531 77 *~;
#X obj 589 109 osc~ 21.3;
#X obj 439 109 osc~ 19.7;
#X obj 194 216 knob 50 0 1 0 0 empty empty #E4E4E4 #B7B7B7 #4D4D4D 1 0 0 0 1 120 0 0 0;
#X obj 199 179 sig2float~;
#X obj 449 29 /~ 1;
#X obj 913 373 grain.sampler~;
#X floatatom 389 459 11 0 0 0 - - - 10;
#X obj 389 429 sig2float~;
#X obj 499 426 * 4;
#X obj 309 136 +~;
#X obj 225 111 /~ 2;
#X obj 868 202 adc~;
#X obj 869 249 env~;
#X obj 1229 221 vsl 17 128 2 0.02 1 0 empty empty empty 0 -9 0 10 #e4e4e4 #4d4d4d #373737 0 1;
#X floatatom 908 311 5 0 0 0 - - - 0;
#X obj 919 234 - 35;
#X obj 969 309 sig~;
#X obj 1064 394 log;
#X obj 349 189 +~;
#X obj 349 219 /~ 2;
#X obj 1056 346 abs~;
#X obj 769 209 lowpass~ 10;
#X obj 971 228 scale 40 60 0 1;
#X obj 1101 205 pow 2;
#X obj 1127 298 abs;
#X obj 868 344 scale~ -2 0 0 1 2;
#X obj 309 189 /~ 1;
#X msg 227 321 0;
#X obj 199 297 vsl 21 185 0 5 0 0 empty empty empty 0 -9 0 10 #e4e4e4 #4d4d4d #373737 0 1;
#X floatatom 254 467 9 0 0 0 - - - 12;
#X obj 239 406 / 5;
#X obj 180 297 vsl 15 185 0 127 0 0 empty empty empty 0 -9 0 10 #e4e4e4 #4d4d4d #373737 0 1;
#X obj 162 297 vsl 15 185 0 127 0 0 empty empty empty 0 -9 0 10 #e4e4e4 #4d4d4d #373737 0 1;
#X obj 143 297 vsl 15 185 0 127 0 0 empty empty empty 0 -9 0 10 #e4e4e4 #4d4d4d #373737 0 1;
#X obj 309 89 scale~ -1 1 0 1;
#X obj 309 49 osc~ 0.25;
#X connect 0 5 13 0 32.................V....jx+++uE....o7+++KD....;
#X connect 1 0 0 1;
#X connect 1 0 5 0;
#X connect 2 0 0 4;
#X connect 2 0 5 1;
#X connect 2 0 7 0;
#X connect 3 0 0 5;
#X connect 3 0 6 0;
#X connect 3 0 5 1;
#X connect 4 0 3 0;
#X connect 5 0 10 0;
#X connect 6 0 2 0;
#X connect 7 0 1 0;
#X connect 9 0 8 0;
#X connect 13 0 12 0;
#X connect 15 0 32 0;
#X connect 17 0 18 0;
#X connect 18 0 20 0;
#X connect 18 0 21 0;
#X connect 21 0 28 0;
#X connect 22 0 31 0;
#X connect 24 0 25 0;
#X connect 27 0 24 1;
#X connect 28 0 22 0;
#X connect 28 0 29 0;
#X connect 29 0 19 0;
#X connect 31 0 27 0;
#X connect 32 0 9 0;
#X connect 32 0 0 0;
#X connect 33 0 0 0;
#X connect 34 0 36 0;
#X connect 34 0 35 0;
#X connect 36 0 0 0;
#X connect 40 0 15 0;
#X connect 41 0 40 0;
