#N canvas 827 239 985 913 12;
#X obj 291 671 cnv 15 409 119 empty empty empty 20 12 0 14 #333333 #333333 0;
#X msg 379 59 devices;
#N canvas 733 172 450 300 connectionInfo 1;
#X floatatom 278 215 10 0 0 3 baud\ (ignored\ by\ USB) - - 8;
#X floatatom 369 148 3 0 0 3 parity - - 0;
#X floatatom 399 176 3 0 0 2 stop - - 0;
#X floatatom 429 151 3 0 0 3 data - - 0;
#X floatatom 521 176 3 0 0 0 port - - 0;
#X obj 460 176 tgl 15 0 empty empty rts/cts -10 20 1 11 #14e814 #fc2828 #000000 0 1;
#X obj 490 151 tgl 15 0 empty empty xon/xoff -14 20 1 11 #14e814 #fc2828 #000000 0 1;
#X obj 308 148 tgl 15 0 empty empty dsr 0 20 1 11 #14e814 #fc2828 #000000 0 1;
#X obj 338 176 tgl 15 0 empty empty cts 0 20 1 11 #14e814 #fc2828 #000000 0 1;
#X obj 126 199 tgl 15 0 empty empty Palette\ Connected -27 -7 1 8 #372d00 #ffbc25 #000000 0 1;
#X obj 577 224 print port_list;
#X obj 612 190 tgl 15 0 empty empty hupcl -6 20 1 11 #14e814 #fc2828 #000000 0 1;
#X floatatom 638 151 5 0 0 1 rxerrors - - 0;
#X obj 274 74 route baud dsr cts parity stop data rtscts xonxoff port open ports hupcl rxerrors;
#X obj 274 30 inlet;
#X obj 709 229 s closePalette;
#X obj 819 229 s closePalette;
#X obj 547 262 s serialIsOpen;
#X obj 482 231 loadbang;
#X obj 460 231 bng 18 250 50 0 empty empty empty 17 7 0 10 #e4e4e4 #4d4d4d #373737;
#X floatatom 460 262 5 0 0 0 - - - 0;
#X obj 819 199 sel Retrying;
#X obj 709 199 sel -1;
#X obj 698 124 print Serial\ Error;
#X symbolatom 781 312 15 0 0 0 - - - 0;
#X floatatom 697 309 5 0 0 0 - - - 0;
#X connect 13 0 0 0;
#X connect 13 1 7 0;
#X connect 13 2 8 0;
#X connect 13 3 1 0;
#X connect 13 4 2 0;
#X connect 13 5 3 0;
#X connect 13 6 5 0;
#X connect 13 7 6 0;
#X connect 13 8 4 0;
#X connect 13 9 17 0 32.................aB...3A...vl....d....XJ....;
#X connect 13 9 9 0 32.................U....bk+++eE....W4+++yE....;
#X connect 13 10 10 0;
#X connect 13 11 11 0;
#X connect 13 12 12 0;
#X connect 13 13 22 0 32.................o....fB...PJ....n....rE....;
#X connect 13 13 23 0 32.................H....zA....B....c.....A....;
#X connect 14 0 13 0;
#X connect 18 0 20 0 32.................F....r9+++uA....q++++y.....;
#X connect 19 0 20 0 32.................G....P....vA....D....z.....;
#X connect 20 0 17 0 48.................E....zA...PA....c....f9++++U....n++++eE...v6++++;
#X connect 21 0 16 0 32.................E.........PA.........r.....;
#X connect 22 0 15 0 32.................G.........vA.........r.....;
#X connect 22 1 21 0 48......................bB.........m....39+++OW....t++++yE...f6++++;
#X connect 22 1 24 0;
#X connect 22 1 25 0;
#X coords 0 0 1 1 78 34 2 94 186;
#X restore 574 294 pd connectionInfo;
#X msg 379 175 close;
#X obj 179 61 note 165 14 Inter empty 0 55 55 55 0 228 228 228 0 2 Check which device is the Palette and correct the number under Open.;
#X obj 179 119 note 165 14 Inter empty 0 55 55 55 0 228 228 228 0 2 Open the serial port with the number you've set;
#X obj 179 169 note 165 14 Inter empty 0 55 55 55 0 228 228 228 0 2 Close the serial port;
#X obj 719 119 receive receiveComplete;
#N canvas 733 172 788 664 comportSetup 1;
#X msg 272 271 info;
#X obj 186 217 del 10;
#X obj 189 166 b;
#X obj 272 368 outlet;
#X obj 186 67 inlet;
#X msg 79 269 pollintervall 1 retries 0;
#X connect 0 0 3 0 32.................l....f++++uI....3+++++D....;
#X connect 1 0 0 0 32.................K....DH...vB....AB...HA....;
#X connect 2 0 1 0 32.................C....L....v.....C....X.....;
#X connect 2 0 5 0 32.................P....X4+++OD....V9+++SE....;
#X connect 4 0 2 0;
#X connect 5 0 3 0 32.................CA...DL...vP....AC....E....;
#X restore 359 209 pd comportSetup;
#N canvas 733 172 450 300 Palette 0;
#X symbolatom 186 241 7 0 0 0 - - - 8;
#X floatatom 186 261 2 0 0 0 - - - 8;
#X floatatom 211 261 2 0 0 0 - - - 8;
#X floatatom 186 281 2 0 0 0 - - - 8;
#X floatatom 211 281 2 0 0 0 - - - 8;
#X obj 159 149 unpack s f f f f;
#X obj 319 259 s numDACs;
#X obj 299 279 s DACDepth;
#X obj 329 339 s numADCs;
#X obj 309 359 s ADCDepth;
#X obj 29 149 delay 1000;
#X obj 179 19 inlet;
#X obj 309 209 send paletteVersion;
#X obj 29 19 receive serialIsOpen;
#X obj 29 59 b;
#X obj 70 398 outlet;
#X obj 119 399 outlet;
#X obj 169 399 outlet;
#X obj 219 399 outlet;
#X obj 269 399 outlet;
#X obj 29 109 spigot;
#X msg 49 229 0;
#X obj 55 62 != 1;
#X msg 49 199 set ❌;
#X connect 0 0 12 0 48.................E....rE...PA....aA...z7+++Of....M++++CH...vz++++;
#X connect 1 0 6 0 48......................7E.........eA...n9++++h....p++++uH....7++++;
#X connect 2 0 7 0 32......................3E.........dA...L.....;
#X connect 3 0 8 0 32.................a....DI...vF....QB...LB....;
#X connect 4 0 9 0 32.................q....fF...vJ....nA...7C....;
#X connect 5 0 0 0;
#X connect 5 0 15 0 32.................3....f5+++ON....n9+++aN....;
#X connect 5 1 1 0;
#X connect 5 1 16 0 32.................7....b7+++OO....G++++eN....;
#X connect 5 2 2 0;
#X connect 5 2 17 0 32.................5....b9+++uN....m++++eN....;
#X connect 5 3 3 0;
#X connect 5 3 18 0 32.................2....X....vM....F....bN....;
#X connect 5 4 4 0;
#X connect 5 4 19 0 32.................a....XB...vF....l....bN....;
#X connect 10 0 23 0 32.................a....3A...vF....d....7A....;
#X connect 10 0 21 0 32.................5....HA...fN....R....zC....;
#X connect 11 0 5 0 32.................3....z9+++ON....s+++++F....;
#X connect 13 0 22 0 32.................L....nA....C....Z....fA....;
#X connect 13 0 14 0 32.................K....3+++++B....9++++WA....;
#X connect 14 0 20 0 32.................P....L.....D....C....7A....;
#X connect 20 0 10 0;
#X connect 21 0 1 0;
#X connect 21 0 2 0;
#X connect 21 0 3 0;
#X connect 21 0 4 0;
#X connect 22 0 20 1 32.................N....3++++uC....9++++yA....;
#X connect 23 0 0 0;
#X coords 0 0 1 1 41 60 2 184 239;
#X restore 489 399 pd Palette Specs;
#N canvas 733 172 450 300 formatPacket 0;
#X obj 79 129 list store;
#X obj 79 179 list trim;
#X obj 79 229 fudiformat -u;
#X obj 79 279 list append 13;
#X obj 79 59 inlet;
#X obj 159 59 inlet;
#X obj 79 329 outlet;
#X obj 159 99 spigot;
#X obj 239 59 receive serialIsOpen;
#X connect 0 0 1 0;
#X connect 1 0 2 0;
#X connect 2 0 3 0;
#X connect 3 0 6 0;
#X connect 4 0 0 0;
#X connect 5 0 7 0;
#X connect 7 0 0 1 32.................F....T8+++uA....U++++u.....;
#X connect 8 0 7 1 32.................L....f7+++OC....H++++WA....;
#X restore 719 169 pd formatPacket;
#N canvas 733 172 450 300 (subpatch) 0;
#X obj 189 129 EaselControlRateOutputTile;
#X obj 239 129 EaselControlRateOutputTile;
#X obj 289 129 EaselControlRateOutputTile;
#X obj 339 129 EaselControlRateOutputTile;
#X obj 389 129 EaselControlRateOutputTile;
#X obj 439 129 EaselControlRateOutputTile;
#X obj 489 129 EaselControlRateOutputTile;
#X obj 539 129 EaselControlRateOutputTile;
#X obj 79 279 list append;
#X obj 159 279 list append;
#X obj 239 279 list append;
#X obj 319 279 list append;
#X obj 399 279 list append;
#X obj 479 279 list append;
#X obj 559 279 list append;
#X obj 79 229 tosymbol;
#X obj 159 229 tosymbol;
#X obj 239 229 tosymbol;
#X obj 319 229 tosymbol;
#X obj 399 229 tosymbol;
#X obj 479 229 tosymbol;
#X obj 559 229 tosymbol;
#X obj 639 229 tosymbol;
#X obj 639 279 list append;
#X obj 189 19 inlet~;
#X obj 239 19 inlet~;
#X obj 289 19 inlet~;
#X obj 339 19 inlet~;
#X obj 389 19 inlet~;
#X obj 439 19 inlet~;
#X obj 489 19 inlet~;
#X obj 539 19 inlet~;
#X obj 79 346 outlet;
#X connect 0 0 15 0 32.................N....zz+++uC....M8+++yA....;
#X connect 1 0 16 0 32.................b....D6+++OG....w9+++6C....;
#X connect 2 0 17 0 32.................j....77+++OI....O++++6C....;
#X connect 3 0 18 0 32.................r....z9+++OK....s++++6C....;
#X connect 4 0 19 0 32.................n....n.....J....J....3C....;
#X connect 5 0 20 0 32.................i....fB...vH....n....3C....;
#X connect 6 0 21 0 32.................a....XD...vF....FA...3C....;
#X connect 7 0 22 0 32.................J....zJ...fB....sB...zA....;
#X connect 8 0 32 0;
#X connect 9 0 8 1;
#X connect 10 0 9 1;
#X connect 11 0 10 1;
#X connect 12 0 11 1;
#X connect 13 0 12 1;
#X connect 14 0 13 1;
#X connect 15 0 8 0;
#X connect 16 0 9 0;
#X connect 17 0 10 0;
#X connect 18 0 11 0;
#X connect 19 0 12 0;
#X connect 20 0 13 0;
#X connect 21 0 14 0;
#X connect 22 0 23 0;
#X connect 23 0 14 1;
#X connect 24 0 0 0 32.................IA...PK...PR....zB...rE....;
#X connect 25 0 1 0 32.................AA...HH...PP....BB...rE....;
#X connect 26 0 2 0 32.................5.....E...fN....PA...rE....;
#X connect 27 0 3 0 32.................1....3A...fM....d....rE....;
#X connect 28 0 4 0 32.................0....z9+++eM....s++++uE....;
#X connect 29 0 5 0 32.................1....r6+++uM....69+++uE....;
#X connect 30 0 6 0 32.................AA...j3+++eP....I9+++uE....;
#X connect 31 0 7 0 32.................LA...b0+++OS....W8+++uE....;
#X coords 0 0 1 1 392 42 1 187 127;
#X restore 299 679 pd;
#N canvas 733 172 450 300 (subpatch) 0;
#X obj 29 69 unpack f f f f f f f f;
#X floatatom 29 109 5 0 0 0 - - - 0;
#X floatatom 59 109 5 0 0 0 - - - 0;
#X floatatom 89 109 5 0 0 0 - - - 0;
#X floatatom 119 109 5 0 0 0 - - - 0;
#X floatatom 149 109 5 0 0 0 - - - 0;
#X floatatom 179 109 5 0 0 0 - - - 0;
#X floatatom 209 109 5 0 0 0 - - - 0;
#X floatatom 239 109 5 0 0 0 - - - 0;
#N canvas 733 172 450 300 resetOnClose 0;
#X obj 43 37 r closePalette;
#X obj 43 96 outlet;
#X msg 43 63 set 0;
#X connect 0 0 2 0;
#X connect 2 0 1 0;
#X restore 282 69 pd resetOnClose;
#X obj 29 259 scope~ 38 38 18 3 256 -1 4095 0 0 0 2048 255 204 0 153 153 153 194 182 53 0 empty;
#X obj 29 179 sig~;
#X obj 29 19 inlet;
#X obj 9 429 outlet~;
#X obj 79 259 scope~ 38 38 18 3 256 -1 4095 0 0 0 2048 255 204 0 153 153 153 194 182 53 0 empty;
#X obj 79 179 sig~;
#X obj 129 259 scope~ 38 38 18 3 256 -1 4095 0 0 0 2048 255 204 0 153 153 153 194 182 53 0 empty;
#X obj 129 179 sig~;
#X obj 179 259 scope~ 38 38 18 3 256 -1 4095 0 0 0 2048 255 204 0 153 153 153 194 182 53 0 empty;
#X obj 179 179 sig~;
#X obj 229 259 scope~ 38 38 18 3 256 -1 4095 0 0 0 2048 255 204 0 153 153 153 194 182 53 0 empty;
#X obj 229 179 sig~;
#X obj 279 259 scope~ 38 38 18 3 256 -1 4095 0 0 0 2048 255 204 0 153 153 153 194 182 53 0 empty;
#X obj 279 179 sig~;
#X obj 329 259 scope~ 38 38 18 3 256 -1 4095 0 0 0 2048 255 204 0 153 153 153 194 182 53 0 empty;
#X obj 329 179 sig~;
#X obj 379 259 scope~ 38 38 18 3 256 -1 4095 0 0 0 2048 255 204 0 153 153 153 194 182 53 0 empty;
#X obj 379 179 sig~;
#X obj 9 399 scale~ 0 4095 0 1;
#X obj 59 359 outlet~;
#X obj 59 329 scale~ 0 4095 0 1;
#X obj 159 429 outlet~;
#X obj 159 399 scale~ 0 4095 0 1;
#X obj 209 359 outlet~;
#X obj 209 329 scale~ 0 4095 0 1;
#X obj 309 429 outlet~;
#X obj 309 399 scale~ 0 4095 0 1;
#X obj 359 359 outlet~;
#X obj 359 329 scale~ 0 4095 0 1;
#X obj 469 429 outlet~;
#X obj 469 399 scale~ 0 4095 0 1;
#X obj 489 359 outlet~;
#X obj 489 329 scale~ 0 4095 0 1;
#N canvas 733 172 450 300 smallLevelMeter 0;
#X obj 221 148 cnv 15 13 37 empty empty empty 20 12 0 14 #333333 #373737 0;
#X obj 223 150 cnv 15 9 9 empty redLight empty 20 12 0 14 #ff3300 #373737 0;
#X obj 223 174 cnv 10 9 9 empty whiteLight empty 20 12 0 14 #ffffff #373737 0;
#X obj 223 162 cnv 15 9 9 empty yellowLight empty 20 12 0 14 #fae200 #373737 0;
#X obj 189 39 inlet~;
#N canvas 0 22 450 300 whiteLight 0;
#X restore 222 110 pd whiteLight;
#N canvas 0 22 450 300 yellowLight 0;
#X restore 223 89 pd yellowLight;
#N canvas 0 22 450 300 redLight 0;
#X restore 223 66 pd redLight;
#X coords 0 0 1 1 17 41 2 219 146;
#X restore 783 369 pd smallLevelMeter;
#X connect 0 0 1 0 32.................M....D8+++eC....Q++++mA....;
#X connect 0 1 2 0 32.................R....z....fD....M....TA....;
#X connect 0 2 3 0 32.................S....nA...vD....Z....TA....;
#X connect 0 3 4 0 32.................Q....bB...PD....m....TA....;
#X connect 0 4 5 0 32.................O....PC...vC....z....TA....;
#X connect 0 5 6 0 32.................M....DD...PC....AA...TA....;
#X connect 0 6 7 0 32.................K....3D...vB....NA...TA....;
#X connect 0 7 8 0 32.................M....rB...PC....q....jA....;
#X connect 1 0 11 0 32.................Z.........fF.........PC....;
#X connect 2 0 15 0 32.................s....PA...PK....T....PC....;
#X connect 3 0 17 0 32.................p....fB...fJ....n....PC....;
#X connect 4 0 19 0 32.................m....vC...vI....7....PC....;
#X connect 5 0 21 0 32.................j.....E....I....PA...PC....;
#X connect 6 0 23 0 32.................g....PF...PH....jA...PC....;
#X connect 7 0 25 0 32.................d....fG...fG....3A...PC....;
#X connect 8 0 27 0 32.................Z....vH...fF....LB...PC....;
#X connect 9 0 8 0 32.................K....X8++++B....V++++WA....;
#X connect 9 0 7 0 32.................K....f6++++B....39+++WA....;
#X connect 9 0 6 0 32.................K....n4++++B....Z9+++WA....;
#X connect 9 0 5 0 32.................K....v2++++B....78+++WA....;
#X connect 9 0 4 0 32.................K....30++++B....d8+++WA....;
#X connect 9 0 3 0 32.................K.....z++++B.....8+++WA....;
#X connect 9 0 2 0 32.................K....Hx++++B....h7+++WA....;
#X connect 9 0 1 0 32.................K....Pv++++B....D7+++WA....;
#X connect 11 0 10 0;
#X connect 11 0 28 0 32.................v....b++++OL....2++++uJ....;
#X connect 12 0 0 0;
#X connect 15 0 14 0;
#X connect 15 0 30 0 32.................0....z9+++eM....s++++OH....;
#X connect 17 0 16 0;
#X connect 17 0 32 0 32.................1....PA...fM....T....jL....;
#X connect 19 0 18 0;
#X connect 19 0 34 0 32.................z....PA....M....T....LH....;
#X connect 21 0 20 0;
#X connect 21 0 36 0 32.................2....XD...vM....FA...jL....;
#X connect 23 0 22 0;
#X connect 23 0 38 0 32.................s....XD...PK....FA...LH....;
#X connect 25 0 24 0;
#X connect 25 0 40 0 48.................h....vE...fH....bA...LD...fa....CA...3F...Px....;
#X connect 27 0 26 0;
#X connect 27 0 42 0 32.................U....3F...PE....tA...LH....;
#X connect 28 0 13 0;
#X connect 30 0 29 0;
#X connect 32 0 31 0;
#X connect 34 0 33 0;
#X connect 36 0 35 0;
#X connect 38 0 37 0;
#X connect 40 0 39 0;
#X connect 42 0 41 0;
#X coords 0 0 1 1 392 42 1 27 257;
#X restore 299 734 pd;
#X obj 299 629 inlet~;
#X obj 351 609 inlet~;
#X obj 404 629 inlet~;
#X obj 456 609 inlet~;
#X obj 509 629 inlet~;
#X obj 561 609 inlet~;
#X obj 614 629 inlet~;
#X obj 667 609 inlet~;
#N canvas 733 172 450 300 parsePacket 0;
#X obj 279 269 list trim;
#X obj 279 189 list trim;
#X obj 209 37 inlet;
#X obj 279 349 outlet;
#X obj 359 349 outlet;
#X obj 279 229 fudiparse -u;
#X listbox 349 269 63 0 0 0 - - - 8;
#X obj 309 59 note 252 14 Inter empty 0 55 55 55 0 228 228 228 0 0 Trim item-delimiting return (ASCII 13) out. Trim list-delimiting line feed (ASCII 10) out\\\, then send a bang to indicate that that's the whole packet.;
#X listbox 349 149 159 0 0 0 - - - 8;
#X obj 209 79 sel 10 13;
#X obj 279 309 route Palette;
#X obj 119 149 send receiveComplete;
#X obj 279 149 group;
#N canvas 733 172 450 300 sampleRate 0;
#X obj 69 119 timer;
#X floatatom 231 273 6 0 0 3 Sample\ Rate - - 10;
#X obj 63 273 s sampleRate;
#X obj 69 43 inlet;
#X obj 163 273 outlet;
#X obj 116 128 note 0 14 Inter empty 0 55 55 55 0 228 228 228 0 0 Count milliseconds between packets;
#X obj 119 159 note 212 14 Inter empty 0 55 55 55 0 228 228 228 0 0 Divide by 1000 to get Hz;
#X obj 69 158 /;
#X floatatom 19 119 4 0 0 0 - - - 16;
#X obj 69 194 avg;
#X obj 69 223 int;
#X connect 0 0 7 1 32.................J....r....fB....K....PA....;
#X connect 3 0 0 1 32.................T.....A....E....P....fB....;
#X connect 3 0 0 0;
#X connect 3 0 8 0 32.................v....X7+++OL....F++++CF....;
#X connect 7 0 9 0 32.................I.....J...PB....fB...nB....;
#X connect 8 0 7 0 32.................I....HC...PB....x....DA....;
#X connect 9 0 10 0;
#X connect 10 0 2 0 32.................P....r++++OD....6+++++A....;
#X connect 10 0 4 0 32.................P....3E....D....dA...7A....;
#X connect 10 0 1 0 32.................K.....J...vB....fB....B....;
#X restore 19 149 pd sampleRate;
#X floatatom 19 179 8 0 0 0 - - - 10;
#X obj 69 179 note 0 14 Inter empty 0 55 55 55 0 228 228 228 0 0 Hz;
#X connect 0 0 10 0;
#X connect 0 0 6 0 48.................F....DC...fA....w....X9+++eP....l++++GD...f6++++;
#X connect 1 0 5 0;
#X connect 2 0 9 0;
#X connect 5 0 0 0;
#X connect 9 0 12 0 32.................q....XD...vJ....FA...LC....;
#X connect 9 0 11 0 32.................o....b5+++eJ....m9+++OC....;
#X connect 9 0 13 0 32.................h....Lz+++uH....C8+++OC....;
#X connect 9 2 12 0 32.................h....HB...fH....h....LC....;
#X connect 10 0 3 0 32.................D..........A.........TA....;
#X connect 10 1 4 0 32.................L....PA....C....T....TA....;
#X connect 12 0 1 0;
#X connect 12 0 8 0 48.................H....PC....B....z....n9+++eP....p++++GD...f6++++;
#X connect 13 0 14 0;
#X restore 489 362 pd parsePacket;
#X obj 299 799 outlet~;
#X obj 351 821 outlet~;
#X obj 404 799 outlet~;
#X obj 456 821 outlet~;
#X obj 509 799 outlet~;
#X obj 561 821 outlet~;
#X obj 614 799 outlet~;
#X obj 667 821 outlet~;
#X obj 779 645 receive sampleRate;
#N canvas 733 172 450 300 formatSampleRate 0;
#X obj 139 79 tosymbol;
#X msg 139 199 set \$1;
#X obj 139 169 tosymbol;
#X obj 39 169 b;
#X msg 39 199 prepend sr:;
#X obj 219 169 b;
#X msg 219 199 append Hz;
#X obj 139 39 inlet;
#X obj 139 299 outlet;
#X connect 0 0 2 0 32.................j..........I.........bD....;
#X connect 0 0 5 0 32.................X....zD....F....MA...bD....;
#X connect 0 0 3 0 32.................W....n4++++E....Z9+++eD....;
#X connect 1 0 8 0 32.................Z.........fF.........LC....;
#X connect 2 0 1 0 32.................F.........fA.........r.....;
#X connect 3 0 4 0 32.................F....L....fA....C....r.....;
#X connect 4 0 8 0 32.................Z....PF...fF....jA...LC....;
#X connect 5 0 6 0 32.................F....L....fA....C....r.....;
#X connect 6 0 8 0 32.................Z....D6+++uF....w9+++OC....;
#X connect 7 0 0 0 32.................K.........vB.........TA....;
#X restore 779 679 pd formatSampleRate;
#X obj 409 722 note 49 7 Inter empty 0 200 200 200 0 228 228 228 0 0 Palette 0.5.3;
#N canvas 733 172 450 300 formatNumDACs 0;
#X obj 139 79 tosymbol;
#X msg 139 199 set \$1;
#X obj 139 169 tosymbol;
#X obj 219 169 b;
#X obj 139 39 inlet;
#X obj 139 299 outlet;
#X msg 219 199 append DACs;
#X connect 0 0 2 0 32.................j..........I.........bD....;
#X connect 0 0 3 0 32.................X....zD....F....MA...bD....;
#X connect 1 0 5 0 32.................Z.........fF.........LC....;
#X connect 2 0 1 0 32.................F.........fA.........r.....;
#X connect 3 0 6 0 32.................F....L....fA....C....r.....;
#X connect 4 0 0 0 32.................K.........vB.........TA....;
#X connect 6 0 5 0 32.................Z....D6+++uF....w9+++OC....;
#X restore 329 549 pd formatNumDACs;
#N canvas 733 172 450 300 formatDACDepth 0;
#X obj 139 79 tosymbol;
#X msg 139 199 set \$1;
#X obj 139 169 tosymbol;
#X obj 219 169 b;
#X obj 139 39 inlet;
#X obj 139 299 outlet;
#X msg 219 199 append bit;
#X connect 0 0 2 0 32.................j..........I.........bD....;
#X connect 0 0 3 0 32.................X....zD....F....MA...bD....;
#X connect 1 0 5 0 32.................Z.........fF.........LC....;
#X connect 2 0 1 0 32.................F.........fA.........r.....;
#X connect 3 0 6 0 32.................F....L....fA....C....r.....;
#X connect 4 0 0 0 32.................K.........vB.........TA....;
#X connect 6 0 5 0 32.................Z....D6+++uF....w9+++OC....;
#X restore 479 549 pd formatDACDepth;
#N canvas 733 172 450 300 formatNumADCs 0;
#X obj 139 79 tosymbol;
#X msg 139 199 set \$1;
#X obj 139 169 tosymbol;
#X obj 219 169 b;
#X obj 139 39 inlet;
#X obj 139 299 outlet;
#X msg 219 199 append ADCs;
#X connect 0 0 2 0 32.................j..........I.........bD....;
#X connect 0 0 3 0 32.................X....zD....F....MA...bD....;
#X connect 1 0 5 0 32.................Z.........fF.........LC....;
#X connect 2 0 1 0 32.................F.........fA.........r.....;
#X connect 3 0 6 0 32.................F....L....fA....C....r.....;
#X connect 4 0 0 0 32.................K.........vB.........TA....;
#X connect 6 0 5 0 32.................Z....D6+++uF....w9+++OC....;
#X restore 619 549 pd formatNumADCs;
#N canvas 733 172 450 300 formatADCDepth 0;
#X obj 139 79 tosymbol;
#X msg 139 199 set \$1;
#X obj 139 169 tosymbol;
#X obj 219 169 b;
#X obj 139 39 inlet;
#X obj 139 299 outlet;
#X msg 219 199 append bit;
#X connect 0 0 2 0 32.................j..........I.........bD....;
#X connect 0 0 3 0 32.................X....zD....F....MA...bD....;
#X connect 1 0 5 0 32.................Z.........fF.........LC....;
#X connect 2 0 1 0 32.................F.........fA.........r.....;
#X connect 3 0 6 0 32.................F....L....fA....C....r.....;
#X connect 4 0 0 0 32.................K.........vB.........TA....;
#X connect 6 0 5 0 32.................Z....D6+++uF....w9+++OC....;
#X restore 779 549 pd formatADCDepth;
#X obj 470 722 note 33 7 Inter empty 0 200 200 200 0 228 228 228 0 0 8 DACs;
#X obj 495 722 note 27 7 Inter empty 0 200 200 200 0 228 228 228 0 0 12 bit;
#X obj 531 722 note 33 7 Inter empty 0 200 200 200 0 228 228 228 0 0 8 ADCs;
#X obj 555 722 note 27 7 Inter empty 0 200 200 200 0 228 228 228 0 0 12 bit;
#N canvas 733 172 450 300 formatPaletteVersion 0;
#X obj 139 79 tosymbol;
#X msg 139 199 set \$1;
#X obj 139 169 tosymbol;
#X obj 19 169 b;
#X obj 139 39 inlet;
#X obj 139 299 outlet;
#X msg 19 199 prepend Palette;
#X connect 0 0 2 0 32.................j..........I.........bD....;
#X connect 0 0 3 0 32.................W....n4++++E....Z9+++eD....;
#X connect 1 0 5 0 32.................Z.........fF.........LC....;
#X connect 2 0 1 0 32.................F.........fA.........r.....;
#X connect 3 0 6 0 32.................F....L....fA....C....r.....;
#X connect 4 0 0 0 32.................K.........vB.........TA....;
#X connect 6 0 5 0 32.................Z....PF...fF....jA...LC....;
#X restore 159 549 pd formatPaletteVersion;
#X obj 489 294 comport;
#X obj 9 599 receive serialIsOpen;
#X obj 719 219 spigot;
#X obj 839 169 r serialIsOpen;
#X obj 633 722 note 62 7 Inter empty 0 200 200 200 0 228 228 228 0 2 sr: 0 Hz;
#X obj 138 723 tgl 9 0 empty empty Palette\ connected 14 5 0 5 #044444 #ffcc00 #ccccc6 0 1;
#N canvas 733 172 450 300 checkConnectionStateOn 0;
#X obj 159 9 receive serialIsOpen;
#X obj 39 49 == 1;
#X obj 39 9 inlet;
#X obj 89 239 outlet;
#X obj 39 179 spigot;
#X obj 349 219 note 124 14 Inter empty 0 55 55 55 0 228 228 228 0 0 Only turn the Palette on if it's off\\\, or off if it's on.;
#X obj 239 179 spigot;
#X obj 209 49 == 1;
#X obj 159 49 == 0;
#X obj 89 49 == 0;
#X obj 89 79 == 0;
#X connect 0 0 8 0 32.................H..........B.........TA....;
#X connect 0 0 7 0 32.................K....HC...vB....x....TA....;
#X connect 1 0 4 0 32.................jA.........Y.........7F....;
#X connect 2 0 9 0 32.................K.....E...vB....PA...TA....;
#X connect 2 0 1 0 32.................K.........vB.........TA....;
#X connect 4 0 3 0 32.................P....HC....D....x....jB....;
#X connect 6 0 3 0 32.................P....r1+++OD....q8+++mB....;
#X connect 7 0 6 1 32.................HA...TC....R....0....7F....;
#X connect 8 0 4 1 32.................FA....5+++uQ....f9++++F....;
#X connect 9 0 10 0;
#X connect 10 0 6 0 32.................AA...XI...PP....VB...DE....;
#X restore 0 790 pd checkConnectionStateOn;
#N canvas 733 172 450 300 checkConnectionStateOff 0;
#X obj 139 99 inlet;
#X obj 139 179 outlet;
#X msg 139 139 set \$1;
#X connect 0 0 2 0;
#X connect 2 0 1 0;
#X restore 9 639 pd checkConnectionStateOff;
#X obj 589 59 receive closeSerial;
#X obj 0 819 == 0;
#X obj 119 849 send openSerial;
#X obj 119 819 == 1;
#X obj 0 849 send closeSerial;
#X obj 459 59 receive openSerial;
#N canvas 0 22 450 300 pollSerial 0;
#X obj 41 149 cnv 15 89 121 empty empty empty 20 12 0 14 #ce6039 #059fce 0;
#X obj 140 120 cnv 15 210 100 empty empty empty 20 12 0 14 #059fce #059fce 0;
#X obj 49 199 metro 100;
#X obj 49 299 prepend open;
#X obj 49 339 list trim;
#X obj 129 339 print;
#X obj 149 189 == 0;
#X floatatom 149 230 5 0 0 0 - - - 0;
#X obj 149 159 tgl 19 0 empty empty empty 17 7 0 10 #e4e4e4 #4d4d4d #373737 0 1;
#X obj 149 260 savestate;
#X obj 49 159 del 10;
#X obj 189 229 note 322 14 Inter empty 0 55 55 55 0 228 228 228 0 0 the last serial port that worked with this hardware setup;
#X obj 229 259 note 112 14 Inter empty 0 55 55 55 0 228 228 228 0 0 try that one first.;
#X obj 179 149 note 152 14 Inter empty 0 76 56 49 0 228 228 228 0 0 On openSerial\\\, if it's closed\\\, allow polling;
#X obj 49 99 inlet;
#X obj 49 419 outlet;
#X obj 49 29 note 331 27 Inter empty 1 55 55 55 0 255 204 0 1 0 Try the serial ports to see which one has a Palette on it.;
#X obj 313 305 initmess;
#X obj 49 239 count 98;
#X obj 149 129 inlet;
#X connect 2 0 18 0;
#X connect 3 0 4 0;
#X connect 4 0 5 0 48.................E....bC...PA....2....f9+++OT....n++++CE...f6++++;
#X connect 4 0 15 0;
#X connect 6 0 2 0 48.................F....78+++uA....e++++u9+++em++++q++++24+++O9++++;
#X connect 7 0 9 0;
#X connect 8 0 6 0 32.................A....L....P.....C....r.....;
#X connect 9 0 3 0 32.................J....z4+++uB....c9+++SA....;
#X connect 10 0 2 0;
#X connect 14 0 10 0;
#X connect 18 0 3 0;
#X connect 18 0 7 0 48.................H....LD....B....CA...D9+++OY....g++++SF...P4++++;
#X connect 19 0 8 0;
#X restore 469 99 pd pollSerial;
#X obj 462 24 bng 18 250 50 0 empty empty empty 17 7 0 10 #e4e4e4 #4d4d4d #373737;
#X msg 359 129 open 3;
#X listbox 837 258 130 0 0 0 - - - 0;
#X obj 501 33 s receiveComplete;
#N canvas 733 172 450 300 (subpatch) 0;
#X obj 69 159 tgl 25 0 empty empty empty 17 7 0 10 #eecc00 #4d4d4d #373737 0 1;
#X obj 69 9 inlet;
#X obj 69 119 line;
#X obj 149 39 bng 25 250 50 0 empty empty empty 17 7 0 10 #e4e4e4 #4d4d4d #373737;
#X msg 69 89 1 \, 0 500;
#X obj 65 159 note 32 20 Inter empty 0 148 115 0 0 228 228 228 0 0 Rx;
#X connect 1 0 4 0 32.................e.........vG.........zC....;
#X connect 2 0 0 0 32.................K.........vB.........TA....;
#X connect 3 0 4 0 32.................M....D6+++eC....w9+++mA....;
#X connect 4 0 2 0;
#X coords 0 0 1 1 27 27 1 68 158;
#X restore 673 157 pd;
#X msg 939 205 set;
#X obj 301 723 hradio 9 1 0 2 empty empty empty 0 -8 0 10 #e4e4e4 #4d4d4d #373737 0;
#N canvas 733 172 450 300 (subpatch) 1;
#X obj 109 199 bng 21 250 50 0 empty empty empty 17 7 0 10 #e4e4e4 #4d4d4d #373737;
#X obj 49 199 bng 21 250 50 0 empty empty empty 17 7 0 10 #e4e4e4 #4d4d4d #373737;
#X obj 49 169 == 0;
#X obj 109 169 == 1;
#X obj 69 89 inlet;
#X obj 49 239 outlet;
#X obj 109 239 outlet;
#X connect 0 0 6 0;
#X connect 1 0 5 0;
#X connect 2 0 1 0;
#X connect 3 0 0 0;
#X connect 4 0 3 0;
#X connect 4 0 2 0;
#X restore 217 782 pd;
#X connect 1 0 42 0 48.................Z....HC...fF....x....zF...fa....sA...3F....1....;
#X connect 3 0 42 0 32.................G....3F...vA....tA...PF....;
#X connect 3 0 8 0;
#X connect 7 0 10 0;
#X connect 7 0 61 0;
#X connect 8 0 42 0 32.................j....HH....I....BB...HD....;
#X connect 9 0 41 0 32.................FA...zq+++uQ....85+++mE....;
#X connect 9 1 33 0 32.................NA....1+++uS....f8+++mE....;
#X connect 9 2 34 0 32.................UA...LC...PU....y....jE....;
#X connect 9 3 35 0 32.................NA...fK...fS....3B...jE....;
#X connect 9 4 36 0 32.................FA....U...fQ....PE...jE....;
#X connect 10 0 44 0 32.................P..........D.........7A....;
#X connect 11 0 10 1 32......................be.........2G...jc+++O;
#X connect 12 0 22 0;
#X connect 12 1 23 0;
#X connect 12 2 24 0;
#X connect 12 3 25 0;
#X connect 12 4 26 0;
#X connect 12 5 27 0;
#X connect 12 6 28 0;
#X connect 12 7 29 0;
#X connect 13 0 11 0;
#X connect 14 0 11 1;
#X connect 15 0 11 2;
#X connect 16 0 11 3;
#X connect 17 0 11 4;
#X connect 18 0 11 5;
#X connect 19 0 11 6;
#X connect 20 0 11 7;
#X connect 21 0 9 0 32.................H....n++++OB....5++++OA....;
#X connect 21 1 12 0 48.................wA...zf+++eb....M3+++KV...P89+++hE...Tu+++eXA...;
#X connect 30 0 31 0 32.................H..........B.........7.....;
#X connect 31 0 46 0 32.................V....nu+++uE....56+++aA....;
#X connect 33 0 37 0;
#X connect 34 0 38 0;
#X connect 35 0 39 0;
#X connect 36 0 40 0;
#X connect 41 0 32 0;
#X connect 42 0 21 0 32.................e.........vG.........DC....;
#X connect 42 1 2 0 48.................G....jA...vA....Y....n9+++eL....p++++GC...f6++++;
#X connect 43 0 49 0;
#X connect 44 0 42 0 32.................a....rw++++F....a7+++iC....;
#X connect 44 0 59 0;
#X connect 45 0 44 1 32.................P.....5+++OD....f9++++A....;
#X connect 47 0 48 0;
#X connect 48 0 51 0;
#X connect 48 0 53 0 32.................D....bG....A....2A...n.....;
#X connect 49 0 47 0;
#X connect 50 0 3 0 32.................cA...7x+++eW....u7+++GF....;
#X connect 51 0 54 0;
#X connect 53 0 52 0;
#X connect 57 0 60 0;
#X connect 58 0 8 0;
#X connect 58 0 42 0 64.................K....j9++++B....o++++GH...va....AB...7F...Pi....BB...zH...ff....RB....;
#X connect 62 0 59 0;
#X connect 63 0 64 0 32.................Y.....6+++eF....v9+++GC....;
#X connect 64 0 58 0;
#X connect 64 1 3 0;
#X coords 0 0 1 1 396 101 1 297 677;
