#N canvas 827 239 734 565 12;
#X obj 579 519 EaselControlRateOutputPanelASCII;
#X obj 269 300 osc~;
#X obj 859 239 osc~;
#X obj 909 239 osc~;
#X obj 959 239 osc~;
#X obj 1009 239 osc~;
#X obj 1059 239 osc~;
#X obj 1109 239 osc~;
#X obj 1159 239 osc~;
#X obj 987 69 knob 50 0.125 4 1.1 0 empty empty #E4E4E4 #B7B7B7 #4D4D4D 1 0 0 0 1 270 0 0 1 empty empty 0 0 0 0 0 0 0 0;
#X obj 859 191 * 2;
#X obj 909 189 * 4;
#X obj 959 189 * 8;
#X obj 1009 189 * 16;
#X obj 1059 189 * 32;
#X obj 1109 189 * 64;
#X obj 1159 189 * 128;
#X obj 1295 235 scale~ -1 1 0 1;
#X obj 1159 269 scale~ -1 1 0 1;
#X obj 1109 299 scale~ -1 1 0 1;
#X obj 1059 329 scale~ -1 1 0 1;
#X obj 1009 359 scale~ -1 1 0 1;
#X obj 959 389 scale~ -1 1 0 1;
#X obj 909 419 scale~ -1 1 0 1;
#X obj 859 449 scale~ -1 1 0 1;
#X obj 389 300 osc~;
#X obj 520 294 osc~;
#X obj 640 294 osc~;
#X msg 287 198 0;
#X msg 405 198 0.25;
#X msg 536 198 0.5;
#X obj 476 141 b;
#X msg 656 198 0.75;
#X obj 269 359 scale~ -1 1 0 1;
#X obj 520 353 scale~ -1 1 0 1;
#X obj 389 359 scale~ -1 1 0 1;
#X obj 640 353 scale~ -1 1 0 1;
#X floatatom 449 706 4 0 0 0 - - - 12;
#X obj 449 659 sig2float~;
#X floatatom 549 706 4 0 0 0 - - - 12;
#X obj 549 659 sig2float~;
#X floatatom 649 706 4 0 0 0 - - - 12;
#X obj 649 659 sig2float~;
#X floatatom 749 706 4 0 0 0 - - - 12;
#X obj 749 659 sig2float~;
#X floatatom 839 706 4 0 0 0 - - - 12;
#X obj 839 659 sig2float~;
#X floatatom 939 706 4 0 0 0 - - - 12;
#X obj 939 659 sig2float~;
#X floatatom 1039 706 4 0 0 0 - - - 12;
#X obj 1039 659 sig2float~;
#X floatatom 1159 779 4 0 0 0 - - - 12;
#X obj 1139 659 sig2float~;
#X obj 1244 543 average~ 10000;
#X obj 1149 709 round 0.0125;
#X connect 0 0 38 0;
#X connect 0 1 40 0;
#X connect 0 2 42 0;
#X connect 0 3 44 0;
#X connect 0 4 46 0;
#X connect 0 5 48 0;
#X connect 0 6 50 0;
#X connect 0 7 52 0;
#X connect 1 0 33 0;
#X connect 2 0 24 0;
#X connect 3 0 23 0;
#X connect 4 0 22 0;
#X connect 5 0 21 0;
#X connect 6 0 20 0;
#X connect 7 0 19 0;
#X connect 8 0 18 0;
#X connect 9 0 10 0;
#X connect 9 0 1 0;
#X connect 9 0 25 0;
#X connect 9 0 26 0;
#X connect 9 0 27 0;
#X connect 9 0 31 0;
#X connect 9 0 16 0;
#X connect 9 0 15 0;
#X connect 9 0 14 0;
#X connect 9 0 13 0;
#X connect 9 0 12 0;
#X connect 9 0 11 0;
#X connect 10 0 2 0;
#X connect 11 0 3 0;
#X connect 12 0 4 0;
#X connect 13 0 5 0;
#X connect 14 0 6 0;
#X connect 15 0 7 0;
#X connect 16 0 8 0;
#X connect 25 0 35 0;
#X connect 26 0 34 0;
#X connect 27 0 36 0;
#X connect 28 0 1 1;
#X connect 29 0 25 1;
#X connect 30 0 26 1;
#X connect 31 0 32 0;
#X connect 31 0 30 0;
#X connect 31 0 29 0;
#X connect 31 0 28 0;
#X connect 32 0 27 1;
#X connect 35 0 0 3;
#X connect 38 0 37 0;
#X connect 40 0 39 0;
#X connect 42 0 41 0;
#X connect 44 0 43 0;
#X connect 46 0 45 0;
#X connect 48 0 47 0;
#X connect 50 0 49 0;
#X connect 52 0 54 0;
#X connect 54 0 51 0;
