#N canvas 827 239 734 565 12;
#X obj 371 709 spigot;
#X obj 290 707 sel 13 10;
#X obj 290 766 cyclone/zl group 100;
#X obj 290 799 list tosymbol;
#X obj 290 850 cyclone/fromsymbol;
#X obj 290 910 print :;
#X obj 289 116 tgl 25 0 empty empty empty 17 7 0 10 #e4e4e4 #4d4d4d #373737 0 1;
#X obj 290 180 metro 32;
#X floatatom 338 120 5 0 0 0 - - - 16;
#X obj 363 150 b;
#X obj 864 710 tgl 15 0 empty empty dsr 0 20 1 11 #14e814 #fc2828 #000000 0 1;
#X obj 901 711 tgl 15 0 empty empty cts 0 20 1 11 #14e814 #fc2828 #000000 0 1;
#X obj 864 687 route dsr cts;
#X floatatom 955 711 3 0 0 3 parity - - 0;
#X floatatom 998 711 3 0 0 3 stop - - 0;
#X floatatom 1041 711 3 0 0 3 data - - 0;
#X text 955 669 serial packet format;
#X obj 955 687 route parity stop data;
#X floatatom 499 711 10 0 0 3 baud - - 0;
#X floatatom 568 711 3 0 0 3 port - - 0;
#X obj 637 711 tgl 15 0 empty empty open -6 20 1 11 #14e814 #fc2828 #000000 0 1;
#X obj 706 711 tgl 15 0 empty empty hupcl -6 20 1 11 #14e814 #fc2828 #000000 0 1;
#X floatatom 775 710 8 0 0 3 rxerrors - - 0;
#X obj 499 687 route baud port open hupcl rxerrors, f 58;
#X text 519 667 general info;
#X obj 1100 712 tgl 15 0 empty empty rts/cts -10 20 1 11 #14e814 #fc2828 #000000 0 1;
#X obj 1158 712 tgl 15 0 empty empty xon/xoff -14 20 1 11 #14e814 #fc2828 #000000 0 1;
#X text 1107 669 handshaking;
#X obj 1100 687 route rtscts xonxoff;
#X obj 1231 710 print port_list;
#X obj 1330 711 print other;
#X obj 1231 687 route ports, f 17;
#X text 862 670 flow control;
#X msg 140 122 open 3;
#X msg 203 122 close;
#X obj 290 628 comport, f 22;
#X msg 290 224 48 49 50 51 52 53 54 55 56 57 58 59 48 49 50 51 52 53 54 55 56 57 58 59 48 49 50 51 52 53 54 55 56 57 58 59 48 49 50 51 52 53 54 55 56 57 58 59 48 49 50 51 52 53 54 55 56 57 58 59 48 49 50 51 52 53 54 55 56 57 58 59 48 49 50 51 52 53 54 55 56 57 58 59 48 49 50 51 52 53 54 55 56 57 58 59 48 49 50 51 52 53 54 55 56 57 58 59 48 49 50 51 52 53 54 55 56 57 58 59 48 49 50 51 52 53 54 55 56 57 58 59 48 49 50 51 52 53 54 55 56 57 58 59 48 49 50 51 52 53 54 55 56 57 58 59 48 49 50 51 52 53 54 55 56 57 58 59 48 49 50 51 52 53 54 55 56 57 58 59 48 49 50 51 52 53 54 55 56 57 58 59 48 49 50 51 52 53 54 55 56 57 58 59 48 49 50 51 52 53 54 55 56 57 58 59 48 49 50 51 52 53 54 55 56 57 58 59 48 49 50 51 52 53 54 55 56 57 58 59 48 49 50 51 52 53 54 55 56 57 58 59 48 49 50 51 52 53 54 55 56 57 58 59 48 49 50 51 52 53 54 55 56 57 58 59 48 49 50 51 52 53 54 55 56 57 58 59 48 49 50 51 52 53 54 55 56 57 58 59 48 49 50 51 52 53 54 55 56 57 58 59 48 49 50 51 52 53 54 55 56 57 58 59 48 49 50 51 52 53 54 55 56 57 58 59 48 49 50 51 52 53 54 55 56 57 58 59 48 49 50 51 52 53 54 55 56 57 58 59 48 49 50 51 52 53 54 55 56 57 58 59 48 49 50 51 52 53 54 55 56 57 58 59;
#X obj 536 882 scope~ 144 136 0 3 512 100 15000 0 0 0 0 77 77 77 228 228 228 183 183 183 0 empty;
#X obj 536 828 sig~ 100;
#X obj 290 556 list append EaselSez;
#X msg 38 122 pollintervall 1;
#X connect 1 0 2 0 32.................H..........B.........7.....;
#X connect 1 2 2 0 32.................Q....z8+++eD....c++++6C....;
#X connect 2 0 3 0 32.................F.........fA.........r.....;
#X connect 3 0 4 0 32.................F.........fA.........r.....;
#X connect 4 0 5 0;
#X connect 4 0 38 0 48.................Q....3H...PD....NB...H7+++u8....B++++aO....1++++;
#X connect 6 0 7 0;
#X connect 7 0 36 0;
#X connect 8 0 7 1;
#X connect 8 0 9 0;
#X connect 9 0 7 0;
#X connect 12 0 10 0;
#X connect 12 1 11 0;
#X connect 12 2 17 0;
#X connect 17 0 13 0;
#X connect 17 1 14 0;
#X connect 17 2 15 0;
#X connect 17 3 28 0;
#X connect 23 0 18 0;
#X connect 23 1 19 0;
#X connect 23 2 20 0;
#X connect 23 3 21 0;
#X connect 23 4 22 0;
#X connect 23 5 12 0;
#X connect 28 0 25 0;
#X connect 28 1 26 0;
#X connect 28 2 31 0;
#X connect 31 0 29 0;
#X connect 31 1 30 0;
#X connect 33 0 35 0 32.................LG...fE....yA...XA...bd....;
#X connect 34 0 35 0 32.................AG...bE...PvA...WA...bd....;
#X connect 35 0 1 0;
#X connect 35 1 23 0;
#X connect 36 0 39 0;
#X connect 38 0 37 0;
#X connect 39 0 35 0;
#X connect 40 0 35 0 32.................WG...vO...v0A...7C...bd....;
