#N canvas 827 239 527 327 12;
#N canvas 733 172 450 300 intRange 1;
#X obj 90 81 inlet~;
#X obj 90 174 round~ 1;
#X obj 90 230 outlet~;
#X obj 90 136 scale~ -1 1 0 4095;
#X connect 0 0 3 0;
#X connect 1 0 2 0;
#X connect 3 0 1 0;
#X restore 74 187 pd intRange;
#N canvas 733 172 450 300 downsample 0;
#X obj 116 42 vradio 20 1 0 2 empty empty empty 0 -8 0 10 #e4e4e4 #4d4d4d #373737 0;
#X obj 38 178 samplerate~;
#X obj 142 176 samplerate~;
#X obj 142 207 / 2;
#X floatatom 44 229 7 0 0 0 - - - 12;
#X obj 113 133 route 0 1;
#X floatatom 146 64 5 2 8 3 downsample\ ratio - - 0;
#X obj 199 24 knob 50 2 8 0 0 empty empty #E4E4E4 #B7B7B7 #4D4D4D 1 0 7 1 1 270 0 0 2;
#X obj 174 24 b;
#X obj 137 253 outlet;
#X obj 112 94 note 127 14 Inter empty 1 55 55 55 0 228 228 228 0 0 For later\\\, variable sample rate;
#X connect 0 0 5 0;
#X connect 1 0 4 0;
#X connect 2 0 3 0;
#X connect 3 0 4 0;
#X connect 4 0 9 0;
#X connect 5 0 1 0;
#X connect 5 1 2 0;
#X connect 6 0 3 1 32.................U....b....PE....G....zG....;
#X connect 7 0 6 0;
#X connect 7 0 8 0;
#X connect 8 0 0 0;
#X coords 0 0 1 1 147 107 1 105 21;
#X restore 474 174 pd downsample;
#X obj 282 83 note 159 23 Inter empty 1 55 55 55 0 228 228 228 0 0 Individual output channel;
#X obj 299 224 scope~ 38 38 2 3 256 -1 4095 0 0 1 2048 153 153 153 255 204 0 246 231 67 0 empty;
#X obj 74 99 inlet~ lin;
#X obj 74 268 sig2float~;
#X obj 74 313 round 1;
#X obj 74 361 outlet;
#X connect 0 0 3 0;
#X connect 0 0 5 0;
#X connect 4 0 0 0;
#X connect 5 0 6 0;
#X connect 6 0 7 0;
#X coords 0 0 1 1 38 38 2 298 224;
