#N canvas 827 239 734 565 12;
#X msg 349 349 devices;
#N canvas 733 172 450 300 connectionInfo 0;
#X floatatom 278 215 10 0 0 3 baud\ (ignored\ by\ USB) - - 8;
#X floatatom 369 148 3 0 0 3 parity - - 0;
#X floatatom 399 176 3 0 0 2 stop - - 0;
#X floatatom 429 151 3 0 0 3 data - - 0;
#X floatatom 521 176 3 0 0 0 port - - 0;
#X obj 460 176 tgl 15 0 empty empty rts/cts -10 20 1 11 #14e814 #fc2828 #000000 0 1;
#X obj 490 151 tgl 15 0 empty empty xon/xoff -14 20 1 11 #14e814 #fc2828 #000000 0 1;
#X obj 308 148 tgl 15 0 empty empty dsr 0 20 1 11 #14e814 #fc2828 #000000 0 1;
#X obj 338 176 tgl 15 0 empty empty cts 0 20 1 11 #14e814 #fc2828 #000000 0 1;
#X obj 124 124 tgl 15 0 empty empty open -2 20 1 8 #372d00 #ffbc25 #000000 0 1;
#X obj 577 224 print port_list;
#X obj 612 190 tgl 15 0 empty empty hupcl -6 20 1 11 #14e814 #fc2828 #000000 0 1;
#X floatatom 638 151 5 0 0 1 rxerrors - - 0;
#X obj 274 74 route baud dsr cts parity stop data rtscts xonxoff port open ports hupcl rxerrors;
#X obj 274 30 inlet;
#X obj 547 262 s serialOpen;
#X obj 698 224 sel -1;
#X obj 698 124 print serialError;
#X obj 698 262 s closePalette;
#X obj 679 339 s closePalette;
#X obj 679 301 sel retrying;
#X obj 118 61 r closePalette;
#X floatatom 118 90 5 0 0 0 - - - 0;
#X connect 13 0 0 0;
#X connect 13 1 7 0;
#X connect 13 2 8 0;
#X connect 13 3 1 0;
#X connect 13 4 2 0;
#X connect 13 5 3 0;
#X connect 13 6 5 0;
#X connect 13 7 6 0;
#X connect 13 8 4 0;
#X connect 13 9 15 0 32.................aB...3A...vl....d....XJ....;
#X connect 13 9 9 0 32.................F....Tk+++uA....U4+++GA....;
#X connect 13 10 10 0;
#X connect 13 11 11 0;
#X connect 13 12 12 0;
#X connect 13 13 16 0 32.................o....zA...PJ....c....PG....;
#X connect 13 13 20 0 32.................s....n....PK....J....DL....;
#X connect 13 13 17 0 32.................H....zA....B....c.....A....;
#X connect 14 0 13 0;
#X connect 16 0 18 0;
#X connect 20 0 19 0;
#X connect 21 0 22 0;
#X connect 22 0 9 0;
#X coords 0 0 1 1 29 29 2 117 121;
#X restore 571 627 pd connectionInfo;
#X msg 349 449 close;
#X obj 174 349 note 165 14 Inter empty 0 55 55 55 0 228 228 228 0 0 Check which device is the Palette and correct the number under Open.;
#X obj 174 399 note 165 14 Inter empty 0 55 55 55 0 228 228 228 0 0 Open the serial port with the number you've set;
#X obj 174 449 note 165 14 Inter empty 0 55 55 55 0 228 228 228 0 0 Close the serial port;
#X obj 524 599 comport 3;
#X obj 553 470 list store;
#X obj 380 491 send closePalette;
#X obj 477 368 receive receiveComplete;
#N canvas 733 172 788 664 comportSetup 0;
#X msg 272 271 info;
#X obj 275 166 b;
#X obj 186 217 del 10;
#X obj 189 166 b;
#X obj 272 368 outlet;
#X obj 186 67 inlet;
#X obj 272 67 inlet;
#X obj 272 217 del 10;
#X obj 327 217 send stopSending;
#X msg 80 217 pollintervall 1;
#X obj 327 67 receive closePalette;
#X connect 0 0 4 0 32.................l....f++++uI....3+++++D....;
#X connect 1 0 7 0;
#X connect 1 0 8 0 32.................P....bC....D....2.....B....;
#X connect 2 0 0 0 32.................K....DH...vB....AB...HA....;
#X connect 3 0 2 0 32.................C....L....v.....C....X.....;
#X connect 3 0 9 0 32.................P....b4+++OD....W9+++CB....;
#X connect 5 0 3 0;
#X connect 6 0 1 0;
#X connect 7 0 0 0;
#X connect 9 0 4 0 32.................zA....L....c.....C...PH....;
#X connect 10 0 1 0 32.................n....n7+++OJ....J++++CE....;
#X restore 331 549 pd comportSetup;
#X obj 424 460 b;
#X obj 671 330 EaselControlRateOutputTile;
#X obj 771 330 EaselControlRateOutputTile;
#X obj 871 349 EaselControlRateOutputTile;
#X obj 971 349 EaselControlRateOutputTile;
#X obj 1071 349 EaselControlRateOutputTile;
#X obj 1171 349 EaselControlRateOutputTile;
#X obj 1271 349 EaselControlRateOutputTile;
#X obj 1371 349 EaselControlRateOutputTile;
#X obj 771 224 osc~ 20;
#X obj 871 224 osc~ 40;
#X obj 971 224 osc~ 80;
#X obj 1071 224 osc~ 160;
#X obj 1171 224 osc~ 320;
#X obj 1271 224 osc~ 640;
#X listbox 639 785 59 0 0 0 - - - 10;
#X obj 1476 412 scope~ 174 163 8 3 256 0 4095 0 0 1 2047 77 77 77 228 228 228 183 183 183 0 empty;
#X obj 1476 338 sig~;
#X obj 1614 374 sig~;
#X obj 1371 133 lfo 0.025;
#X obj 521 387 bng 25 250 50 0 empty empty empty 17 7 0 10 #e4e4e4 #4d4d4d #373737;
#X obj 449 870 route Palette;
#X obj 637 819 list length;
#X floatatom 637 849 5 0 0 0 - - - 0;
#X obj 553 501 list trim;
#X obj 314 701 send receiveComplete;
#X obj 1476 368 lowpass~ 200;
#X obj 1473 888 scope~ 174 163 2 3 256 100 300 0 0 0 2047 77 77 77 228 228 228 183 183 183 0 empty;
#X obj 1473 814 sig~;
#X obj 1473 844 lowpass~ 200;
#N canvas 733 172 450 300 resetOnClose 0;
#X obj 59 59 r closePalette;
#X msg 61 86 0;
#X obj 59 139 outlet;
#X connect 0 0 1 0;
#X connect 1 0 2 0;
#X restore 639 755 pd resetOnClose;
#X obj 449 659 sel 13;
#X obj 449 729 group 0;
#X obj 449 840 list trim;
#X msg 612 751 0;
#X msg 1138 556 shutdownshutdownshutdownshutdown, f 34;
#X obj 809 909 unpack f f f f f f f f;
#X floatatom 809 949 5 0 0 0 - - - 0;
#X floatatom 839 949 5 0 0 0 - - - 0;
#X floatatom 869 949 5 0 0 0 - - - 0;
#X floatatom 899 949 5 0 0 0 - - - 0;
#X floatatom 929 949 5 0 0 0 - - - 0;
#X floatatom 959 949 5 0 0 0 - - - 0;
#X floatatom 989 949 5 0 0 0 - - - 0;
#X floatatom 1019 949 5 0 0 0 - - - 0;
#X floatatom 303 789 10 0 0 0 - - - 8;
#X listbox 706 610 94 0 0 0 - - - 8;
#X floatatom 660 998 6 0 0 3 mS\ since\ last\ communication - - 12;
#X obj 660 970 / 10;
#X obj 671 449 list append;
#X obj 771 449 list append;
#X obj 871 449 list append;
#X obj 971 449 list append;
#X obj 1072 449 list append;
#X obj 1170 449 list append;
#X obj 1273 449 list append;
#X obj 671 396 tosymbol;
#X obj 771 397 tosymbol;
#X obj 871 397 tosymbol;
#X obj 972 399 tosymbol;
#X obj 1072 396 tosymbol;
#X obj 1170 397 tosymbol;
#X obj 1273 396 tosymbol;
#X obj 1374 397 tosymbol;
#X listbox 639 501 49 0 0 0 - - - 10;
#X obj 553 549 fudiformat -u;
#N canvas 733 172 450 300 resetOnClose 0;
#X obj 43 37 r closePalette;
#X obj 43 96 outlet;
#X msg 43 63 set 0;
#X connect 0 0 2 0;
#X connect 2 0 1 0;
#X restore 1062 909 pd resetOnClose;
#N canvas 733 172 450 300 resetOnClose 0;
#X obj 43 37 r closePalette;
#X obj 43 96 outlet;
#X msg 43 63 set 0;
#X connect 0 0 2 0;
#X connect 2 0 1 0;
#X restore 702 564 pd resetOnClose;
#X obj 1374 449 list append;
#X msg 837 577 set 0;
#X obj 809 1047 scope~ 200 100 0 3 256 -1 4095 0 0 0 0 77 77 77 228 228 228 183 183 183 0 empty;
#X obj 1416 263 sig2float~;
#X obj 1491 246 knob 50 1 -1 0 0 empty empty #E4E4E4 #B7B7B7 #4D4D4D 1 0 0 0 1 160 0 0 1;
#X obj 1371 156 scale 0 127 0.25 1.25;
#X msg 349 399 open 5;
#X obj 561 202 knob 50 -1 1 0 0 empty empty #E4E4E4 #B7B7B7 #4D4D4D 1 0 0 0 1 270 0 0 0;
#X obj 680 121 bng 25 250 50 0 empty empty empty 17 7 0 10 #e4e4e4 #4d4d4d #373737;
#X obj 1017 491 list length;
#X floatatom 1017 521 5 0 0 0 - - - 0;
#X listbox 533 712 119 0 0 0 - - - 8;
#X obj 529 672 group 0;
#X obj 632 647 list length;
#X floatatom 632 677 5 0 0 0 - - - 0;
#X listbox 798 674 35 0 0 0 - - - 16;
#X obj 702 647 fudiparse;
#X obj 578 411 metro 200;
#X obj 1371 224 osc~ 0.25;
#X obj 671 224 osc~ 0.05;
#X obj 449 784 fudiparse;
#X obj 449 755 list trim;
#X obj 382 800 timer;
#X floatatom 384 828 8 0 0 3 Sample\ Rate - - 10;
#X obj 299 753 count 1000;
#N canvas 733 172 450 300 Palette 1;
#X symbolatom 155 109 7 0 0 0 - - - 12;
#X floatatom 215 109 5 0 0 0 - - - 0;
#X floatatom 245 109 5 0 0 0 - - - 0;
#X floatatom 275 109 5 0 0 0 - - - 0;
#X floatatom 305 109 5 0 0 0 - - - 0;
#X obj 155 39 unpack s f f f f;
#X obj 153 139 s version;
#X obj 215 199 s numDACs;
#X obj 245 179 s DACDepth;
#X obj 275 159 s numADCs;
#X obj 305 139 s ADCDepth;
#X obj 13 39 r closePalette;
#X msg 13 98 set 0;
#X obj 13 71 delay 1000;
#X obj 155 1 inlet;
#X connect 0 0 6 0 32.................J.........fB.........LA....;
#X connect 1 0 7 0;
#X connect 2 0 8 0;
#X connect 3 0 9 0;
#X connect 4 0 10 0;
#X connect 5 0 0 0 32.................T....3++++OE....9++++SC....;
#X connect 5 1 1 0 32.................Q....3B...PD....t....zB....;
#X connect 5 2 2 0 32.................N....nC...fC....5....zB....;
#X connect 5 3 3 0 32.................K....XD...vB....FA...zB....;
#X connect 5 4 4 0 32.................H....HE....B....RA...zB....;
#X connect 11 0 13 0;
#X connect 12 0 4 0 48......................LD.........CA...D9+++uIA...g++++aR...f6++++;
#X connect 12 0 3 0 48......................fD.........HA...P9+++OBA...j++++iP...f6++++;
#X connect 12 0 2 0 48......................zD.........MA...b9+++u5....m++++qN...f6++++;
#X connect 12 0 1 0 48......................LE.........SA...n9+++Oy....p++++yL...f6++++;
#X connect 12 0 0 0 48......................XE.........VA...v9+++ui....r++++6H...f6++++;
#X connect 13 0 12 0;
#X connect 14 0 5 0;
#X coords 0 0 1 1 179 21 2 154 108;
#X restore 263 917 pd Palette Specs;
#X obj 809 998 sig~;
#X connect 0 0 6 0 48.................P....HC....D....x....3C...vq....9....7J...v4....;
#X connect 2 0 10 1 32.................7....3A....O....d....DE....;
#X connect 2 0 6 0 32.................w....7J...PL....uB...LH....;
#X connect 2 0 11 0 48.................I....nC...PB....5....H++++OR....x++++iD...P9++++;
#X connect 6 0 42 0;
#X connect 6 0 91 0;
#X connect 6 1 1 0;
#X connect 7 0 75 0;
#X connect 7 0 35 0;
#X connect 9 0 7 0;
#X connect 10 0 6 0 32.................P....DL....D....AC...7A....;
#X connect 11 0 8 0 32.................E....f8+++eA....X++++u.....;
#X connect 12 0 67 0;
#X connect 13 0 68 0;
#X connect 14 0 69 0;
#X connect 15 0 70 0;
#X connect 16 0 71 0;
#X connect 17 0 72 0;
#X connect 18 0 73 0;
#X connect 19 0 28 0;
#X connect 19 0 74 0;
#X connect 20 0 13 0;
#X connect 21 0 14 0;
#X connect 22 0 15 0;
#X connect 23 0 16 0;
#X connect 24 0 17 0;
#X connect 25 0 18 0;
#X connect 26 0 33 0;
#X connect 28 0 37 0;
#X connect 30 0 84 0;
#X connect 31 0 96 0;
#X connect 32 0 104 0 32.................N....bz+++uC....G8+++yA....;
#X connect 32 1 47 0 32.................G....vR...vA....rD...PA....;
#X connect 33 0 34 0;
#X connect 35 0 76 0;
#X connect 35 0 92 0;
#X connect 37 0 27 0;
#X connect 39 0 40 0;
#X connect 40 0 38 0;
#X connect 41 0 26 0;
#X connect 42 0 43 0;
#X connect 42 0 91 0;
#X connect 42 0 103 0 32.................D....r1+++OA....q8+++uD....;
#X connect 42 0 36 0 32.................L....n2+++OC....58+++eA....;
#X connect 42 1 43 0 32.................P....39+++OD....t++++2A....;
#X connect 43 0 100 0;
#X connect 44 0 32 0;
#X connect 45 0 26 0;
#X connect 47 0 48 0 32.................M....D8+++eC....Q++++mA....;
#X connect 47 1 49 0 32.................R....z....fD....M....TA....;
#X connect 47 2 50 0 32.................S....nA...vD....Z....TA....;
#X connect 47 3 51 0 32.................Q....bB...PD....m....TA....;
#X connect 47 4 52 0 32.................O....PC...vC....z....TA....;
#X connect 47 5 53 0 32.................M....DD...PC....AA...TA....;
#X connect 47 6 54 0 32.................K....3D...vB....NA...TA....;
#X connect 47 7 55 0 32.................M....rB...PC....q....jA....;
#X connect 48 0 39 0;
#X connect 48 0 105 0;
#X connect 57 0 95 0;
#X connect 59 0 58 0;
#X connect 60 0 7 1;
#X connect 61 0 60 1;
#X connect 62 0 61 1;
#X connect 63 0 62 1;
#X connect 64 0 63 1;
#X connect 65 0 64 1;
#X connect 66 0 65 1;
#X connect 67 0 60 0;
#X connect 68 0 61 0;
#X connect 69 0 62 0;
#X connect 70 0 63 0;
#X connect 71 0 64 0;
#X connect 72 0 65 0;
#X connect 73 0 66 0;
#X connect 74 0 79 0;
#X connect 75 0 88 0;
#X connect 76 0 6 0;
#X connect 76 0 57 0;
#X connect 77 0 55 0 32.................K....X8++++B....V++++WA....;
#X connect 77 0 54 0 32.................K....f6++++B....39+++WA....;
#X connect 77 0 53 0 32.................K....n4++++B....Z9+++WA....;
#X connect 77 0 52 0 32.................K....v2++++B....78+++WA....;
#X connect 77 0 51 0 32.................K....30++++B....d8+++WA....;
#X connect 77 0 50 0 32.................K.....z++++B.....8+++WA....;
#X connect 77 0 49 0 32.................K....Hx++++B....h7+++WA....;
#X connect 77 0 48 0 32.................K....Pv++++B....D7+++WA....;
#X connect 78 0 57 0;
#X connect 79 0 66 1;
#X connect 80 0 57 0;
#X connect 82 0 83 0;
#X connect 85 0 10 0 32.................V....79+++uE....u++++OH....;
#X connect 85 0 6 0 32.................W....7J...vE....uB...TK....;
#X connect 87 0 86 0;
#X connect 87 0 20 0;
#X connect 87 0 21 0;
#X connect 87 0 22 0;
#X connect 87 0 23 0;
#X connect 87 0 24 0;
#X connect 87 0 25 0;
#X connect 87 0 30 0;
#X connect 87 0 98 0;
#X connect 88 0 89 0;
#X connect 91 0 90 0;
#X connect 92 0 93 0;
#X connect 95 0 94 0;
#X connect 97 0 19 0;
#X connect 97 0 82 0;
#X connect 98 0 12 0;
#X connect 99 0 44 0;
#X connect 99 0 26 0;
#X connect 100 0 99 0;
#X connect 101 0 102 0;
#X connect 103 0 56 0;
#X connect 103 1 101 1 32.................N....7B...fC....u....vA....;
#X connect 103 1 101 0 32.................N....7A...fC....e....vA....;
#X connect 105 0 81 0;
