#N canvas 827 239 734 565 12;
#X obj 307 261 EaselControlRateOutputPanelASCII;
#X obj 439 149 scale~ -1 1 0 1;
#X obj 589 149 scale~ -1 1 0 1;
#X obj 719 149 scale~ -1 1 0 1;
#X obj 719 109 osc~ 40;
#X obj 531 77 *~;
#X obj 589 109 osc~ 21.3;
#X obj 439 109 osc~ 19.7;
#X obj 309 149 scale~ -1 1 0.1 0.9;
#X obj 194 216 knob 50 0 1 0 0 empty empty #E4E4E4 #B7B7B7 #4D4D4D 1 0 0 0 1 120 0 0 0;
#X obj 199 179 sig2float~;
#X obj 386 92 /~ 1;
#X obj 913 373 grain.sampler~;
#X floatatom 379 469 11 0 0 0 - - - 10;
#X obj 369 389 sig2float~;
#X obj 372 428 * 4;
#X obj 259 471 sig~;
#X obj 309 109 osc~ 2;
#X obj 299 209 +~;
#X obj 347 214 /~ 2;
#X obj 309 169 /~ 2;
#X obj 868 202 adc~;
#X obj 879 270 env~;
#X connect 0 1 14 0;
#X connect 1 0 0 1;
#X connect 1 0 5 0;
#X connect 2 0 0 4;
#X connect 2 0 5 1;
#X connect 2 0 7 0;
#X connect 3 0 0 5;
#X connect 3 0 6 0;
#X connect 3 0 5 1;
#X connect 4 0 3 0;
#X connect 5 0 11 0;
#X connect 6 0 2 0;
#X connect 7 0 1 0;
#X connect 8 0 10 0;
#X connect 8 0 20 0;
#X connect 10 0 9 0;
#X connect 14 0 15 0;
#X connect 15 0 13 0;
#X connect 15 0 16 0;
#X connect 16 0 18 1;
#X connect 17 0 8 0;
#X connect 18 0 19 0;
#X connect 19 0 0 0;
#X connect 20 0 18 0;
#X connect 21 0 22 0;
