#N canvas 827 239 1442 585 12;
#X obj 599 299 easelOutputTile;
#X obj 449 199 loadbang;
#X obj 449 249 send numberOfChannels;
#X msg 449 224 1;
#X listbox 624 374 140 0 0 0 - - - 8;
#X msg 374 249 open 3;
#X msg 374 199 devices;
#N canvas 733 172 450 300 connectionInfo 0;
#X floatatom 49 124 14 0 0 3 baud - - 8;
#X floatatom 221 304 3 0 0 3 parity - - 0;
#X floatatom 253 304 3 0 0 2 stop - - 0;
#X floatatom 285 303 3 0 0 3 data - - 0;
#X floatatom 381 229 3 0 0 0 port - - 0;
#X obj 317 233 tgl 15 0 empty empty rts/cts -10 20 1 11 #14e814 #fc2828 #000000 0 1;
#X obj 349 249 tgl 15 0 empty empty xon/xoff -14 20 1 11 #14e814 #fc2828 #000000 0 1;
#X text 70 303 serial packet format:;
#X text 258 217 handshaking:;
#X text 29 252 flow control inputs:;
#X obj 157 252 tgl 15 0 empty empty dsr 0 20 1 11 #14e814 #fc2828 #000000 0 1;
#X obj 189 252 tgl 15 0 empty empty cts 0 20 1 11 #14e814 #fc2828 #000000 0 1;
#X obj 124 124 tgl 15 0 empty empty open -2 20 1 8 #372d00 #ffbc25 #000000 0 1;
#X obj 449 249 print port_list;
#X obj 542 221 print other;
#X obj 477 227 tgl 15 0 empty empty hupcl -6 20 1 11 #14e814 #fc2828 #000000 0 1;
#X floatatom 509 240 10 0 0 1 rxerrors - - 0;
#X obj 274 74 route baud dsr cts parity stop data rtscts xonxoff port open ports hupcl rxerrors;
#X obj 308 22 inlet;
#X obj 443 178 s serialOpen;
#X connect 17 0 0 0;
#X connect 17 1 10 0;
#X connect 17 2 11 0;
#X connect 17 3 1 0;
#X connect 17 4 2 0;
#X connect 17 5 3 0;
#X connect 17 6 5 0;
#X connect 17 7 6 0;
#X connect 17 8 4 0;
#X connect 17 9 12 0;
#X connect 17 9 19 0;
#X connect 17 10 13 0;
#X connect 17 11 15 0;
#X connect 17 12 16 0;
#X connect 17 13 14 0;
#X connect 18 0 17 0;
#X coords 0 0 1 1 100 30 2 46 121;
#X restore 646 501 pd connectionInfo;
#X msg 374 299 close;
#X obj 199 199 note 165 14 Inter empty 0 55 55 55 0 228 228 228 0 0 Check which device is the Palette and correct the number under Open.;
#X obj 199 249 note 165 14 Inter empty 0 55 55 55 0 228 228 228 0 0 Open the serial port with the number you've set;
#X obj 199 299 note 165 14 Inter empty 0 55 55 55 0 228 228 228 0 0 Close the serial port;
#N canvas 733 172 788 664 infoGet 0;
#X msg 272 271 info;
#X obj 275 166 b;
#X obj 186 217 del 10;
#X obj 189 166 b;
#X obj 272 368 outlet;
#X obj 186 67 inlet;
#X obj 272 67 inlet;
#X obj 272 217 del 10;
#X obj 313 189 send stopSending;
#X connect 0 0 4 0 32.................l....f++++uI....3+++++D....;
#X connect 1 0 7 0;
#X connect 1 0 8 0 32.................B....jB...f.....o....P.....;
#X connect 2 0 0 0 32.................K....DH...vB....AB...HA....;
#X connect 3 0 2 0 32.................C....L....v.....C....X.....;
#X connect 5 0 3 0;
#X connect 6 0 1 0;
#X connect 7 0 0 0;
#X restore 356 399 pd infoGet;
#X listbox 674 449 140 0 0 0 - - - 8;
#N canvas 733 172 450 300 onlyTalkWhenSerialIsOpen 0;
#X obj 54 163 spigot;
#X obj 54 43 inlet;
#X obj 54 196 outlet;
#X obj 353 75 b;
#X msg 268 75 0;
#X obj 121 43 receive serialOpen;
#X obj 266 43 receive stopSending;
#X connect 0 0 2 0 32.................G.........vA.........3.....;
#X connect 1 0 0 0 32.................y.........vL.........TF....;
#X connect 4 0 0 1 32.................V....Pz+++uE....D8+++uB....;
#X connect 5 0 0 1 32.................y....T8++++L....U++++WF....;
#X connect 6 0 4 0;
#X restore 599 399 pd onlyTalkWhenSerialIsOpen;
#X obj 660 166 note 77 14 Inter empty 0 55 55 55 0 228 228 228 0 0 test signal;
#X obj 549 449 comport 3 230400;
#X obj 660 249 osc~ 601;
#X obj 660 187 knob 50 580 620 0 0 empty empty #E4E4E4 #B7B7B7 #4D4D4D 1 0 0 0 1 270 0 0 599;
#X obj 596 142 scale 0 127 -1 1;
#X obj 781 166 sig~;
#X obj 806 213 scope~ 200 100 4 3 1024 -1 1 0 0 1 0 77 77 77 228 228 228 183 183 183 0 empty;
#X obj 596 90 lfo 10;
#X connect 0 0 14 0 32.................D....3t+++OA....t6+++y.....;
#X connect 0 0 4 0 32.................T....3P....E....ND....G....;
#X connect 1 0 3 0 32.................C....3+++++.....9++++a.....;
#X connect 3 0 2 0 32.................C....L....v.....C....X.....;
#X connect 5 0 12 0 32.................S....X9++++D....l++++OH....;
#X connect 5 0 16 0 32.................S....7J...vD....uB...TK....;
#X connect 6 0 16 0 48.................X....HC....F....x....zC...vq....8....7J...v4....;
#X connect 8 0 12 1 32.................CA...3A...vP....d....DE....;
#X connect 8 0 16 0 32.................R....7J...fD....uB...LH....;
#X connect 12 0 16 0 32.................P....nO....D....5C...7A....;
#X connect 14 0 13 0 32.................P....XD....D....FA...7A....;
#X connect 14 0 16 0 32.................P....77+++OD....O+++++A....;
#X connect 16 1 7 0 32.................P....L++++OD....y+++++A....;
#X connect 18 0 17 0;
#X connect 19 0 20 0;
#X connect 19 0 0 0;
#X connect 20 0 21 0;
#X connect 22 0 19 0;
