#N canvas 827 239 734 565 12;
#X msg 349 399 open 3;
#X msg 349 349 devices;
#N canvas 733 172 450 300 connectionInfo 0;
#X floatatom 278 215 10 0 0 3 baud\ (ignored\ by\ USB) - - 8;
#X floatatom 369 148 3 0 0 3 parity - - 0;
#X floatatom 399 176 3 0 0 2 stop - - 0;
#X floatatom 429 151 3 0 0 3 data - - 0;
#X floatatom 521 176 3 0 0 0 port - - 0;
#X obj 460 176 tgl 15 0 empty empty rts/cts -10 20 1 11 #14e814 #fc2828 #000000 0 1;
#X obj 490 151 tgl 15 0 empty empty xon/xoff -14 20 1 11 #14e814 #fc2828 #000000 0 1;
#X obj 308 148 tgl 15 0 empty empty dsr 0 20 1 11 #14e814 #fc2828 #000000 0 1;
#X obj 338 176 tgl 15 0 empty empty cts 0 20 1 11 #14e814 #fc2828 #000000 0 1;
#X obj 124 124 tgl 15 0 empty empty open -2 20 1 8 #372d00 #ffbc25 #000000 0 1;
#X obj 577 224 print port_list;
#X obj 612 190 tgl 15 0 empty empty hupcl -6 20 1 11 #14e814 #fc2828 #000000 0 1;
#X floatatom 640 153 5 0 0 1 rxerrors - - 0;
#X obj 274 74 route baud dsr cts parity stop data rtscts xonxoff port open ports hupcl rxerrors;
#X obj 274 30 inlet;
#X obj 547 262 s serialOpen;
#X obj 698 224 sel -1;
#X obj 698 124 print serialError;
#X obj 698 262 s closePalette;
#X obj 679 339 s closePalette;
#X obj 679 301 sel retrying;
#X obj 118 61 r closePalette;
#X floatatom 118 90 5 0 0 0 - - - 0;
#X connect 13 0 0 0;
#X connect 13 1 7 0;
#X connect 13 2 8 0;
#X connect 13 3 1 0;
#X connect 13 4 2 0;
#X connect 13 5 3 0;
#X connect 13 6 5 0;
#X connect 13 7 6 0;
#X connect 13 8 4 0;
#X connect 13 9 15 0 32.................aB...3A...vl....d....XJ....;
#X connect 13 9 9 0 32.................F....Tk+++uA....U4+++GA....;
#X connect 13 10 10 0;
#X connect 13 11 11 0;
#X connect 13 12 12 0;
#X connect 13 13 16 0 32.................o....zA...PJ....c....PG....;
#X connect 13 13 20 0 32.................s....n....PK....J....DL....;
#X connect 13 13 17 0 32.................H....zA....B....c.....A....;
#X connect 14 0 13 0;
#X connect 16 0 18 0;
#X connect 20 0 19 0;
#X connect 21 0 22 0;
#X connect 22 0 9 0;
#X coords 0 0 1 1 29 29 2 117 121;
#X restore 571 627 pd connectionInfo;
#X msg 349 449 close;
#X obj 174 349 note 165 14 Inter empty 0 55 55 55 0 228 228 228 0 0 Check which device is the Palette and correct the number under Open.;
#X obj 174 399 note 165 14 Inter empty 0 55 55 55 0 228 228 228 0 0 Open the serial port with the number you've set;
#X obj 174 449 note 165 14 Inter empty 0 55 55 55 0 228 228 228 0 0 Close the serial port;
#X obj 524 599 comport 3;
#X obj 553 470 list store;
#X symbolatom 229 1019 8 0 0 0 - - - 10;
#X floatatom 289 1019 5 0 0 0 - - - 0;
#X floatatom 319 1019 5 0 0 0 - - - 0;
#X floatatom 349 1019 5 0 0 0 - - - 0;
#X floatatom 379 1019 5 0 0 0 - - - 0;
#X obj 380 491 send closePalette;
#X obj 509 407 receive receiveComplete;
#X obj 229 949 unpack s f f f f;
#N canvas 733 172 788 664 comportSetup 0;
#X msg 272 271 info;
#X obj 275 166 b;
#X obj 186 217 del 10;
#X obj 189 166 b;
#X obj 272 368 outlet;
#X obj 186 67 inlet;
#X obj 272 67 inlet;
#X obj 272 217 del 10;
#X obj 327 217 send stopSending;
#X msg 80 217 pollintervall 1;
#X obj 327 67 receive closePalette;
#X connect 0 0 4 0 32.................l....f++++uI....3+++++D....;
#X connect 1 0 7 0;
#X connect 1 0 8 0 32.................P....bC....D....2.....B....;
#X connect 2 0 0 0 32.................K....DH...vB....AB...HA....;
#X connect 3 0 2 0 32.................C....L....v.....C....X.....;
#X connect 3 0 9 0 32.................P....b4+++OD....W9+++CB....;
#X connect 5 0 3 0;
#X connect 6 0 1 0;
#X connect 7 0 0 0;
#X connect 9 0 4 0 32.................zA....L....c.....C...PH....;
#X connect 10 0 1 0 32.................n....n7+++OJ....J++++CE....;
#X restore 331 549 pd comportSetup;
#X obj 424 460 b;
#X obj 227 1049 s version;
#X obj 289 1109 s numDACs;
#X obj 319 1089 s DACDepth;
#X obj 349 1069 s numADCs;
#X obj 379 1049 s ADCDepth;
#X obj 1371 517 list append;
#X obj 671 349 EaselControlRateOutputTile;
#X obj 671 224 osc~ 10;
#X obj 771 349 EaselControlRateOutputTile;
#X obj 871 349 EaselControlRateOutputTile;
#X obj 971 349 EaselControlRateOutputTile;
#X obj 1071 349 EaselControlRateOutputTile;
#X obj 1171 349 EaselControlRateOutputTile;
#X obj 1271 349 EaselControlRateOutputTile;
#X obj 1371 349 EaselControlRateOutputTile;
#X obj 771 224 osc~ 20;
#X obj 871 224 osc~ 40;
#X obj 971 224 osc~ 80;
#X obj 1071 224 osc~ 160;
#X obj 1171 224 osc~ 320;
#X obj 1271 224 osc~ 640;
#X obj 1371 224 osc~ 1280;
#X listbox 639 809 59 0 0 0 - - - 10;
#X obj 1476 412 scope~ 174 163 8 3 256 0 4095 0 0 1 2047 77 77 77 228 228 228 183 183 183 0 empty;
#X obj 1476 338 sig~;
#X obj 1614 374 sig~;
#X obj 821 171 phasor 0.01;
#X obj 1392 158 lfo 0.025;
#X obj 1553 145 vsl 17 128 0 200 0 0 empty empty empty 0 -9 0 10 #e4e4e4 #4d4d4d #373737 0 1;
#X floatatom 1550 287 10 0 0 0 - - - 12;
#X obj 553 426 bng 25 250 50 0 empty empty empty 17 7 0 10 #e4e4e4 #4d4d4d #373737;
#X obj 449 859 route Palette;
#X obj 637 840 list length;
#X floatatom 637 870 5 0 0 0 - - - 0;
#X obj 553 511 list trim;
#X obj 249 699 send receiveComplete;
#X obj 1392 181 scale 0 127 1 200;
#X obj 1476 368 lowpass~ 200;
#X obj 1473 888 scope~ 174 163 8 3 256 0 4095 0 0 1 2047 77 77 77 228 228 228 183 183 183 0 empty;
#X obj 1473 814 sig~;
#X obj 1473 844 lowpass~ 200;
#X obj 449 769 list tosymbol;
#N canvas 733 172 450 300 resetOnClose 0;
#X obj 59 59 r closePalette;
#X msg 61 86 0;
#X obj 59 139 outlet;
#X connect 0 0 1 0;
#X connect 1 0 2 0;
#X restore 639 779 pd resetOnClose;
#N canvas 733 172 450 300 resetOnClose 1;
#X obj 43 37 r closePalette;
#X obj 43 96 outlet;
#X msg 43 63 set 0;
#X connect 0 0 2 0;
#X connect 2 0 1 0;
#X restore 98 938 pd resetOnClose;
#X obj 449 659 sel 13;
#X obj 449 739 group 0;
#X obj 449 799 separate;
#X obj 449 829 list trim;
#X msg 612 775 0;
#N canvas 733 172 450 300 resetOnClose 0;
#X obj 59 59 r closePalette;
#X msg 61 86 0;
#X obj 59 139 outlet;
#X connect 0 0 1 0;
#X connect 1 0 2 0;
#X restore 809 869 pd resetOnClose;
#X msg 813 531 shutdownshutdownshutdownshutdown, f 34;
#X obj 809 909 unpack f f f f f f f f;
#X floatatom 809 949 5 0 0 0 - - - 0;
#X floatatom 839 949 5 0 0 0 - - - 0;
#X floatatom 869 949 5 0 0 0 - - - 0;
#X floatatom 899 949 5 0 0 0 - - - 0;
#X floatatom 929 949 5 0 0 0 - - - 0;
#X floatatom 959 949 5 0 0 0 - - - 0;
#X floatatom 989 949 5 0 0 0 - - - 0;
#X floatatom 1019 949 5 0 0 0 - - - 0;
#X obj 299 753 count;
#X floatatom 299 789 5 0 0 0 - - - 0;
#X listbox 693 569 49 0 0 0 - - - 10;
#X floatatom 740 977 6 0 0 3 mS\ since\ last\ communication - - 12;
#X obj 740 949 / 10;
#X obj 719 491 r closePalette;
#X obj 98 959 del 1000;
#X msg 719 511 set 0;
#X msg 100 984 set 0;
#X msg 723 645 print \$1;
#X floatatom 551 702 16 0 0 0 - - - 12;
#X symbolatom 557 666 10 0 0 0 - - - 0;
#X obj 944 629 zl.iter;
#X obj 1255 588 list tosymbol;
#X obj 1199 547 list fromsymbol;
#X obj 1253 632 list append ;
#X obj 1187 510 list append ;
#X obj 1133 504 list append ;
#X obj 1115 568 list append ;
#X obj 1062 626 list append ;
#X obj 1286 517 list prepend;
#X obj 1371 426 list append ;
#X obj 681 627 print;
#X obj 778 707 list tosymbol;
#X obj 671 449 list append;
#X obj 771 449 list append;
#X obj 871 449 list append;
#X obj 971 449 list append;
#X obj 1072 449 list append;
#X obj 1170 449 list append;
#X obj 1273 449 list append;
#X obj 671 396 tosymbol;
#X obj 771 397 tosymbol;
#X obj 871 397 tosymbol;
#X obj 972 399 tosymbol;
#X obj 1072 396 tosymbol;
#X obj 1170 397 tosymbol;
#X obj 1273 396 tosymbol;
#X obj 1374 397 tosymbol;
#X obj 803 584 zl;
#X listbox 681 520 49 0 0 0 - - - 10;
#X obj 553 540 fudiformat -u;
#X obj 1056 580 list append;
#X obj 1037 518 list append;
#X obj 581 938 fudiparse;
#X connect 0 0 17 0 32.................V....79+++uE....u++++OH....;
#X connect 0 0 7 0 32.................W....7J...vE....uB...TK....;
#X connect 1 0 7 0 48.................P....HC....D....x....3C...vq....9....7J...v4....;
#X connect 3 0 17 1 32.................7....3A....O....d....DE....;
#X connect 3 0 7 0 32.................w....7J...PL....uB...LH....;
#X connect 3 0 18 0 48.................I....nC...PB....5....H++++OR....x++++iD...P9++++;
#X connect 7 0 63 0;
#X connect 7 1 2 0;
#X connect 8 0 119 0;
#X connect 8 0 53 0;
#X connect 9 0 19 0 32.................J.........fB.........LA....;
#X connect 10 0 20 0;
#X connect 11 0 21 0;
#X connect 12 0 22 0;
#X connect 13 0 23 0;
#X connect 15 0 8 0;
#X connect 16 0 9 0 32.................T....3++++OE....9++++SC....;
#X connect 16 1 10 0 32.................Q....3B...PD....t....zB....;
#X connect 16 2 11 0 32.................N....nC...fC....5....zB....;
#X connect 16 3 12 0 32.................K....XD...vB....FA...zB....;
#X connect 16 4 13 0 32.................H....HE....B....RA...zB....;
#X connect 17 0 7 0 32.................P....DL....D....AC...7A....;
#X connect 18 0 14 0 32.................E....f8+++eA....X++++u.....;
#X connect 25 0 110 0;
#X connect 26 0 25 0;
#X connect 27 0 111 0;
#X connect 28 0 112 0;
#X connect 29 0 113 0;
#X connect 30 0 114 0;
#X connect 31 0 115 0;
#X connect 32 0 116 0;
#X connect 33 0 43 0;
#X connect 33 0 117 0;
#X connect 34 0 27 0;
#X connect 35 0 28 0;
#X connect 36 0 29 0;
#X connect 37 0 30 0;
#X connect 38 0 31 0;
#X connect 39 0 32 0;
#X connect 40 0 33 0;
#X connect 41 0 51 0;
#X connect 41 0 70 0 48.................E....LI...PA....SB...fD....q....HA...vJ...vT....;
#X connect 43 0 56 0;
#X connect 46 0 55 0;
#X connect 47 0 48 0;
#X connect 49 0 8 0;
#X connect 50 0 16 0 32.................a.....0++++F....P8+++yD....;
#X connect 50 1 41 0 48.................W....DD...vE....AA...v6+++Of....79+++CH....u++++;
#X connect 51 0 52 0;
#X connect 53 0 120 0;
#X connect 55 0 47 0;
#X connect 55 0 40 0;
#X connect 56 0 42 0;
#X connect 58 0 59 0;
#X connect 59 0 57 0;
#X connect 60 0 65 0;
#X connect 61 0 41 0;
#X connect 62 0 85 0;
#X connect 63 0 64 0;
#X connect 63 0 54 0 32.................J....jy+++uB....47+++WA....;
#X connect 63 0 79 0;
#X connect 63 1 64 0 32.................P....39+++OD....t++++2A....;
#X connect 63 1 89 0;
#X connect 63 1 90 0;
#X connect 64 0 60 0;
#X connect 65 0 66 0;
#X connect 66 0 50 0;
#X connect 67 0 41 0;
#X connect 68 0 70 0;
#X connect 70 0 71 0 32.................M....D8+++eC....Q++++mA....;
#X connect 70 1 72 0 32.................R....z....fD....M....TA....;
#X connect 70 2 73 0 32.................S....nA...vD....Z....TA....;
#X connect 70 3 74 0 32.................Q....bB...PD....m....TA....;
#X connect 70 4 75 0 32.................O....PC...vC....z....TA....;
#X connect 70 5 76 0 32.................M....DD...PC....AA...TA....;
#X connect 70 6 77 0 32.................K....3D...vB....NA...TA....;
#X connect 70 7 78 0 32.................M....rB...PC....q....jA....;
#X connect 79 0 80 0;
#X connect 83 0 82 0;
#X connect 84 0 86 0 32.................J....j2+++uB....48+++OA....;
#X connect 85 0 87 0;
#X connect 86 0 81 0 32.................C....v5++++.....r9+++a.....;
#X connect 87 0 9 0 32.................C....DH...v.....AB...X.....;
#X connect 87 0 10 0 32......................7K.........+B...T.....;
#X connect 87 0 11 0 32.................8++++2M...P+++++cC...T.....;
#X connect 87 0 12 0 32.................7++++uO....+++++6C...T.....;
#X connect 87 0 13 0 32.................4++++mQ...P9++++YD...T.....;
#X connect 100 0 109 1 32.................B.....8+++u.....P++++S.....;
#X connect 103 0 8 1;
#X connect 104 0 103 1;
#X connect 105 0 104 1;
#X connect 106 0 105 1;
#X connect 107 0 106 1;
#X connect 108 0 107 1;
#X connect 109 0 108 1;
#X connect 110 0 103 0;
#X connect 111 0 104 0;
#X connect 112 0 105 0;
#X connect 113 0 106 0;
#X connect 114 0 107 0;
#X connect 115 0 108 0;
#X connect 116 0 109 0;
#X connect 117 0 100 0;
#X connect 120 0 81 0;
#X connect 120 0 101 0;
#X connect 120 0 7 0 32.................T....P9+++OE....j++++iB....;
